<?xml version="1.0" encoding="utf-8"?>
<!-- Generator: Adobe Illustrator 17.0.0, SVG Export Plug-In . SVG Version: 6.00 Build 0)  -->
<!DOCTYPE svg PUBLIC "-//W3C//DTD SVG 1.1//EN" "http://www.w3.org/Graphics/SVG/1.1/DTD/svg11.dtd">
<svg version="1.1" id="Layer_1" xmlns="http://www.w3.org/2000/svg" xmlns:xlink="http://www.w3.org/1999/xlink" x="0px" y="0px"
	 width="200px" height="300px" viewBox="0 0 200 300" enable-background="new 0 0 200 300" xml:space="preserve">
<g>
	<g>
		<path d="M123.357,148.686c0,0-0.252-4.547-4.42-7.452c-4.169-2.904-6.695-0.758-6.695-0.758s0.379-17.178-1.263-24.124
			c-1.642-6.947-6.062-9.221-7.705-8.968c-1.642,0.252-3.031,1.011-4.421,0.632c-1.389-0.379-2.4-1.517-3.031-1.517
			c-0.631,0-2.652,1.138-2.652,1.138s-1.137-0.253-2.021-0.253c-0.884,0-1.389,0.379-2.147,0.126
			c-0.758-0.252-1.263-0.379-1.263-0.379s-6.315,4.674-7.326,14.399c-1.01,9.725,4.168,22.608,4.168,22.608
			s-1.516,0.253-2.779,1.642c-1.263,1.39-2.147,4.926-2.147,4.926s-1.769,1.138-3.916,2.653c-2.147,1.516-2.905,4.168-1.642,5.558
			c1.263,1.389,2.4,4.294,3.284,5.81c0.884,1.516,3.284,2.022,4.673,1.39c1.39-0.632,3.284-0.253,4.294,0.126
			c1.011,0.379,1.769-0.758,1.769-0.758s3.284,2.779,6.062,3.537c2.779,0.758,3.158-1.643,4.8-1.769
			c1.642-0.126,0.505,2.021,0.505,2.021s0,0-0.379,1.516c-0.379,1.516,1.137,3.41,1.137,3.41s7.578,35.618,11.367,65.932
			c3.79,30.313-2.273,59.869-2.273,59.869h9.852c0,0,3.284-28.544,2.273-45.596c-1.01-17.052-4.421-36.25-6.821-50.396
			c-2.4-14.146-5.936-29.303-5.936-29.303l0.126-0.885c0,0,0.505-2.147,2.021-2.778c1.516-0.632,4.547,1.39,4.547,1.39
			s0.252-0.506-0.127-1.39s-2.021-2.021-2.021-2.021s0.884-1.137,2.4-1.516c1.516-0.379,2.273,0,2.273,0l-0.505-1.137
			c0,0,0.884-0.632,1.263-2.147c0.379-1.516-0.631-7.2-0.631-7.2s1.895,3.537,4.042,3.663c2.147,0.127,4.42-1.895,4.42-5.684
			C126.515,151.212,123.357,148.686,123.357,148.686z M84.96,146.412c0.631,0.379,1.642,1.39,1.642,1.39s-1.011,0.379-1.137,0.884
			c-0.126,0.506-0.632,0.632-0.632,0.632s-1.516,0.253-1.389-0.758C83.571,147.549,84.328,146.033,84.96,146.412z M80.918,160.054
			c-1.137-0.758-2.273-2.652-2.273-2.652l1.263-2.4c0,0,0.379,1.642,0.884,2.779c0.505,1.137,2.274,3.41,2.274,3.41
			S82.055,160.811,80.918,160.054z M86.981,156.264c0,0-0.884,0.253-1.768-0.631c-0.884-0.884-1.768-3.916-1.768-3.916
			s0,0,0.631-0.505c0.632-0.505,1.516,0,1.516,0s0,0.379,0,1.137s1.768,2.4,1.768,2.4S87.36,155.759,86.981,156.264z
			 M99.233,163.843c0,0-1.137-1.011-2.905,0c-1.768,1.011-2.905,0.884-2.905,0.884s0.253-4.294,0.758-5.937
			c0.505-1.642,0.505-1.642,0.505-1.642s2.021-0.506,3.537,1.769C99.738,161.19,99.233,163.843,99.233,163.843z M110.222,170.031
			c-0.505,1.138-1.895,1.642-1.895,0.885c0-0.758-0.126-1.895-0.632-2.4c-0.505-0.505-1.263-2.904-1.263-2.904
			s1.136,2.021,2.399,2.399C110.095,168.39,110.727,168.894,110.222,170.031z M112.747,167.632c0,0-1.642-5.81-2.652-7.452
			c-1.01-1.642-1.137-3.031-1.137-3.031l0.252-1.137c0,0,2.526,3.789,3.031,4.8c0.505,1.01,0.884,1.895,0.884,1.895L112.747,167.632
			z M117.547,146.917c-1.01,0-1.01,0-1.01,0s-0.632-1.895-1.516-2.399c-0.884-0.505-2.273-0.758-2.273-0.758
			s2.273-3.536,4.168-2.273c1.894,1.263,2.4,2.399,3.284,3.41c0.884,1.011,0.379,2.905,0.379,2.905
			C120.2,147.675,118.558,146.917,117.547,146.917z M121.084,159.296c-1.011,0-1.01-3.537-1.01-3.537s0.758-0.505,1.389-0.632
			c0.631-0.126,2.147-1.263,2.147-1.263s0.505,0.505,0.505,2.02C124.115,157.401,122.095,159.296,121.084,159.296z"/>
	</g>
</g>
</svg>
