<?xml version="1.0" encoding="utf-8"?>
<!-- Generator: Adobe Illustrator 17.0.0, SVG Export Plug-In . SVG Version: 6.00 Build 0)  -->
<!DOCTYPE svg PUBLIC "-//W3C//DTD SVG 1.1//EN" "http://www.w3.org/Graphics/SVG/1.1/DTD/svg11.dtd">
<svg version="1.1" id="Layer_1" xmlns="http://www.w3.org/2000/svg" xmlns:xlink="http://www.w3.org/1999/xlink" x="0px" y="0px"
	 width="200px" height="300px" viewBox="0 0 200 300" enable-background="new 0 0 200 300" xml:space="preserve">
<g>
	<g>
		<path d="M144.282,86.289c0,0,3.884-7.957,4.547-8.904c0.663-0.947-0.284-0.474-0.568-0.758c-0.284-0.284-0.379-0.379-0.379-0.379
			s-0.284-1.231-1.042-1.231c-0.758,0-2.368,0.758-3.695,1.894c-1.326,1.137-4.357,4.831-4.357,4.831s0-1.232,0-2.463
			c0-1.232,0.758-3.6,1.421-5.115c0.663-1.516,0-0.284-0.095-0.663c-0.095-0.379-0.568-1.232-1.326-0.19
			c-0.758,1.042-3.031,6.82-3.126,7.483c-0.095,0.663-1.042,0.379-1.042,0.379s-0.095-2.652,0.095-4.263
			c0.19-1.61,2.179-4.168,3.126-5.305c0.947-1.137,0.947-0.758,0.947-1.042c0-0.284,0.663-0.568,0.568-1.042
			c-0.095-0.474-1.137-0.284-2.084,0.568c-0.947,0.852-2.747,2.936-2.747,2.936s0.189-3.031,0.189-4.073s-0.095-4.736-0.189-5.021
			c-0.095-0.284-0.663,0-1.231,0.095c-0.568,0.095,0,0-0.095-0.284c-0.095-0.284-0.663-0.379-1.137,0
			c-0.474,0.379-1.421,1.61-1.8,2.652c-0.379,1.042-1.326,3.41-1.326,3.41s-0.19-2.179-0.095-3.789
			c0.095-1.61,1.231-2.463,1.231-2.463s-2.084,0.095-3.032,1.61c-0.947,1.516-1.61,2.747-2.179,3.315c-0.568,0.568,0,0-0.284-0.663
			c-0.284-0.663-0.474-0.095-0.474-0.095s-1.231-0.379-1.326-0.663c-0.095-0.284-0.853-2.842-1.232-4.642
			c-0.379-1.8-1.137-1.989-1.137-1.989s-0.095,1.421-0.095,2.179c0,0.758-0.474,0.19-0.474,0.19s-0.284-0.568-0.568-1.421
			c-0.284-0.853-0.568-0.474-0.568-0.474s-0.284-0.095-1.231,0.284c-0.947,0.379-0.474,0.474-0.758,1.042
			c-0.284,0.568,0,1.231-0.19,1.989c-0.189,0.758-0.758,1.61-0.852,2.558c-0.095,0.947,0,5.589,0,6.631s-0.474,0.284-1.042,0.568
			c-0.568,0.284-0.758,0.379-1.61,0.474c-0.853,0.095-0.664,0.284-0.758,0.853c-0.095,0.568-0.189,1.8-0.189,1.8
			s-0.758-5.494-0.663-7.483c0.095-1.989,0-4.263,0-4.547c0-0.284-1.232,1.326-1.8,2.368c-0.568,1.042-0.568,0.284-1.421,0.947
			c-0.853,0.663-0.758,0.663-1.232,0.758c-0.474,0.095-0.284,0.284-0.568,0.284c-0.284,0-0.379,0.284-0.379,1.705
			c0,1.421,0,2.368,0.189,4.168c0.19,1.8,2.558,11.935,2.842,12.884c0.284,0.947-0.474,0.284-0.947,0.095
			c-0.474-0.19-1.8-2.18-1.989-3.506c-0.189-1.326-2.084-7.673-2.463-8.525c-0.379-0.852-1.042-0.852-1.042-0.852
			s-2.368-5.778-2.747-6.347c-0.379-0.568-0.853,0.19-1.8,0.758c-0.947,0.568-0.663,0.568-0.947,0.758
			c-0.285,0.19-0.853-0.189-1.137,0.568c-0.284,0.758-0.095,1.61-0.663,3.126c-0.568,1.516,0.852,8.525,0.852,8.525
			s-1.231-0.568-1.895-1.516c-0.663-0.947-2.936-4.357-3.41-4.642c-0.474-0.284-0.189,0.474-0.568,0.947
			c-0.379,0.474-1.042,0.284-1.326,0.852c-0.284,0.568,0,2.179,0,2.179s-2.084-2.747-3.315-3.884
			c-1.231-1.137-2.273-1.042-2.937-1.042s-1.705,0.947-2.842,1.61c-1.137,0.663-2.842-1.326-3.789-1.326s-0.853,0-1.231,0
			s-0.189,0.284-0.568,0.663s-0.853,0.568-1.8,0.663c-0.947,0.095-0.284,0.568,0.095,2.084c0.379,1.516,4.831,7.768,4.831,7.768
			s-1.042-0.19-1.516,0.095c-0.474,0.285-0.853,0.475-0.853,0.475s-4.263-2.843-5.21-3.316c-0.947-0.474-2.747-1.231-4.263-1.326
			c-1.516-0.095-1.232-0.095-1.706-0.095c-0.474,0-0.852,0.474-1.421,1.042c-0.568,0.568-1.516,1.232-1.516,1.232
			s3.505,1.8,5.21,2.653c1.705,0.852,5.21,4.263,5.21,4.263s-7.105-3.031-7.863-3.031c-0.758,0-0.568,0.19-0.853,0.568
			c-0.284,0.379-0.095,0.474-0.663,0.947c-0.568,0.474-0.19,0.568,0.379,1.137c0.568,0.568,4.358,3.884,5.873,5.021
			c1.516,1.137,1.516,1.8,2.084,2.368c0.568,0.568,3.789,3.789,3.789,3.789s-3.979-3.031-5.21-4.073
			c-1.232-1.042-2.842-1.232-5.874-3.505c-3.031-2.273-6.441-1.989-6.915-1.895c-0.474,0.095,0,0.568-0.758,1.042
			c-0.758,0.474-0.189,0.568-0.189,1.232s-0.663,0.663-0.947,1.231c-0.284,0.568,0.758,0.663,2.179,1.895
			c1.421,1.231,7.862,5.305,7.862,5.305l-0.758,1.042l0.284,1.137c0,0,4.737,2.368,5.305,2.747c0.568,0.379,1.516,1.232,1.516,1.232
			s-1.421-0.19-2.179-0.568c-0.758-0.379-2.463-0.758-5.305-1.8c-2.842-1.042-4.831-1.042-5.684-0.947
			c-0.853,0.095-0.663,0.568-1.042,0.947c-0.379,0.379,0,0.568,0,0.568l-0.189,1.8c0,0-3.031,1.421-3.694,2.273
			c-0.663,0.853,0,0.853,0.19,1.516c0.189,0.663,0.189,0.663,0.189,1.042s0.284,1.042,0.284,1.042s-1.61,1.137-2.084,1.61
			c-0.474,0.474-1.231,1.801-1.231,2.274c0,0.474,0,0,0.284,0.284c0.284,0.284,0.474,1.042,0.474,1.042s0.284-0.663,1.326-1.895
			c1.042-1.232,3.221-1.043,3.221-1.043s-0.663,0.948-1.231,1.517c-0.568,0.568,0,0.568,0,1.231c0,0.663-0.284,0.758-0.095,1.231
			c0.189,0.474,0.189,0.379,0.189,0.947c0,0.568-0.189,0.947,0.095,1.326c0.284,0.379,11.272-1.042,19.135-0.947
			c7.863,0.095,13.546,2.747,13.546,2.747s-1.516,0.852-4.168,2.273c-2.653,1.421-3.979,2.842-5.116,5.305s-0.095,5.305,0.568,6.062
			c0.663,0.758,0.663,0,1.231-0.095c0.568-0.095,0.758,0,0.758,0s-0.189,1.326,0.663,5.021c0.853,3.694,1.8,3.789,2.084,4.073
			c0.284,0.284,1.326,0.947,1.61,0.947s0.284-0.947,0.758-1.137c0.474-0.19,0.663,0.095,0.568-0.663
			c-0.095-0.758-0.663-4.073-1.137-7.768c-0.474-3.694,0.095-6.536,1.705-9.188c1.61-2.652,4.736-1.705,4.736-1.705
			s-0.663,1.61-1.042,3.126c-0.379,1.516,0,1.989,0.189,3.031s0.947,0.568,1.421,0.379c0.474-0.19,0.663,0.189,1.042,0.379
			c0.379,0.19,1.516-0.663,1.895-1.231c0.379-0.568,1.516-0.568,1.516-0.568s1.327,0.663,3.884,1.421
			c2.558,0.758,3.6,0.568,3.6,0.568s2.273,6.157,2.558,7.01c0.284,0.853-1.326,0.474-2.179,0.095
			c-0.852-0.379-1.61-0.568-2.842,0.284c-1.231,0.853-1.326,5.21,0.189,6.062c1.516,0.854,1.895,0.664,2.558,0
			c0.663-0.663,1.705-1.231,2.558-0.663c0.852,0.568-1.326,3.222-1.421,4.453c-0.095,1.231-0.947,4.263-0.947,4.263
			s1.042-0.095,1.137-1.232c0.095-1.137,0.284-1.516,1.232-2.842c0.947-1.326,2.368-1.421,2.463-0.758
			c0.095,0.663-1.705,1.989-1.8,2.747c-0.095,0.758-0.568,2.463,0.568,6.915c1.137,4.452,3.031,7.294,7.01,6.536
			c3.978-0.758,3.789-5.589,3.789-5.589s1.137-0.284,1.895-0.947s2.368-1.8,2.368-1.8s0,20.209-4.547,59.364
			C113.59,259.834,97.675,300,97.675,300h8.083c0,0,3.663-7.579,11.241-35.24c7.578-27.661,10.42-52.67,11.083-69.815
			c0.664-17.146,0-32.303,0-32.303s0.284-0.758,0.758-1.137c0.474-0.379,1.895-1.421,2.368-1.421c0.474,0,0.853,0.379,1.705,1.421
			c0.853,1.042,3.315,0.758,4.073,0.758c0.758,0,0.568,0.474,0.568,0.474s0.663-0.852,0.663-1.231s1.421-0.19,2.368-1.232
			c0.947-1.042,1.516-4.642,1.516-4.642s2.274-1.042,2.084-3.6c-0.189-2.559-6.063-6.537-6.063-6.537s-0.474-0.853-1.232-1.989
			c-0.758-1.137-3.505-1.61-3.505-1.61s0.095-0.284,0.284-1.421c0.19-1.137-0.284-1.516-1.137-3.979
			c-0.853-2.463-1.516-8.904-1.042-10.609c0.474-1.705,2.273-4.736,3.221-6.062c0.947-1.327,3.6-7.39,3.789-8.621
			c0.189-1.231-1.137-1.421-1.989-1.61c-0.852-0.19-0.947-1.705-0.947-1.705s2.179-7.957,2.937-9.283
			c0.758-1.326,1.042-1.61,1.989-2.368c0.947-0.758,3.79-1.326,4.074-1.705c0.284-0.379,0.284-1.231,0.284-2.273
			s0.568-1.137,1.232-1.137c0.663,0,1.516,0.095,2.084,0.095c0.568,0,0.568-0.853,0.947-1.516s1.137-0.284,1.042-0.758
			C150.06,88.469,144.282,86.289,144.282,86.289z M114.474,168.893c-2.147,0.253-2.779,0-3.031-3.662
			c-0.252-3.663,0.253-6.063,0.253-6.063s0.758,0,1.642,1.011c0.884,1.011,1.894,1.011,2.526,1.769
			c0.631,0.758,1.263,0.126,1.263,2.526C117.126,166.873,116.621,168.641,114.474,168.893z M136.703,153.989
			c0.379,0.253,0.758,2.147,0.758,3.031c0,0.885,0.379,2.274,0,3.032s-0.632,1.642-1.895,0.505
			c-1.263-1.137-2.652-1.895-2.652-1.895C133.672,157.652,136.325,153.737,136.703,153.989z M133.546,151.211
			c1.642,0.253,2.274,1.895,2.274,1.895s-1.137,1.137-2.779,3.663c-1.642,2.525-2.905,1.642-3.663,2.021s-0.505,1.39-0.884,1.643
			h-0.758c0,0-0.758-2.4-0.631-3.158c0.126-0.758,0.884-0.758,1.389-2.021c0.505-1.264-0.505-1.768-0.505-1.768
			s0.632-1.769,1.642-2.399C130.641,150.453,131.904,150.958,133.546,151.211z"/>
	</g>
</g>
</svg>
