<?xml version="1.0" encoding="utf-8"?>
<!-- Generator: Adobe Illustrator 17.0.0, SVG Export Plug-In . SVG Version: 6.00 Build 0)  -->
<!DOCTYPE svg PUBLIC "-//W3C//DTD SVG 1.1//EN" "http://www.w3.org/Graphics/SVG/1.1/DTD/svg11.dtd">
<svg version="1.1" id="Layer_1" xmlns="http://www.w3.org/2000/svg" xmlns:xlink="http://www.w3.org/1999/xlink" x="0px" y="0px"
	 width="200px" height="300px" viewBox="0 0 200 300" enable-background="new 0 0 200 300" xml:space="preserve">
<g>
	<g>
		<path d="M135.476,76.343c0.054,0.191,0.118,0.349,0.118,0.349S135.619,76.43,135.476,76.343z M90.986,67.787
			c0.083,0,0.148,0,0.148,0S91.056,67.714,90.986,67.787z M170.77,87.743c-1.074,0.506-2.779,0.758-4.231,1.39
			c-1.453,0.632-1.895,1.011-2.968,1.642c-1.073,0.632-1.831,0.947-4.168,1.39c-2.337,0.442-0.947,0.19-2.652,1.137
			c-1.705,0.947-2.463,1.074-5.684,1.579c-3.221,0.505-2.779-1.073-2.779-1.073s4.862-1.39,8.715-2.337
			c3.853-0.947,8.715-3.221,8.715-3.221s-0.379-0.127-0.695-0.506c-0.316-0.379-0.126-0.379-0.568-0.694
			c-0.442-0.315-0.758,0.252-1.389,0.441c-0.632,0.19-1.642,0.316-1.39-0.441c0.253-0.758,1.074-0.947,1.453-1.2
			c0.379-0.253,0.568-0.442,0.568-0.442s-0.316-0.441-0.316-0.758c0-0.315-0.189-0.505-0.189-0.82c0-0.315-0.19-0.063-0.821-0.127
			c-0.631-0.062-0.695,0-1.326,0c-0.631,0-0.758,0.316-1.2,0.379c-0.442,0.063-0.443-0.062-0.632-0.505
			c-0.19-0.442-0.379-0.315-0.442-1.011c-0.062-0.694-0.19-0.189-0.568-0.315c-0.379-0.126-0.631-0.442-0.82-0.758
			c-0.19-0.315-0.316-0.064-1.011-0.315c-0.694-0.253,0.063-0.885-0.19-1.2c-0.252-0.316-2.147,0.379-3.157,0.694
			c-1.01,0.316-0.821-0.062-1.453-0.379c-0.631-0.315-0.379-0.758-0.505-1.516c-0.127-0.758-0.505-0.062-1.326-0.062
			c-0.821,0-0.505-0.379-1.263-0.316c-0.758,0.063-2.842,0.379-3.41,0.189c-0.568-0.189-0.19-0.252-0.19-0.441
			c0-0.189-0.253,0-0.632-0.063c-0.379-0.063-0.442-0.947-0.442-0.947s0,1.326,0,1.705c0,0.379-0.82,0.568-1.326,0.884
			c-0.505,0.315-0.947,0.632-1.642,0.885c-0.694,0.252-0.126-0.568,0.316-1.453c0.442-0.884,0.506-0.82,1.137-1.137
			c0.631-0.315,0,0-0.441-0.126c-0.442-0.126-0.253-0.632-0.253-1.073c0-0.442,0.505-0.758,0.443-1.2
			c-0.063-0.442-0.443-0.189-0.695-0.063c-0.252,0.126-0.379,0.063-0.758-0.315s-0.505,0.379-1.01,0.568
			c-0.505,0.189-0.253-0.126-0.316-0.632c-0.063-0.505-0.252,0.885-0.379,1.264c-0.126,0.379-1.01,1.01-1.642,1.642
			c-0.631,0.632-2.084,1.137-2.905,0.442c-0.821-0.695,0.316-1.894,0.821-2.147c0.16-0.08,0.258-0.073,0.324-0.033
			c-0.038-0.133-0.071-0.279-0.071-0.409c0-0.315,0.126-0.82,0.442-1.199c0.316-0.38,0.442-1.074,0.189-1.138
			c-0.252-0.062-0.695,0.506-1.263,0.316c-0.568-0.19-0.189-0.568-0.189-0.568l-0.758-0.063c0,0,0.568-1.073,0.568-1.705
			c0-0.632,0.064-1.39-0.189-1.769c-0.253-0.379,0,1.264,0,1.579c0,0.315-0.253,0.19-0.631,0.126
			c-0.379-0.062-0.442-0.884-0.568-1.073c-0.126-0.189,0.063,1.073,0,1.39c-0.063,0.315-0.505,0.315-0.947,0.126
			c-0.442-0.19-0.947,0.253-0.947,0.253l0.758,0.062c0,0,0.442,1.011-0.316,1.39c-0.758,0.379-0.758,0.442-0.758,0.442l0.632-0.063
			c0,0-0.379,0.442-0.568,0.695c-0.189,0.252-1.263,1.326-1.263,1.326s-0.631-1.137-0.631-1.517v-0.947
			c0-0.19,1.958-2.589,1.958-2.589l0.758-1.073l-0.821,0.631c0,0-0.316-1.326-0.316-1.578c0-0.253-0.063,0.884-0.063,0.884
			s-1.453,3.284-1.642,3.347c-0.189,0.063-0.821-0.252-1.453-0.062c-0.631,0.189-1.073,1.073-1.073,1.073s0-0.884,0-1.326
			s-0.822-1.452-0.822-1.642c0-0.189,0.126-0.821,0-1.326c-0.126-0.505-1.2-0.379-1.2-0.379l0.442-1.2c0,0-0.821,0.821-1.2,1.326
			s-0.379,0.568-0.379,0.568s-0.631-1.263-0.758-1.516c-0.126-0.253-0.379-0.253-0.884-0.379c-0.505-0.127-0.126-0.758-0.505-1.073
			c-0.379-0.316-0.695-0.189-1.074,0.062c-0.379,0.253,0,0.821-0.063,1.2c-0.063,0.379-0.947,0.315-0.947,0.315
			s0.315-0.947-0.19-1.01c-0.505-0.063-0.821,1.01-0.821,1.01l0.884-0.505c0,0-0.442,1.2-0.758,1.579
			c-0.316,0.379-1.2,0.947-1.516,1.073c-0.316,0.126-0.568-0.064-0.695-0.315c-0.126-0.253,0-1.39,0.063-1.643
			c0.063-0.252,1.01,0.379,1.01,0.379l-0.253-1.073l0.442-1.39c0,0,0.253-0.379,0.127-0.568c-0.127-0.189-0.316-0.379-0.379-0.694
			c-0.063-0.316-0.568-0.126-1.137,0.442c-0.568,0.568-1.263,1.578-1.263,1.578l-0.063-1.958c0,0-0.253,2.59-0.505,2.842
			c-0.253,0.253-0.442,0.632-0.568,0.821c-0.127,0.189,0.379,0,0.379,0s-0.442,0.568-0.631,0.885
			c-0.189,0.315,0.063,0.505-0.126,0.82c-0.189,0.316-0.189,0.189-0.379,0.379c-0.189,0.189,0.253,0.253,0.253,0.253
			s-1.073,0.884-1.073,0.694c0-0.189,0.189-1.452,0.505-2.336c0.315-0.885,0.315-2.085,0.379-2.464
			c0.063-0.379,0.632-0.062,0.632-0.062l0.126-0.885l-0.821,0.127l-0.315-1.264c0,0,0.064,2.084-0.126,2.969
			c-0.189,0.884-0.695,1.073-0.885,1.452c-0.19,0.379-1.073,1.326-1.073,1.326s-0.253-0.947-0.064-1.705
			c0.189-0.758,0.695-1.137,1.137-1.895c0.442-0.758,0.253-1.39,0.442-2.526c0.189-1.137-0.126,0.316-0.253,0.695
			c-0.127,0.379-0.19,0.694-0.315,0.947c-0.126,0.252-1.011,1.01-1.263,1.642c-0.253,0.632-0.379,1.264-0.695,1.705
			c-0.316,0.442-0.694,0.379-0.884,0.379c-0.189,0-0.758,0-1.263-0.252c-0.505-0.253-0.568-0.19-0.947-0.127
			c-0.379,0.064,0-0.631,0.126-1.769c0.126-1.137,0.063-1.263-0.126-0.82c-0.189,0.441-0.505,2.526-0.884,3.663
			s-1.642,2.084-1.642,2.084s0.379-0.885,0.505-1.579c0.126-0.694,0.063-0.694,0-1.2c-0.063-0.505-0.063-0.631-0.568-0.694
			c-0.505-0.063-0.695,0.568-0.695,0.568s0,0,0.442,0.315c0.442,0.316,0.126,1.453-0.632,2.59c-0.758,1.137-0.947,1.769-1.326,2.716
			c-0.379,0.947-0.758,1.452-1.2,1.326c-0.442-0.127,0-1.264,0.442-2.59c0.442-1.326,1.011-3.031,1.011-3.031l-1.011,1.2
			c0,0-0.253-0.316-0.316-0.947c-0.063-0.632,0-1.2,0.19-2.273c0.189-1.074,0.315-1.39,0.315-2.211c0-0.82,0.063-1.199-0.252-1.768
			c-0.316-0.568-0.821-0.316-1.2-0.19c-0.379,0.126-0.443,0.441-1.011,0.947c-0.568,0.505-0.441,0.884-0.694,1.894
			c-0.253,1.011-0.19,1.199-0.443,1.516c-0.252,0.315-0.379,0.441-0.379,0.441l0.695,0.063v1.2c0,0-0.631,1.01-1.2,1.389
			c-0.568,0.379-0.695,0.821-0.822,1.2c-0.126,0.379-0.631,0.126-1.073-0.379c-0.442-0.505,0.315-1.705,0.315-1.705
			s-0.694,1.137-1.073,1.452c-0.379,0.316-1.011,0.379-1.011,0.379s0.379-1.326,0.379-2.968s0-3.979,0-3.979
			s-0.315,3.474-0.315,4.421c0,0.947-0.821,2.778-0.821,2.778s-0.758-2.084-0.758-2.652c0-0.568-0.126-2.399-0.126-3.221
			c0-0.363,0.05-0.51,0.105-0.568h-0.547c-0.253,0,0-0.316,0-1.2c0-0.884,2.4-1.326,2.4-1.326s-0.884-0.189-2.084,0.379
			c-1.2,0.568-0.695,1.326-0.695,1.326l-2.147-1.263c0,0,0.631,0.631,0.884,0.947c0.252,0.315,0.379,1.01,0.379,1.516
			c0,0.505-0.253,0.821-0.316,1.137c-0.063,0.315-0.631,0.758-0.631,0.758s-0.379-0.568-1.2-1.137
			c-0.821-0.568-1.768,0.442-1.768,0.442s0.379-0.127,1.074-0.19c0.694-0.063,1.326,0.505,1.516,1.01
			c0.189,0.506-0.126,0.821-0.316,1.39c-0.189,0.568-0.695-0.379-0.884-1.011c-0.19-0.631,0,0-0.442,0.316
			c-0.442,0.315-0.758,0.505-0.758,0.505s0.821-0.126,0.947,0.19c0.127,0.315,0.253,1.073,0.253,1.073l-1.01,1.2
			c0,0,0.695-0.758,1.01-0.821c0.316-0.062,0.189,0.695,0.189,0.695s-0.315,1.137-0.379,1.705c-0.063,0.568-0.884,1.011-0.884,1.011
			s-0.442-1.643-0.632-2.526c-0.189-0.885-0.694-2.211-0.947-3.6c-0.252-1.39,0.947-3.79,0.947-3.79s-0.631,0.506-1.073,1.643
			c-0.442,1.137-0.063,3.157-0.253,3.031c-0.19-0.126-1.073-1.958-1.137-2.21c-0.063-0.253-0.252-1.2-0.062-2.021
			c0.19-0.82,1.137-1.705,1.137-1.705s-0.442,0.315-1.137,0.947c-0.583,0.531-0.499,1.893-0.457,2.208
			c-0.037-0.226-0.273-0.713-0.68-0.946c-0.442-0.252-0.948-0.252-1.074-0.568c-0.126-0.315,0.252-0.884,0.252-0.884l-0.379,0.505
			c0,0-0.695-0.947-0.884-1.199c-0.189-0.253,0,0.694,0,0.694s0.19,1.39,0.127,1.895c-0.063,0.506-0.127,1.958-0.127,1.958
			s-0.379-0.379-0.568-0.632c-0.19-0.252-0.315-1.326-0.505-1.579c-0.19-0.252,0.315-1.705,0.315-1.705l-0.947,1.011l-1.389-1.011
			c0,0,0.884,1.39,1.389,1.643c0.505,0.252,0,1.137,0,1.137l-0.758,0.379c0,0,1.137,0.253,1.39,0.632
			c0.253,0.379,0.631,1.642,1.01,2.778c0.379,1.137,0.126,2.4,0.126,3.031c0,0.632,0,2.147-0.505,2.526
			c-0.505,0.379-0.505-0.379-0.758-1.263c-0.252-0.885-2.021-7.579-2.021-7.579s2.4,9.095,1.39,8.842
			c-1.01-0.253-1.263,0.253-1.894,0c-0.632-0.253-0.253-3.157-0.632-6.315c-0.379-3.158-0.758-4.674-0.758-4.674l-0.252,1.516
			l-1.389-1.137c0,0,1.389,1.517,1.642,1.896c0.252,0.379,0,2.778,0.379,4.42c0.379,1.643,0.126,2.526-0.126,2.905
			c-0.253,0.379-0.505,0-0.884-0.631c-0.379-0.632-1.895-2.4-2.4-3.284c-0.505-0.885-0.758-1.643-1.263-1.516
			c-0.505,0.126-1.642-0.127-2.021,0.505c-0.379,0.632-1.389,0.505-1.389,0.505l-0.252,0.379c0,0-1.516-0.758-2.147-0.884
			c-0.631-0.126-0.884,0.758-0.884,0.758s0.253-0.126,1.137-0.253c0.884-0.126,1.642,1.137,1.642,1.137s0.127,0.758,0.379,1.39
			c0.253,0.632,0.126,1.137,0.758,2.273c0.632,1.137,0.505,2.273,0.505,2.779c0,0.505-1.516-0.885-2.652-1.39
			c-1.137-0.506-1.516-2.905-1.769-3.41c-0.252-0.506-0.379,0.632-0.884,0.505c-0.505-0.126,0.379,0.885,1.01,1.643
			c0.631,0.758,0.126,1.642,0.126,2.525c0,0.885-1.137-0.126-2.021-0.631c-0.884-0.506-1.642-1.39-3.284-1.516
			c-1.642-0.127-1.895-0.379-2.653-1.137c-0.758-0.758-1.516-0.127-1.137,0.758c0.379,0.884,1.39,1.642,2.779,2.652
			c1.389,1.01,4.168,4.294,4.547,4.673s-2.526-1.011-3.915-2.021c-1.39-1.011-3.158-2.652-4.547-3.916
			c-1.389-1.263-1.516-0.379-2.147-0.884c-0.632-0.506-0.884,0-0.632,0.758c0.253,0.758,0.758,1.263,0.379,1.263
			s0.253,1.137,1.642,2.779c1.39,1.642,6.947,5.684,6.947,5.684s-0.379,0-1.895-0.506c-1.516-0.505-4.8-4.294-8.589-6.946
			c-3.789-2.652-3.41-1.263-3.915-0.632c-0.505,0.632,5.81,6.568,5.81,6.568s-1.768-0.127-2.905-0.127
			c-1.137,0-1.011,0.253-2.273,0.379c-1.263,0.127-2.021,0-2.779-0.379c-0.758-0.379-3.915-1.389-3.915-1.389
			s1.768,1.263,1.768,1.768v1.768c0,0.885,0.884,0.632,2.526,1.264c1.642,0.631,3.031,1.894,3.031,1.894s-5.052-0.758-8.21-0.758
			c-3.157,0-6.82-0.632-6.947,0c-0.127,0.631-1.01,1.768-1.01,2.146s4.926,0.885,4.926,0.885s0.253,0.632,0.505,1.011
			c0.252,0.379,3.537,1.894,3.537,1.894s-5.937,0.379-7.2,1.01c-1.263,0.632-2.021,1.011-2.147,1.643
			c-0.126,0.631,2.399,0.379,5.431,0.379c3.031,0,15.283-1.137,17.683-1.137s3.915,1.01,3.915,1.01h-7.452
			c0,0-12.251,2.273-14.399,3.284c-2.147,1.011-4.799,2.273-5.936,3.031c-1.137,0.758-1.263,1.39-1.263,1.39
			s5.178-1.894,10.989-2.652c5.81-0.758,17.557-2.779,17.557-2.779l1.515,2.147c0,0-3.536,1.895-7.705,6.19
			c-4.168,4.294-8.589,13.388-8.589,13.388s0.127,0.885,0.505,1.011c0.379,0.126,0.758,0.758,1.137,1.011
			c0.379,0.252,0.758,1.137,0.758,1.137l3.916-4.674c0,0-0.631,3.916-0.631,5.179c0,1.264,0.505,0.379,0.505,0.379
			s0.632-0.253,1.011-0.126c0.379,0.126,1.137-0.127,1.137-0.127s1.263-1.768,5.305-8.209c4.042-6.442,11.494-9.6,11.494-9.6
			s1.01,0.884,2.526,0.884c1.516,0,5.305-0.631,5.305-0.631s-1.768,1.137-3.031,5.557c-1.263,4.421-0.631,7.705-0.379,8.084
			c0.252,0.379,0.505,0.379,1.011,0.253c0.505-0.127,0.631-0.379,1.01-0.379s0.379-0.127,1.01-0.632
			c0.632-0.505,1.516,0.632,1.516,0.632s0.126-4.168,1.895-7.579c1.769-3.41,3.284-4.799,3.284-4.799s-0.631,4.168-0.379,5.935
			c0.253,1.769,0.379,0.632,1.516,0c1.137-0.631,0.379-0.126,1.263-0.126c0.885,0,0.379,0,1.137-0.126
			c0.758-0.126,1.263,0.758,1.263,0.758l-0.126,3.284c0,0-1.895,0.126-3.284,0.631c-1.39,0.505-2.779,0.379-5.432,6.441
			c-2.652,6.063-3.789,7.326-4.673,12.379c-0.884,5.052,0.758,6.82,2.021,7.957c1.263,1.137,0.632,0.884,0.379,2.021
			c-0.252,1.137-2.021,3.284-2.021,3.284l3.41-1.263c0,0,0.631,0.379,1.389,0.631c0.758,0.253,1.011-5.052,1.011-5.052
			s3.789,3.536,4.546,4.547c0.758,1.01,0.253,1.263-0.378,1.895c-0.632,0.631-2.273,1.768-3.031,2.526
			c-0.758,0.758-1.642,0.505-2.653,1.263c-1.01,0.758-2.905,1.516-2.905,1.516s2.905,0.885,5.936,0.632
			c3.031-0.253,4.168-4.295,5.052-5.053c0.884-0.758,0.884,1.264,2.273,2.905c1.389,1.642,0.758,3.41,0.758,4.547
			c0,1.137-1.137,1.264-2.147,1.769c-1.011,0.505-2.4,2.021-2.021,2.652c0.379,0.632,2.273,1.263,2.273,1.263l-0.884,0.758
			c0,0,0.884,0.758,1.516,0.632c0.631-0.126,2.273-1.516,4.168-2.778c1.894-1.263,5.431-7.705,5.431-7.705
			s-1.389,31.198-3.284,50.522c-1.895,19.325-1.769,17.304-5.305,39.155C83.935,270.95,72.946,300,72.946,300h10.61
			c0,0,6.252-14.146,11.746-39.533c5.495-25.388,7.863-55.228,8.715-66.879c0.853-11.652,1.074-32.65,1.074-32.65
			s0.631,0.758,0.758,1.137c0.126,0.379-0.316,2.778-0.063,4.736c0.253,1.958,1.01,1.516,1.895,2.337
			c0.884,0.821,0.694,1.2,1.326,2.778c0.631,1.579,1.452,2.084,1.452,2.084s0.758-2.715,1.2-4.799
			c0.442-2.085,0.632-1.768,0.126-3.41c-0.505-1.642-0.252-1.705,0.127-2.969c0.379-1.264-0.253-3.6-0.443-3.915
			c-0.189-0.315,1.895,2.273,2.716,2.905c0.821,0.631,1.389,0.568,2.021,0.568c0.631,0,1.958,0.062,2.905,0.82
			c0.947,0.758,2.084,1.643,2.084,1.643s0-1.516-0.064-2.652c-0.063-1.137-1.642-1.705-2.905-3.158
			c-1.263-1.453-3.6-4.989-3.6-4.989s0.062-0.126,1.389,0.316c1.326,0.441,1.326,1.389,1.326,1.389s0.568,0.063,0.884-0.758
			c0.316-0.82,0.505-1.642,1.137-1.705c0.631-0.062,1.453-0.126,2.336-1.137c0.884-1.01,1.705-5.115,1.705-5.115
			s-0.884,0.063-1.389-0.379c-0.505-0.442,0.316-1.2,0.316-2.463s0-2.337,0.19-3.852c0.189-1.516,0.694-1.895,0.694-1.895
			s1.011,2.842,1.516,3.979c0.505,1.137,1.642,3.095,2.779,4.295c1.137,1.2,1.01,1.137,1.832,1.894
			c0.821,0.758,2.589,3.474,2.589,3.474s-0.063-1.643-0.316-2.905c-0.253-1.263-2.273-2.969-3.474-6.441
			c-1.2-3.474-1.137-8.842-1.137-10.989c0-2.146-0.379-6.757-1.894-9.409c-1.516-2.652-8.083-2.969-8.083-2.969
			s-0.442-4.294-0.316-6.126c0.127-1.831,1.326-3.979,1.579-4.041c0.253-0.063,1.263,0.19,2.084,0.694
			c0.821,0.505,1.263,0.947,1.832,1.39c0.568,0.441,1.2,0.568,2.147,0.694c0.947,0.126,2.463,0.505,3.726,0.821
			c1.264,0.315,0.821-0.127,1.389-0.632c0.568-0.505,0.822-0.19,1.264-0.315c0.442-0.127,0.442-0.632-0.442-1.326
			c-0.884-0.695-2.022-1.137-3.664-1.705c-1.642-0.568-3.536-1.832-3.536-1.832l2.084-0.442c0,0,1.831,0.821,3.411,2.021
			c1.579,1.2,2.652,1.516,6.504,4.547c3.852,3.031,5.684,5.684,6.441,6.568c0.758,0.884,0.695,0.189,1.01,0.189
			c0.316,0,0.758-0.189,1.201-0.379c0.441-0.189,0.631,0.505,1.2,0.315c0.568-0.19-1.01-3.789-3.411-6.694
			c-2.4-2.905-9.157-6.378-9.157-6.378s3.41,0.062,5.178,0.062c1.768,0,2.147-0.884,2.968-1.642
			c0.821-0.758,2.274-0.127,5.052,0.126c2.779,0.253,2.021,1.263,6.126,1.705c4.105,0.442,9.347,1.579,9.347,1.579
			s3.726,3.095,4.673,4.231c0.947,1.137,3.726,2.589,3.726,2.589s-0.884-0.884-1.579-1.579c-0.695-0.694-0.568-1.073-0.821-1.705
			c-0.252-0.631-3.347-3.283-3.347-3.283s2.084-0.821,3.916-1.137c1.831-0.316,2.4,0,2.779-0.19
			c0.379-0.189-0.127-0.821-0.316-1.074c-0.19-0.253,0.379,0,0.695-0.379c0.315-0.379-0.064-0.821-0.064-0.821
			s0.695-0.189,0.884-0.568c0.189-0.379-0.568-0.126-0.821-0.631c-0.253-0.505,0.442-0.253,0.442-0.568
			c0-0.315-2.336-0.947-3.41-1.264c-1.074-0.315-1.894-0.441-1.894-0.631c0-0.19,0.315-0.19,0.315-0.695
			c0-0.505-1.326-0.884-1.516-1.01c-0.189-0.127,2.147,0.19,3.347,0.19h2.652c0.505,0,0.442-0.127,0.632-0.253
			c0.189-0.127-0.568-0.442-0.695-0.884c-0.126-0.442-0.442-0.506-1.263-0.695c-0.821-0.189-1.137,0.063-2.21,0.316
			c-1.074,0.252-3.474,0.062-4.8-0.253c-1.326-0.316-1.516-0.694-2.526-1.137c-1.011-0.442-1.832-0.253-1.832-0.632
			s0.506-0.19,0.947-0.441c0.442-0.253,0.632-0.632,1.327-1.137c0.694-0.506,1.705-1.137,3.789-1.706
			c2.084-0.568,3.284-1.705,5.242-2.652c1.958-0.947,2.084-1.01,2.715-1.389c0.631-0.379,0-0.19-0.252-0.442
			c-0.253-0.253,0.316-0.758,0.568-1.074C172.601,87.364,171.844,87.238,170.77,87.743z M60.947,102.837
			c-0.884,0-1.895-0.884-1.895-0.884l3.916,0.379C62.968,102.332,61.831,102.837,60.947,102.837z M72.188,108.268
			c-1.01,0.252-2.652,0-2.652,0s2.021-1.011,2.905-1.264c0.884-0.252,2.779,0.632,2.779,0.632S73.198,108.016,72.188,108.268z
			 M79.514,106.373l-1.389-0.631c0.379,0,2.021,0,2.021,0L79.514,106.373z M81.567,75.981c-0.095,0.19-0.806-0.427-0.806-0.427
			l0.806-1.184C81.567,74.371,81.661,75.792,81.567,75.981z M81.519,73.424c-0.237,0.379-1.327,2.036-1.327,2.036l-0.284-0.379
			c0,0-0.047-2.747-0.047-3.837c0-1.089,0-2.036,0-2.036l0.332-0.19c0,0,0.805,2.463,1.09,2.984
			C81.567,72.523,81.756,73.045,81.519,73.424z M83.367,74.655c-0.095-1.042-0.331-3.458-0.331-3.458s0.663,0.758,1.184,2.368
			c0.521,1.61,0.616,3.979,0.616,3.979C84.645,77.354,83.461,75.697,83.367,74.655z M90.518,69.918c0,0,0.331,2.938,0.521,3.932
			c0.189,0.995,0.426,1.753,0.189,2.511s-0.142,1.61-0.521,0.853s-0.663-2.416-0.71-3.269C89.95,73.092,90.518,69.918,90.518,69.918
			z M88.719,73.66c0-0.568,0.095-2.747,0.284-3.221c0.19-0.474,0.095-1.516,0.19-0.474c0.095,1.042-0.237,4.736-0.237,5.352
			c0,0.615-0.189,2.273-0.189,2.273C88.624,77.118,88.719,74.229,88.719,73.66z M87.392,72.95c0.237-0.568,0.568-1.469,0.568-1.469
			l-0.095,2.89C87.724,74.229,87.156,73.518,87.392,72.95z M87.534,75.365c0.284,0.095,0.142,0.9,0.189,1.042
			c0,0-0.379-0.331-0.568-0.71C86.966,75.318,87.25,75.271,87.534,75.365z M78.883,146.412c-0.884-1.768-0.379-3.41-0.379-3.41
			s0.505,0.885,0.758,1.895c0.253,1.011,2.273,4.547,2.273,4.547S79.766,148.181,78.883,146.412z M83.177,125.193
			c0.379-0.885,0.758-0.253,0.758-0.253s0.758,0.126,1.768,0.253c1.011,0.126-0.126,0.758-1.137,1.642
			c-1.01,0.885-2.021,1.264-2.526,2.273C82.04,129.108,82.798,126.077,83.177,125.193z M92.903,153.233
			c-0.632,1.137-1.39,1.894-1.768,3.789c-0.379,1.895-1.389,5.052-1.389,5.052s0.126-3.031-0.884-4.673
			c-1.01-1.643-3.915-5.179-3.915-5.179s-2.4-5.305-2.526-7.199c-0.126-1.894,0.884-7.2,0.884-7.2s0.505,2.4,1.389,2.4
			c0.884,0,2.021,0,2.021,0s1.137,2.652,1.642,4.294c0.505,1.643,0.758,1.137,0.758,3.41c0,2.273-1.011,6.19-1.011,6.19
			s1.263-0.758,1.895-1.642c0.632-0.885,3.031-1.896,3.031-1.896S93.534,152.097,92.903,153.233z M99.423,66.366
			c0.095-0.143,0.379-0.522,0.521-0.237c0.142,0.284,0.095,0.332,0.142,0.711c0.047,0.379,0,0.947,0,0.947s-0.284-0.568-0.474-0.711
			C99.423,66.935,99.328,66.508,99.423,66.366z M99.139,67.55c0.095-0.71,0.331-0.047,0.521,0.284
			c0.189,0.332,0.142,0.711,0.142,1.185c0,0-0.568,0.379-0.758,0.19C98.855,69.018,99.044,68.261,99.139,67.55z M97.055,78.065
			c0,0-0.427-0.332-0.332-0.9c0.095-0.568,0.474-1.042,0.758-0.947C97.765,76.312,97.244,77.497,97.055,78.065z M97.576,73.14
			c0.095-1.185,0.521-1.279,0.947-2.227c0.426-0.947,0.758-0.806,0.947-0.758c0.19,0.047-0.095,0.853-0.237,1.563
			c-0.142,0.71-1.468,3.078-1.516,3.789C97.718,75.508,97.481,74.323,97.576,73.14z M98.239,78.586c-0.19,0-0.474-0.474-0.474-0.474
			c-0.095-0.615,0.474-2.273,0.758-3.221c0.284-0.947,0.9-2.368,1.042-2.558c0.142-0.19,0.332-0.474,0.332,0.474
			c0,0.947-0.379,2.842-0.853,3.978C98.571,77.923,98.429,78.586,98.239,78.586z M102.076,77.213
			c-0.237,0.521-0.9,1.278-1.042,1.137c-0.142-0.143,0.189-1.042,0.284-1.374c0.095-0.331,1.231-1.895,1.231-1.895
			C102.407,75.318,102.312,76.691,102.076,77.213z M114.533,68.781c0.142-0.284,0.379-0.853,0.521-1.089
			c0.142-0.237,0.332-0.9,0.474-0.521c0.142,0.379,0.095,0.616-0.095,1.279s-0.426,1.042-0.426,1.042
			C114.911,69.303,114.39,69.065,114.533,68.781z M112.069,77.592c-0.047,0.474-0.379,0.615-0.521,1.137
			c-0.142,0.52-0.095,0.615-0.284,0.899c-0.19,0.284-0.142,0.284-0.19,0.758c0,0-0.284,0.711-0.568,0.758
			c-0.284,0.048,0-0.899,0-2.368c0-1.468,0.426-1.278,0.711-2.084c0.284-0.805,0.663-0.568,0.9-0.521
			C112.353,76.218,112.117,77.118,112.069,77.592z M113.206,73.329c-0.237,0.615-0.758,2.226-0.758,2.226
			c-0.426,0.048-0.663,0.048-0.805,0.048c-0.142,0-0.284,0.047-0.189-0.284c0.095-0.332,0.332-0.711,0.568-1.185
			c0.237-0.474,0.521-1.042,0.569-1.326c0.047-0.284,0.616-0.853,0.616-0.853s0.332-0.047,0.426,0.284
			C113.727,72.571,113.443,72.713,113.206,73.329z M114.059,71.908c-0.095-0.19-0.663-0.475-0.616-0.759
			c0.047-0.284,0.095-0.521,0.189-0.758c0.095-0.236,0.237-0.521,0.474-0.331c0.237,0.19,0.284,0.284,0.474,0.521
			c0.189,0.237,0.379,0.237,0.095,0.427C114.39,71.197,114.059,71.908,114.059,71.908z M114.675,74.276
			c-0.237,0.284-0.284-0.284-0.284-0.284c0-0.427-0.237-0.9,0-1.279c0.237-0.379,0.142-0.758,0.284-0.853
			c0.142-0.095,0.568,0.19,0.379,0.427c-0.189,0.236-0.379,0.474-0.284,0.71c0.095,0.237,0.426-0.095,0.284,0.332
			C114.911,73.755,114.911,73.992,114.675,74.276z M120.69,124.814c0,0,0,1.642-0.126,2.778c-0.126,1.137-0.126,1.768-0.126,2.273
			c0,0-1.516,0.506-1.642-0.379c-0.127-0.884-1.516-1.768-2.147-2.021c-0.632-0.253-1.768-0.758-1.768-0.758s0.758-1.011,1.39-1.643
			c0.631-0.631,1.389-0.631,2.652-0.884C120.185,123.93,120.69,124.814,120.69,124.814z M117.911,120.772
			c0,0,1.011,0.505,1.263,1.642c0.253,1.137-0.884,0.253-1.642,0.506c-0.758,0.252-1.137,0.758-1.137,0.758
			s-0.252-1.768,0.126-2.021C116.901,121.404,117.911,120.772,117.911,120.772z M116.711,72.429
			c-0.284-0.142-0.426-0.236-0.379-0.426c0.047-0.19,0.71-0.521,0.71-0.521C116.901,71.908,116.995,72.571,116.711,72.429z
			 M118.369,71.197c-0.237,0.284-0.521,0-0.521,0c0.142-0.237,0.474-0.521,0.474-0.521S118.606,70.913,118.369,71.197z
			 M120.074,69.682c-0.237,0.663-0.474,1.278-0.568,1.562c-0.095,0.285-0.426,0.143-0.426,0.143
			c-0.142-0.237-0.332-0.143,0.095-0.711c0.426-0.568,0.805-1.421,0.853-1.562C120.074,68.971,120.311,69.018,120.074,69.682z
			 M123.153,71.244c0.284-0.568,0.663-0.994,1.184-1.184c0.521-0.189,0.568,0.142,0.521,0.474c-0.047,0.331-0.474,0.284-1.042,0.568
			c-0.568,0.284-0.095,0.806-0.189,1.326c-0.095,0.522-0.426,0.474-0.616,0.758C123.01,73.186,122.869,71.812,123.153,71.244z
			 M120.642,74.56c0-0.568-0.095-2.558,0.047-3.222c0.142-0.663-0.047-1.373,0.237-1.705c0.284-0.331,0.379-0.899,0.805-0.853
			c0.426,0.048,0.332,0.474,0.663,1.137c0.332,0.663,0.521,0.758-0.047,1.942c-0.568,1.185-0.9,1.8-1.137,2.179
			C120.974,74.418,120.642,74.56,120.642,74.56z M121.59,76.786c0-0.236,0.047-0.521,0.284-0.758
			c0.237-0.236,0.853-0.095,0.853-0.095C122.253,76.407,121.59,77.023,121.59,76.786z M125.663,73.565c0,0-0.616-0.331-0.805-0.426
			c-0.189-0.095-0.616,0.142-0.616,0.142s1.326,0.048,1.326,0.758c0,0.711-0.379,2.084-0.616,2.605
			c-0.237,0.521-0.568,0.994-0.663,0.805c-0.095-0.19-0.19-0.521-0.095-0.853c0.095-0.331,0.379-0.758,0.379-0.947
			c0-0.19,0.284-0.284-0.426-0.236c-0.711,0.047-1.042-0.048-1.374-0.095c-0.331-0.048-0.331-0.379-0.331-0.379
			c0.189-0.332,0.521-0.758,0.852-1.185c0.332-0.426,0.995-1.137,1.184-1.373c0.19-0.237,0.095-0.569,0.379-0.521
			c0.284,0.048,0.379,0.048,0.616,0.521C125.71,72.855,125.663,73.565,125.663,73.565z M126.279,74.75
			c0.095-0.616,0.568-0.711,0.852-1.042c0.284-0.332,0.474-0.143,0.805-0.143s-0.047,0.284-0.379,0.427
			c-0.332,0.142-0.095,0.474-0.189,0.663c-0.095,0.189-0.474,0.615-0.758,0.947c0,0-0.237,0.331-0.379,0.284
			C126.089,75.839,126.184,75.365,126.279,74.75z M128.931,77.165c-0.474,0.521-1.563,1.705-1.8,1.989
			c-0.237,0.284-0.521,0.568-0.758,0.143c-0.237-0.427,0.047-1.232,0.047-1.232c0.331-0.379,0.568-1.231,0.71-1.563
			c0.142-0.331,0.19-1.231,0.805-1.137c0.616,0.095,1.185,0.379,1.042,0.711c-0.142,0.331-0.284,0.426-0.047,0.568
			C129.168,76.786,129.405,76.644,128.931,77.165z M142.904,96.158c-1.563,0-2.605,0.237-2.605,0.237
			c-0.026-0.018-0.055-0.041-0.081-0.07c-0.114-0.127-0.159-0.353,0.46-0.546c0.758-0.236,3.268-0.426,3.648-0.426
			c0.379,0,0.9,0,0.9,0S144.467,96.158,142.904,96.158z"/>
	</g>
</g>
</svg>
