<?xml version="1.0" encoding="utf-8"?>
<!-- Generator: Adobe Illustrator 17.0.0, SVG Export Plug-In . SVG Version: 6.00 Build 0)  -->
<!DOCTYPE svg PUBLIC "-//W3C//DTD SVG 1.1//EN" "http://www.w3.org/Graphics/SVG/1.1/DTD/svg11.dtd">
<svg version="1.1" id="Layer_1" xmlns="http://www.w3.org/2000/svg" xmlns:xlink="http://www.w3.org/1999/xlink" x="0px" y="0px"
	 width="200px" height="300px" viewBox="0 0 200 300" enable-background="new 0 0 200 300" xml:space="preserve">
<g>
	<g>
		<path d="M32.239,132.076c-0.795,1.28-1.171,2.463-1.171,2.463S31.863,133.125,32.239,132.076z M175.12,105.488
			c-1.137-0.694-2.526-0.947-4.295-1.957c-1.768-1.011-2.336-1.39-3.978-2.148c-1.642-0.758-0.253-0.694-0.632-1.326
			c-0.379-0.632-0.883-0.568-1.326-1.074c-0.442-0.505-0.568-0.315-0.947-0.82c-0.379-0.506,1.011-1.263,0.253-1.516
			c-0.758-0.253-1.643-0.442-4.61-1.073c-2.968-0.632-1.39-0.063-3.347-0.127c-1.958-0.062-1.389-0.126-1.894-0.505
			c-0.505-0.379,0.505-1.39,0.505-1.39s7.263,0.568,8.335,0.506c1.074-0.063,0.758-0.442,1.264-0.632
			c0.505-0.189,0.568-0.253-0.506-0.821c-1.073-0.568,0.127-0.694-0.252-1.011c-0.379-0.315-1.327-0.947-1.895-1.768
			c-0.568-0.821-0.884-0.19-2.084-0.442c-1.2-0.253-2.842-0.505-2.842-0.505s1.453-1.264,1.958-1.706
			c0.505-0.441-0.315-0.694-0.631-0.884c-0.316-0.19-0.884-0.947-0.631-1.2c0.252-0.252-0.064-0.694-0.568-1.073
			c-0.505-0.379-0.695-0.126-1.137-0.884c-0.442-0.758-0.379-0.506-1.074-0.568c-0.695-0.064-1.074,0.568-1.326,0
			c-0.253-0.568,0.316-1.011,1.01-1.579c0.695-0.568,0.316-0.694-0.189-1.39c-0.505-0.694-0.821-0.758-1.642-0.758
			c-0.821,0-0.884,0.506-1.579,1.011c-0.695,0.505-5.305-0.568-5.305-0.568l5.242-2.463c0,0,0.442,0.379,0.442,0.126
			c0-0.253,0.379-0.505,1.137-0.568c0.758-0.063,0.505-0.315,0.442-0.694c-0.063-0.379-0.505-0.063-0.947-0.189
			c-0.442-0.126-0.947,0.442-1.263,0.758c-0.316,0.315-4.484,2.21-4.926,2.526c-0.442,0.315-0.505-0.379-0.505-0.695
			c0-0.315,0.064-0.82,0.694-1.01c0.631-0.189,0.695-0.442,0.695-0.821s0-0.758,0.19-1.073c0.189-0.316,0.631-0.442,1.263-0.442
			c0.632,0,1.326-1.011,1.326-1.074c0-0.062-0.189-0.947-0.758-1.389c-0.568-0.442-0.884-0.506-1.642-0.253
			c-0.758,0.253-1.137,1.326-2.147,2.273s-0.884,1.011-1.516,1.074c-0.632,0.062-1.2-0.19-1.768-0.19s-1.263,0.315-1.768,0.568
			c-0.505,0.252-1.453,0.189-1.453,0.189s0.253-1.011,0.442-1.074c0.189-0.063,2.084-2.21,2.399-2.21
			c0.315,0,1.39-0.063,1.895-0.695c0.505-0.631,0.568-1.137,0.568-1.137s1.264-2.336,1.264-3.031c0-0.694-0.379-0.884-0.379-0.884
			s0.631-0.315,0.379-0.632c-0.253-0.315-1.327-0.947-1.327-0.947s-0.127-0.568-1.01-1.263c-0.884-0.695-0.884,0-0.884,0
			s-0.695-0.821-1.263-1.011c-0.568-0.189-0.947,0.063-1.452,0.127c-0.505,0.063-0.189,0-0.505-0.442
			c-0.316-0.442-0.695-0.506-1.137-0.506c-0.442,0-0.758,0.506-1.2,0.695c-0.442,0.189-0.568-0.19-1.137-0.19
			c-0.568,0-0.505-0.063-0.821-0.568c-0.316-0.506-1.453,0.505-1.453,0.189c0-0.316-1.39-1.894-2.273-1.39
			c-0.884,0.505-0.315,1.832-0.315,1.832l-1.327,0.379l0.091-0.416c0,0-0.216-1.624-1.191-1.407c-0.974,0.217-0.65,1.841-0.65,1.841
			s0.216-0.758,1.083-1.191c0.866-0.433,0,1.841-0.541,2.599c-0.541,0.758-2.815,3.031-3.031,3.681
			c-0.217,0.649-1.84,1.732-1.84,1.732s0-2.273,0-4.006s-0.649-2.273-0.649-2.273s0.433-0.217,1.083-0.541
			c0.649-0.325,1.407-0.649,2.273-0.217c0.866,0.434-0.216,0.866-0.216,0.866s0.758,0,0.866-0.649
			c0.108-0.649-0.433-0.866-0.433-0.866l0.649-0.758c0,0-0.433,0.217-0.866,0.433c-0.433,0.217-2.49-0.108-2.49-0.108
			s0-0.433-0.217-0.974c-0.216-0.542-0.758-0.975-0.758-0.975s0.758-0.434,0.325-1.299c-0.433-0.866-2.381,0.541-2.707,1.082
			c-0.325,0.541-0.65-0.541-1.19-0.433c-0.542,0.108-0.975-0.217-1.299-1.083c-0.325-0.866-0.325-0.324-0.649,0
			c-0.325,0.325-1.408,0-1.732-0.433c-0.325-0.434-2.599-0.758-2.599-0.758s-0.433-0.758-2.381-0.975
			c-1.949-0.217-2.274,1.841-2.707,2.057c-0.433,0.217-0.975-0.649-0.975-0.649s0.649-1.516,0.217-2.165
			c-0.433-0.649-2.166,0.108-2.166,0.108s-0.758-0.975-2.165-0.975c-1.407,0-0.974,1.407-0.974,1.841
			c0,0.433-0.758,0.974-1.299,1.19c-0.541,0.217-0.866,1.083-0.866,1.083l-0.866-0.975c0,0,0.433-2.382-0.65-2.815
			c-1.083-0.434-1.732,1.516-1.732,1.516s-0.433-0.758-1.732-0.758c-1.3,0-1.3,1.407-1.3,1.407l-0.866,0.649l-0.758,0.649
			l0.108-1.19l-0.758-0.866c0,0-1.082,0-1.732,0.541c-0.649,0.541-1.299,0.758-1.299,0.758s-1.191-0.541-2.382-0.649
			c-1.19-0.108-0.866,2.707-0.866,2.707s0-1.841,1.407-2.058c1.407-0.216,1.299,0.758,1.732,1.3c0.433,0.541,0,1.082,0.108,1.948
			c0.108,0.866,0.108,1.841,0.108,1.841l-1.516,0.541c0,0-1.191-0.758-2.057-0.758c-0.866,0-0.975,0.649-1.083,1.407
			c-0.108,0.758,1.083,0.758,1.624,0.217c0.542-0.541,0.758-0.758,0.758-0.758s0.65,0.541,0.542,1.516
			c-0.108,0.975-1.299,2.599-1.299,3.465c0,0.865-1.516,3.247-1.516,3.247s-1.299-4.005-1.84-5.088
			c-0.541-1.083-1.191-2.382-1.949-4.547c-0.758-2.166-1.732-2.165-1.732-2.165s0.433,1.19,1.191,2.489
			c0.758,1.3,2.706,6.171,2.706,6.171s-1.948-1.19-2.273-1.407c-0.325-0.216-0.541-1.516-0.866-2.057
			c-0.325-0.542-0.108-0.758-0.434-0.975c-0.325-0.217-1.082-0.541-1.19-1.19c-0.108-0.649,0-1.083-0.108-1.732
			s-0.217,0.217-0.217,0.649c0,0.433,0,1.407-0.108,1.732c-0.108,0.324-1.299-1.083-1.516-1.516
			c-0.216-0.434-0.433-0.217-0.433,0.108c0,0.324-0.325,0.541-0.325,0.541s-0.108-1.299-0.649-1.516s-0.649-0.866-1.516-0.433
			c-0.866,0.433-0.325,1.407-0.649,1.84c-0.325,0.433-0.217,0.975-0.217,0.975s-0.758-0.217-1.191-0.217
			c-0.433,0-1.083-0.108-1.083-0.108l-0.216-0.433c0,0-2.49-0.108-3.031,0.324c-0.542,0.434-0.542,0.65-0.542,0.65
			s-0.974,0.324-1.299,0.649c-0.325,0.324,0.541,1.19,1.19,1.948c0.65,0.758,1.408,0.975,1.732,1.732
			c0.324,0.758,0.649,3.572,1.299,4.764c0.65,1.19,0,1.19,0,1.19s-1.299-1.407-2.706-3.14c-1.408-1.731-1.624-1.624-2.491-2.382
			c-0.866-0.758-0.758-1.19-1.407-2.057c-0.649-0.866-0.649-1.083-2.057-0.649c-1.408,0.433-2.057,2.057-2.165,2.599
			c-0.108,0.541-0.866,0.433-1.732,0.974c-0.866,0.542-0.975,1.3-1.732,1.732c-0.758,0.433,0.758,1.841,0.758,1.841
			s-0.974-0.325-1.732-0.325c-0.758,0-1.299,0-1.949-0.433c-0.649-0.434-1.299-0.108-1.949,0.324
			c-0.649,0.434,0.433,1.732,0.433,1.732s-0.649,0.649-0.217,1.299c0.433,0.649,1.624,0.217,1.191,0.975
			c-0.433,0.758-0.866,1.083-0.649,1.407c0.216,0.325,1.191,1.841,1.84,2.382c0.649,0.542,0.325,1.841,0.325,1.841
			s-1.299,0.649-3.139,0.866c-1.841,0.217,0,1.083,0,1.948c0,0.866-0.65,0.65-2.058,0.65c-1.407,0-0.758,0.107-1.299,0.433
			c-0.542,0.324,0,0.866,0.108,1.407c0.109,0.541,2.491,0.542,3.356,0.975c0.866,0.434-0.325,1.19-1.732,1.083
			c-1.407-0.108-1.083,0.216-1.84-0.325c-0.758-0.541-0.108-0.866-0.866-2.057c-0.758-1.191-0.433,1.082-1.516,0.974
			c-1.083-0.107-1.191-0.974-1.191-1.624c0-0.649-0.758,0.217-1.732,0.65c-0.975,0.433-0.433,0.649,0.108,1.19
			c0.541,0.541,0.541,0.108,1.083,0.108c0.541,0,0.108,0.758,0.649,0.758s0.649,0.866,0.649,0.866l-0.216,1.407
			c0,0-3.356,0.217-3.897,0.217c-0.541,0,0,1.19-0.108,1.732c-0.108,0.541,0.108,0.541,1.191,1.299
			c1.083,0.758,1.408,0.541,1.408,0.866c0,0.324-0.65,1.407,0.433,1.948c1.083,0.542-0.325,0.866-0.974,1.732
			s-1.84,1.949-3.248,3.14c-1.408,1.191-2.274,1.949-2.707,2.599c-0.433,0.649,0.974,0.974,0.974,0.974s0.434,0.866,0.866,0.758
			c0.433-0.107,1.624,0.325,2.057,0.542c0.433,0.217-0.433,1.299-0.758,1.84c-0.325,0.542-1.623,1.408-2.923,1.949
			c-1.299,0.541-3.681,2.382-6.17,3.465c-2.49,1.082-2.815,1.623-1.949,3.247c0.866,1.624,0.216,0.866-0.108,1.949
			c-0.325,1.082,0,0.865,0,1.623c0,0.758,0,1.191,0.974,1.191c0.975,0,5.738-2.382,7.579-3.789c1.84-1.407-0.433,1.407-1.732,2.923
			c-1.299,1.516-4.005,4.655-7.686,8.012c-3.681,3.356-0.433,0.758,0.866,0.649c1.299-0.108,0.216,0.325,0.108,0.975
			c-0.108,0.649,0,2.489,0,2.489s3.031-5.413,3.572-6.387c0.541-0.975,1.732-1.3,2.382-1.191c0.649,0.108-0.433,1.624-1.299,2.599
			c-0.866,0.975-0.216,1.299,0,2.057c0.217,0.758,0.866,0.217,1.624,0.325c0.273,0.039,0.192,0.517-0.02,1.109
			c0.253-0.408,0.547-0.825,0.887-1.217c1.407-1.624,1.624-2.165,2.814-2.923c1.19-0.758,0.217,1.732-0.758,2.923
			c-0.975,1.19-2.273,9.527-2.382,10.718c-0.108,1.191,0.433,0.975,0.866,0.975s0.325,0.217,1.083,0.758s0.433-0.758,0.433-1.624
			s0.975-2.923,1.408-3.681c0.433-0.758,0.541-0.108,1.082-0.866c0.541-0.758,1.191-0.649,1.191-0.649s0,0.324-0.975,4.006
			c-0.974,3.681,1.768,9.707,1.768,9.707s-1.263-2.779-0.505-5.053c0.758-2.273,2.778-7.578,2.778-7.578s0.253,2.779,0.758,4.8
			c0.505,2.021,3.284,5.558,4.547,7.325c1.263,1.769,0-1.516,0-3.031c0-1.516,1.768,1.769,2.778,2.526
			c1.01,0.758,1.768,2.779,3.789,3.789c2.021,1.011,2.021,0.506,2.021-0.252s0.252-2.526,0.505-4.042
			c0.253-1.516,0.253-4.295,0.253-4.295l2.526,2.779c0,0,0.758,3.789,1.263,5.81c0.505,2.021,3.284,4.295,3.284,4.295
			s0-2.779,0-4.547c0-1.769,2.021-5.811,2.021-5.811s1.768,4.8,1.768,7.073c0,2.273,1.264,8.084,4.295,12.631
			c3.031,4.547,6.315,6.062,6.315,6.062s-1.768-3.284-2.526-4.547c-0.758-1.263-0.758-3.536-0.758-3.536s8.083-2.274,9.599-5.306
			c1.516-3.031,2.273-5.81,3.031-5.81c0.758,0,3.284,0.758,3.284,0.758s-2.273,17.43-7.326,39.154
			C78.306,215.123,65.55,299.937,65.55,299.937h15.062L80.769,300l1.642-17.051c0,0,0.695,0,1.643-0.885
			c0.947-0.884,2.526-5.747,4.294-9.788c1.769-4.042,7.515-8.337,11.052-8.399c3.536-0.064,4.168,1.2,5.62,3.915
			c1.453,2.716,0.758,7.452,0.19,9.41c-0.568,1.958-2.715,4.61-3.284,7.704c-0.568,3.095-0.442,7.073-0.379,7.326
			c0.062,0.253,0.505-0.126,1.516-1.642c1.01-1.517,0.379-5.053,0.505-7.073c0.126-2.021,1.263-2.464,2.526-4.927
			c1.263-2.463,0.884-5.305,0.505-9.156c-0.379-3.852-1.2-3.852-3.853-5.874c-2.652-2.021-6.378-1.137-9.472,1.011
			c-3.095,2.146-7.136,6.379-7.263,5.368c-0.127-1.011-0.568-1.895-0.758-3.41c-0.19-1.516,0.505-1.326,0.695-2.337
			c0.189-1.011-0.189-0.632,0.315-2.21c0.505-1.579,0.821-3.663,1.263-4.737c0.442-1.073-0.252-0.062-0.252-0.062
			s-0.19-0.568-0.505-0.316c-0.316,0.253-0.695-0.062-0.695-0.062s0.568-7.831,3.726-25.515c3.158-17.683,8.842-53.175,9.914-59.427
			c1.074-6.252,2.337-13.388,2.527-13.198c0.189,0.189,1.326,3.094,1.326,4.105c0,1.011-0.443,3.474-1.326,6.505
			c-0.884,3.031-0.505,4.862-0.505,4.862s1.832-2.21,3.726-4.294c1.895-2.084,2.526-5.242,2.778-8.778
			c0.252-3.536-0.379-7.642-0.379-7.642s0.821,0,1.958,0.379s1.516,1.073,1.516,1.073s0.126,1.011,0.126,2.147
			s-0.315,2.589-0.315,4.168s0.631,2.21,1.2,3.221c0.568,1.011,2.4,0.884,3.663,0.884c1.264,0,1.769-1.073,1.643-1.452
			c-0.127-0.379-2.905-0.947-4.169-1.831c-1.263-0.884-0.505-4.421-0.505-4.421h0.821c0,0,0.82,1.137,1.263,1.768
			c0.442,0.631,1.263,0.568,2.4,1.137c1.137,0.568,2.336,1.768,2.336,1.768s0.316-0.316,0.316-1.39c0-1.074-1.389-2.842-1.705-3.031
			c-0.316-0.189,2.21-1.264,2.779-2.337c0.568-1.073,1.2-4.989,1.2-4.989s0.252,0.063,0.947,0.442
			c0.694,0.379,2.526,1.579,2.779,2.337c0.252,0.758-0.442,1.389,2.147,1.957c2.589,0.568,1.516-1.516,1.516-1.516
			s1.326,0.379,2.653,0.885c1.326,0.505,1.516,0.758,3.158,1.073c1.642,0.316,1.768-0.063,3.031-0.379
			c1.263-0.315,0.884-0.442,2.4-1.011c1.516-0.568,1.073-0.379,1.894-0.947c0.821-0.568,1.01-0.631,1.642-1.01
			c0.631-0.379,0.632-0.127,0.632-1.39s0.064-3.221,0.442-4.484c0.379-1.263-0.064-1.452-0.064-1.452s0.442,0.064,0.947-1.073
			c0.505-1.137,0.379-1.832,0.253-3.474c-0.127-1.643,1.326-2.589,1.326-2.589s1.137,2.525,1.579,3.852
			c0.414,1.243-1.777,4.037-2.055,4.385c0.242-0.3,2.01-2.477,2.245-2.301c0.252,0.19,1.453,4.421,1.453,4.421
			s-0.189-4.547-0.316-5.431c-0.126-0.885,0-0.442,0.189-0.885c0.19-0.441,0.316,0,0.568-0.062c0.252-0.064,0.127,0.252,0.442,1.326
			c0.316,1.073,0.568-0.695,0.884-1.516c0.315-0.821,0.821-1.453,1.074-2.526c0.252-1.074,0.758-5.115,0.758-5.115
			s0,0.82,0.505,1.137c0.505,0.315,0.821-0.063,0.947,0.379c0.126,0.441-0.189,1.01-0.379,2.146
			c-0.189,1.138,0.442,0.632,0.884,0.442c0.442-0.189,0.442-0.062,0.821-0.126c0.379-0.063,0.884,0,1.642,0.315
			c0.758,0.316,0.316,0.506,0.947,1.011c0.631,0.505,0.442,0,1.264-0.505c0.82-0.506,0.505,0.379,1.01,1.263
			c0.505,0.884,0.064,0.884,0.506,0.379c0.441-0.506,0.758-0.315,1.326-2.463c0.568-2.147-2.337-7.452-2.337-7.452
			s0.442-0.126,0.758-0.126c0.315,0,0.758-0.253,0.442-0.695c-0.316-0.441-0.695-1.137-0.695-1.137s0.568-0.126,0.821-0.062
			c0.253,0.062,0.632,0,0.947-0.568c0.316-0.568-0.631-3.474-0.631-3.474s5.368,5.684,6.126,6.126c0.758,0.441,0.19-0.19,0.19-0.442
			c0-0.253,1.073-0.505,1.073-0.505l-1.642-3.663c0,0,3.347,1.011,3.915,1.2c0.568,0.19,0.19-0.821,0.315-1.011
			c0.127-0.19,1.011,0.063,1.011-0.315s-1.958-1.706-3.6-2.779c-1.642-1.073-0.821-1.39-1.768-2.463
			c-0.947-1.073-0.884-1.831-0.505-2.211c0.379-0.379-0.821-0.505-1.39-1.073c-0.568-0.568-2.652-3.6-2.652-3.6
			s8.273,1.895,9.283,2.273c1.011,0.379,0.947-0.253,0.127-1.137c-0.821-0.884-7.768-3.41-8.778-4.042
			c-1.01-0.632-1.643-1.073-1.389-1.452c0.252-0.379,1.2-0.189,1.326-0.379c0.126-0.189,1.832-0.442,3.852,0
			c2.021,0.441,1.642,0.632,3.095,1.073c1.452,0.442,0.505-0.568,0.884-1.073c0.379-0.506,1.073,0.253,1.895,0.442
			c0.821,0.19,0.632-0.253,0.694-1.074c0.063-0.82,0.189-1.199,0.759-1.516C177.078,106.562,176.257,106.184,175.12,105.488z
			 M49.298,72.818c0.211-0.168,0.295,0.337,0.547,0.716c0,0-0.421,0.084-0.758-0.295C48.751,72.86,49.088,72.987,49.298,72.818z
			 M49.13,75.008c-0.463-0.253,0-0.421,0.421-0.716c0.421-0.295,0.337,0.211,0.547,0.716C50.098,75.008,49.593,75.261,49.13,75.008z
			 M38.899,106.079c0,0-0.252,0.547-0.505,0.463c-0.253-0.084-0.8-0.674-0.674-0.927c0.126-0.253,1.221-0.926,1.81-1.179
			C40.12,104.185,39.784,104.942,38.899,106.079z M46.141,102.711c-0.842,0.842-1.179,1.137-1.6,1.642s-1.39,0.632-2.357,1.053
			c-0.968,0.421-1.726,0.589-1.726,0.589c-0.043-0.589,0.294-0.968,0.505-1.347c0.21-0.379,0.294-0.464,1.347-1.011
			c1.053-0.547,3.073-1.769,3.579-1.6C46.394,102.205,46.983,101.868,46.141,102.711z M50.688,88.396c0,0-0.506,0.463-1.348,0.421
			s0.042-0.674,0.632-1.137C50.561,87.218,51.024,88.144,50.688,88.396z M59.655,66.377c0.674-0.042,0.842,0.169,1.137,0.506
			c0.295,0.336,0,0.379-0.379,0.673c-0.379,0.295-0.168,0.422-0.168,0.422s0.758-0.127,0.968-0.127c0.211,0,0.885,0.758,0.885,0.758
			s-0.927,0-1.264,0.169c-0.336,0.168-0.21,0.337-0.336,0.505c0,0-0.253,0.084-0.337-0.295c-0.084-0.379-0.21-0.758-0.547-1.179
			c-0.336-0.421-0.842-0.463-1.095-0.968C58.266,66.335,58.982,66.419,59.655,66.377z M56.287,69.493
			c0.337-0.169,0.294-0.464,0.8-0.211c0.505,0.253,0.8,0.674,0.968,1.221c0.168,0.548,0.252,0.674-0.169,0.674
			s-1.052-0.126-1.052-0.126c-0.295-0.337-0.421-0.337-0.505-0.8C56.245,69.787,55.951,69.661,56.287,69.493z M54.561,70.672
			c0-0.337,0.336-0.632,0.842-0.632c0.505,0,0.211,0.59,0,0.969c-0.211,0.379-0.295,0.252-0.505,0.842c0,0-0.336,0.126-0.463-0.211
			C54.308,71.303,54.561,71.009,54.561,70.672z M53.972,73.324c0.674,0.168,0.547,0.505,0.758,0.8c0,0-0.589,0.21-0.926-0.042
			c-0.337-0.253-0.421-0.422-0.758-0.927C52.709,72.65,53.298,73.155,53.972,73.324z M52.708,74.376
			c0.337-0.252,0.463,0.211,0.253,0.59c0,0-0.463,0.126-0.632-0.126C52.161,74.587,52.371,74.629,52.708,74.376z M52.75,78.081
			c-0.547-0.126-0.674-0.673-0.505-1.052c0.168-0.379,0.294-0.127,1.052,0c0.758,0.126,0.8,0.631,0.885,0.8
			C54.182,77.829,53.298,78.208,52.75,78.081z M54.729,82.376c-0.842,0.126-0.8-0.211-1.01-1.179
			c-0.21-0.969,0.589-0.253,1.305-0.085c0.716,0.169,1.053,0.379,1.473,0.674C56.497,81.786,55.571,82.249,54.729,82.376z
			 M57.339,78.502c-1.01-0.21-1.894-0.463-1.894-0.463s-1.684-1.095-2.441-1.558s-1.979-0.716-1.306-0.842
			c0.674-0.127,0.758,0.042,1.348-0.253c0.589-0.295,0.084-0.547,0.926-0.337c0.842,0.211,4.083,2.652,4.336,2.989
			C58.56,78.376,58.35,78.713,57.339,78.502z M59.74,76.482c0,0-0.505,0.169-0.631,0.126c-0.126-0.042-0.126-0.421-0.126-1.221
			c0-0.8,0.168,0,0.631,0.168C60.076,75.724,59.74,76.061,59.74,76.482z M61.508,75.345c-0.252,0.421-0.463,0.758-0.631,0.716
			c-0.169-0.042-0.294-0.379-0.294-0.379c-0.421-0.421-0.463-0.463-0.927-0.8c-0.463-0.337-0.421-0.043-0.716-0.548
			c-0.294-0.505-0.042-0.716-0.336-1.053c-0.295-0.336-0.8-0.589-1.179-0.379c-0.379,0.211-0.758,0.506-0.968,0.422
			c-0.211-0.085-0.59-0.085-0.674-0.506c-0.084-0.421-0.126-0.505,0.253-0.716c0.379-0.21,0.421-0.589,0.463-0.758
			c0.042-0.168-0.168,0.295,0.884,0.295c1.053,0,1.348-0.632,1.348-0.632l0.168-0.421l1.685,1.222c0,0-0.169,0.968,0.294,1.473
			c0.463,0.506,1.052,0.59,1.052,0.59s-0.421,0.421-0.421,0.674C61.508,74.797,61.76,74.924,61.508,75.345z M61.382,72.355
			c0.168,0.127,0.505,0.632,0.673,0.843c0,0-0.463,0-0.463-0.211c0-0.211-0.336-0.295-0.379-0.758
			C61.171,71.767,61.213,72.229,61.382,72.355z M64.665,77.365c-1.095-0.336-1.642-0.336-2.273-0.589
			c-0.631-0.253-0.673-0.716-0.673-0.716c0.252-0.127,0.547-0.042,0.758-0.042c0.21,0,0.252-0.295,0.252-0.295
			s-0.379-0.421,0.252-0.126c0.632,0.294,1.811,0.716,2.021,1.053C65.213,76.986,65.76,77.702,64.665,77.365z M65.676,73.661
			c-0.59-0.211-1.011-0.169-1.853-0.969c-0.842-0.8-2.062-1.979-2.062-1.979c-0.716-0.506-0.589-1.053-0.463-1.179
			c0.126-0.127,0.548-0.379,0.968-0.253c0.421,0.126,0.842,0.253,1.011,0.547c0.168,0.295-0.042,0.801,0.252,0.801
			c0.294,0,0.252-0.169,0.463-0.085c0.21,0.085,0.8,0.632,1.01,1.011c0.211,0.379,1.053,1.39,1.053,1.39
			S66.266,73.871,65.676,73.661z M76.917,64.566c0.21-0.673,0.505,0.211,0.758,0.506c0.253,0.295,0.379,1.348,0.547,1.684h-0.547
			c0,0-0.295-0.084-0.842-0.842C76.285,65.156,76.706,65.24,76.917,64.566z M76.748,67.43c0,0,0.589,0,0.716,0
			c0.127,0,0.379,0.337,0.758,0.885c0.379,0.547,0.631,1.221,0.842,1.726c0.21,0.506,0.084,1.222,0.084,1.222
			s-0.547-0.085-0.884-0.295c-0.336-0.211-0.379-0.337-0.673-0.758c-0.295-0.421-0.295-0.422-0.59-0.801
			c-0.294-0.379-0.336-0.505-0.547-0.968C76.243,67.977,76.496,67.893,76.748,67.43z M75.528,64.693
			c0.211,0.042,0.294,0.337,0.505,0.8c0,0-0.253,0.084-0.548,0c-0.294-0.084-0.379-0.21-0.421-0.674
			C75.022,64.357,75.317,64.651,75.528,64.693z M74.812,66.883c-0.294-0.253-0.842-0.8-0.337-0.758c0.505,0.042,0.8,0.21,1.01,0.421
			c0.211,0.21,0.211-0.084,0.295,0.589c0.084,0.674,0.168,1.601,0.168,1.601C75.528,68.02,75.106,67.135,74.812,66.883z
			 M75.443,70.461c0,0-0.631-0.589-0.716-0.926c-0.084-0.337-0.168-0.59-0.337-1.516c-0.168-0.927,0.253-0.169,0.421,0
			C74.98,68.188,75.275,69.914,75.443,70.461z M73.717,64.062c0.169-0.8,0.505-0.379,1.01-0.547
			c0.505-0.169,0.169,0.294-0.042,0.758c-0.21,0.463-0.21,0.337-0.168,0.842c0,0-0.337,0.169-0.674-0.042
			C73.506,64.861,73.549,64.861,73.717,64.062z M71.907,64.819c0.253-0.042,0.168-0.379,0.084-1.263
			c-0.084-0.885,0-0.548,0.126-0.548c0.127,0,0.421,0.211,0.674,0.506c0.252,0.294,0.295,0.631,0.337,1.137
			c0.042,0.505-0.295,0.463-0.337,0.968c-0.043,0.506,0.211,0.379,0.295,0.758c0.084,0.379-0.253,0.632-0.253,0.927
			c0,0-1.052-0.884-1.263-1.642C71.359,64.904,71.654,64.861,71.907,64.819z M70.812,64.861c0.126-0.631,0.169,0.127,0.211,0.379
			c0.042,0.253,0.127,0.674,0.127,1.18c0,0-0.379,0-0.463-0.211C70.602,65.998,70.686,65.493,70.812,64.861z M70.307,63.894
			c0.548,0.084,0.042,0.294-0.085,0.547c-0.125,0.253-0.463,0.042-0.589,0.042c-0.126,0-0.421-0.295-0.758-0.421
			C68.876,64.062,69.759,63.809,70.307,63.894z M68.202,66.588c-0.148,0.483-0.593-0.543-0.869-0.964
			c-0.037-0.056-0.07-0.102-0.1-0.131c0,0,0.59,0.042,0.8,0.169C68.244,65.788,68.37,66.041,68.202,66.588z M65.339,65.956
			c-0.127,0-0.926-0.968-1.179-1.39c-0.252-0.421,0.421-0.379,0.715-0.379c0.295,0,0.421,0.085,0.59,0.59
			c0.168,0.506,0,0.379-0.042,0.842C65.423,65.619,65.465,65.956,65.339,65.956z M66.265,64.398
			c-0.252-0.168-0.336-0.337-0.336-0.547c0-0.211-0.421-0.211,0-0.506c0.42-0.295,1.01-0.673,1.432-0.421
			c0.421,0.253,1.01,0.632,0.673,0.8C67.697,63.894,66.265,64.398,66.265,64.398z M71.402,71.893
			c-0.505-0.337-0.969-0.969-1.6-0.969c-0.631,0-1.052,0.085-1.305,0.253c-0.253,0.169-0.548,0.506-0.548,0.506
			s-0.463-1.39-0.505-1.811c-0.042-0.422-0.042-0.421-0.168-1.306c-0.126-0.884-0.126-1.6-0.126-1.81
			c0-0.21-0.042-0.252,0.505,0.085c0.547,0.336,1.01,0.968,1.6,1.6c0.589,0.631,1.557,1.852,1.852,2.399
			C71.402,71.388,71.907,72.229,71.402,71.893z M71.275,69.451c-0.336-0.295-0.547-0.674-1.01-1.474
			c-0.463-0.801-0.969-1.474-1.389-2.19c-0.421-0.716,0.168-0.253,0.336-0.505c0.168-0.253,0.505-0.253,0.842-0.253
			c0.337,0,0.127,0.337,0.127,0.8s0.211,1.053,0.421,1.39c0.211,0.336,0.21,0.379,0.421,0.758c0.211,0.379,0.758,1.179,1.052,1.894
			C72.075,69.872,71.612,69.745,71.275,69.451z M81.003,155.752c-0.161,0.397-0.871,2.055-1.907,3.133
			c-1.184,1.231-2.084,1.752-3.363,2.51s-2.937,2.037-3.126,1.421c-0.189-0.615-0.521-2.084-0.237-3.41
			c0.284-1.326,0.474-1.562,0.995-2.273c0.521-0.71,0.805-0.947,1.374-1.468c0.568-0.521,1.184-1.469,1.184-1.469
			s-0.095,1.421-0.379,2.368c-0.284,0.947-0.474,1.8,0.521,1.232c0.995-0.568,1.042-0.899,2.416-1.468
			c1.373-0.568,2.558-0.663,2.558-0.663S81.026,155.695,81.003,155.752z M81.001,72.945c-0.21,0.168-0.505-0.337-0.758-0.842
			c-0.253-0.505-0.169-0.674-0.169-1.053s-0.8-1.768-0.926-1.852c0,0,0.547-0.084,0.884-0.042c0.337,0.042,0.337,0.379,0.674,0.8
			c0.337,0.421,0.421,0.716,0.505,1.095c0.084,0.379-0.168,0.716-0.168,0.969C81.043,72.271,81.211,72.777,81.001,72.945z
			 M101.42,57.03c0.169-0.252,0.379,0.042,0.547,0.211c0,0-0.295,0.716-0.715,0.632C100.831,57.788,101.252,57.283,101.42,57.03z
			 M100.115,57.873c0.253-0.085,0.337,0.084,0.463,0.294c0,0-0.421,0.548-0.758,0.8c-0.337,0.253-0.211,0.043-0.295-0.505
			C99.441,57.915,99.863,57.957,100.115,57.873z M98.179,58.336c0,0-0.968,0.084-1.305,0.21c-0.337,0.127-0.337,0.253-0.337,0.253
			s-0.084-0.884,0.211-0.926c0.295-0.043,0.547,0,0.842,0.042C97.884,57.957,98.179,58.336,98.179,58.336z M96.242,56.315
			c0.084-0.336,0.632-0.842,1.095-1.095c0.463-0.252,0.463,0.674,0.463,1.18c0,0.505-0.126,0.547-0.337,0.715
			c-0.211,0.169-1.053,0.337-1.053,0.337S96.158,56.651,96.242,56.315z M93.716,56.062c0.884-0.085,1.684-0.169,1.852,0.842
			c0.169,1.011-0.168,1.853-0.295,1.978c-0.126,0.127-0.842-0.294-0.842-0.294l-0.084-0.464c0,0,0.168-0.379,0.168-0.674
			c0-0.294-0.168-0.547-0.168-0.547l-0.463,1.011c-0.421-0.127-0.842-0.211-0.842-0.548S92.831,56.146,93.716,56.062z
			 M87.906,58.631c0-0.337,0.589-1.053,0.842-1.18c0.253-0.126,0.084,0.506,0.084,0.885v1.347c0,0.59-0.084,0.464-0.379,0.885
			c0,0-0.421,0.252-0.547-0.211C87.78,59.894,87.906,58.968,87.906,58.631z M88.579,77.534c-0.169,0.464-0.253-0.294-0.505-0.926
			c-0.252-0.632-0.252-0.969-0.294-1.516c-0.042-0.548,0-0.927,0.168-1.432c0,0,0.632,1.937,0.8,2.61
			C88.916,76.945,88.747,77.071,88.579,77.534z M88.747,67.978c-0.21,0.631-0.253,0.758-0.505,1.179
			c-0.253,0.421-0.547,0.337-0.547,1.095s0.211,1.979,0.211,1.979s-0.379,0.295-0.632,0.59c-0.252,0.294-0.589,0.336-0.715,0.379
			c-0.126,0.042-0.379,0.21-0.379,0.21c0.126-0.631,0.252-2.231,0.252-3.073s-0.084-1.894,0-2.652
			c0.084-0.758,0.253-1.348,0.505-1.642c0.252-0.295,0.884-1.053,1.052-0.843c0.169,0.211,0.253,0.885,0.463,1.558
			C88.663,67.43,88.958,67.346,88.747,67.978z M88.621,61.83c0.126-0.589,0.463-1.095,1.179-1.516c0.716-0.421,0-0.295,0.42-0.716
			c0.421-0.421,0.211,0.084,0.379,0.253c0.168,0.168,0.505,0.968,0.59,1.516c0.084,0.547-0.084,0.926-0.253,1.642
			s-0.295,1.137-0.337,1.853c0,0-0.799-0.505-1.179-1.221C89.042,62.925,88.495,62.42,88.621,61.83z M91.484,64.903
			c0-0.126,0.421,0.464,0.421,0.464s0.211,0.673,0.211,1.01c0,0-0.337,0.379-0.758,0.506c-0.421,0.126,0.126-0.169,0.295-0.674
			C91.821,65.703,91.484,65.03,91.484,64.903z M91.99,68.608c-0.126,0.295-0.295,0.211-0.59,0.337
			c-0.294,0.126-0.673,0.253-0.884,0.337c0,0-0.715-0.253-0.715-0.379c0-0.126,0.799-0.295,1.052-0.463
			c0.253-0.168,0.8-0.379,1.263-0.548C92.579,67.725,92.116,68.315,91.99,68.608z M94.179,68.357
			c-0.253,0.926-0.337,0.8-0.337,1.263c0,0-0.294,0.126-0.505,0.084c-0.21-0.042-0.674-0.8-0.674-1.389
			c0-0.59,0.127-0.885,0.842-1.432c0.716-0.548,0.421-0.042,0.716,0.126C94.516,67.178,94.431,67.43,94.179,68.357z M94.347,65.746
			c-0.211,0.042-1.557,0.589-1.557,0.589c-0.127-0.337-0.084-1.179-0.211-1.936s-0.211-1.137-0.505-1.769
			c-0.295-0.631-0.463-0.842-0.463-1.305s-0.379-0.8,0-0.885c0.379-0.084,0.337-0.042,0.505-0.21
			c0.168-0.169,0.252-0.253,0.042-0.59c-0.21-0.337-0.378-0.716-0.21-1.095c0.169-0.379-0.042-0.589,0.421-0.463
			c0.463,0.126,0.758,0.169,1.095,0.295c0.337,0.126,0.337,0.084,0.589,0.505c0.254,0.421,0.842,0.548,0.548,1.011
			c-0.294,0.463-0.547,0.59-0.211,0.674c0.336,0.084,0.631,0.337,0.589,0.968c-0.042,0.632-0.253,0.884-0.253,1.727
			c0,0.842,0.042,0.674,0.042,1.348C94.768,65.282,94.558,65.703,94.347,65.746z M95.568,76.776
			c-0.21-0.084-0.295-0.421-0.589-1.095c-0.294-0.674,0-0.589,0.252-0.8c0,0,0.295,1.053,0.505,1.516
			C95.947,76.86,95.779,76.86,95.568,76.776z M97.674,70.166c-0.043,0.59-0.379,2.063-0.8,2.189
			c-0.421,0.127-0.379,0.422-0.842,0.885c-0.463,0.463-0.336,0.295-0.758-0.042c0,0,0.127-5.179,0.505-6.694
			c0.379-1.516,0.252-0.548,0.674-0.842c0.421-0.295,0.379,0.042,0.631,0.379c0.252,0.336,0.463,0.379,0.463,0.379l0.59-0.464
			C98.137,65.956,97.716,69.577,97.674,70.166z M98.263,62.293c-0.042,0.379,0,1.264,0,1.264s-0.589-0.59-0.716-0.927
			c-0.126-0.337,0-0.295,0.169-0.674c0.168-0.379,0.379-0.337,0.547-0.337C98.431,61.619,98.305,61.914,98.263,62.293z
			 M98.474,59.515c-0.421,0.716-1.474,2.189-1.642,2.357c-0.168,0.169-0.59,0.379-0.59,0.379c0-0.337-0.084-0.884,0.084-1.432
			c0.169-0.547,0.127-0.758,0.421-1.01c0.295-0.253,0.211-0.506,0.463-0.716c0.253-0.211,0.969-0.295,1.094-0.253
			C98.431,58.883,98.894,58.799,98.474,59.515z M98.894,71.977c-0.336,0.969-0.211-0.252-0.084-0.8
			c0.127-0.548,0.084-0.589,0.084-1.053c0-0.463,0.168-0.126,0.463-0.337c0.295-0.21,0.253,0.169,0.295,0.379
			C99.652,70.166,99.231,71.009,98.894,71.977z M99.357,68.188c-0.168-0.084-0.421-0.337-0.505-0.8
			c-0.084-0.464,0.253-0.084,0.421,0.126c0.169,0.211,0.421,0.506,0.547,0.674C99.821,68.188,99.526,68.271,99.357,68.188z
			 M100.157,67.641c0,0-0.673-0.801-0.8-0.969c-0.126-0.168-0.295-0.084-0.295-0.379c0-0.295,0.337-0.674,0.337-0.926
			c0-0.253-0.126-0.548-0.294-0.674c-0.168-0.127,0-0.674,0-1.306c0-0.632-0.042-1.81,0.084-1.937
			c0.126-0.126,0.631-0.337,0.715-0.758c0.084-0.421,0.043-1.221,0.126-1.348c0.084-0.126,0.674-0.547,1.01-0.505
			c0.337,0.042,0.842,0.59,0.969,0.716c0.126,0.126,0.042,0.589-0.211,1.39c-0.252,0.8-0.042,1.853-0.168,2.525
			c-0.126,0.674-0.716,1.559-0.926,2.274C100.495,66.461,100.157,67.641,100.157,67.641z M102.641,69.535
			c-0.252,0.547-1.01,2.399-1.053,2.694c0,0,0.168-1.348,0.253-2.189c0.085-0.843,0.21-0.842,0.463-1.348
			c0.252-0.505,0.42-0.8,0.758-0.926C103.399,67.64,102.894,68.987,102.641,69.535z M102.515,63.893
			c0.126,0.632,0.505,0.548,0.632,0.759c0.126,0.21,0,0.589-0.169,0.758c-0.168,0.168-1.011,0.716-1.137,0.758
			c0,0-0.169-0.295-0.126-0.969c0.042-0.673,0.295-1.263,0.253-2.232c-0.042-0.969,0.21-0.969,0.337-1.263
			c0.126-0.295,0.379-0.632,0.379-1.348c0-0.716,0-1.053,0.294-1.137c0.294-0.084,0.294,0.421,0.294,0.758s-0.084,1.179-0.294,1.642
			c-0.21,0.464-0.379,0.59-0.589,0.969C102.178,62.967,102.389,63.262,102.515,63.893z M103.147,57.072
			c-0.337,0.421-0.716,0.421-0.716,0.421c-0.168-0.379-0.168-0.379-0.421-0.8c-0.253-0.421-0.716-0.589-0.421-1.095
			c0.295-0.505,0.253-0.884,0.589-0.716c0.337,0.169,0.674,0,1.053,0.758C103.61,56.398,103.484,56.651,103.147,57.072z
			 M104.2,68.692c0,0-0.463,0.042-0.505-0.968c-0.042-1.011,0.168-1.179,0.295-1.979c0.126-0.8,0.211,0.463,0.211,0.926
			S104.157,68.271,104.2,68.692z M122.388,61.03c0.042,0.211-0.084,0.547-0.295,0.463c-0.211-0.084-0.043,0.042-0.211-0.084
			c-0.168-0.126-0.969-0.379-0.969-0.379c0.042-0.211,0.126-0.379,0.463-0.337C121.714,60.735,122.345,60.819,122.388,61.03z
			 M120.072,60.104c0.337-0.295,0.505-0.674,0.884-0.843c0.379-0.168,0.968-0.673,1.053-0.294c0.084,0.379,0.168,0.126-0.295,0.463
			c-0.463,0.337-0.716,0.084-0.8,0.463c-0.085,0.379-0.505,0.632-0.505,0.632C120.114,60.23,119.735,60.398,120.072,60.104z
			 M119.693,62.083c0.168-0.211,0.211-0.337,0.463-0.421c0.253-0.085,0.042-0.295,0.547,0.042c0.505,0.337,0.589,0.421,0.632,0.8
			c0.042,0.379,0.295,0.59-0.253,0.632c-0.547,0.042-1.979-0.211-1.979-0.211C119.356,62.672,119.525,62.293,119.693,62.083z
			 M119.777,64.819c-0.21,0.421,0,0.211-0.295,0.716c0,0-0.252-0.463-0.252-0.884s-0.042-0.59,0.042-0.927
			c0.084-0.337,0.505-0.084,0.884,0.253C120.535,64.315,119.988,64.398,119.777,64.819z M115.314,59.389
			c0.211-0.169,0.211-0.253,0.421-0.337c0.211-0.084,0.716-0.548,0.716-0.379c0,0.168,0.21,1.137,0.126,1.347
			c-0.084,0.211-0.421,0.211-0.715,0.211c-0.295,0-0.758-0.126-0.758-0.126C115.146,59.726,115.104,59.557,115.314,59.389z
			 M114.893,60.988c0.379,0,0.632-0.421,0.8,0c0.168,0.421,0.126,0.505,0.126,1.179c0,0.674,0.337,0.884,0,1.221
			c-0.336,0.337-1.6,2.021-1.6,2.021c-0.085-0.379,0.042-0.758-0.085-1.179c-0.126-0.422-0.336-0.38-0.126-1.18
			s0.505-1.179,0.673-1.474C114.852,61.283,114.514,60.988,114.893,60.988z M106.852,61.03c0.126,0.8,0.463,1.347,0.253,1.558
			c-0.211,0.211-0.547,0.21-0.379,0.547c0.168,0.337,0.21,0.337-0.253,0.506c-0.463,0.168-1.39,0.8-1.348,0.674
			c0.042-0.127,0.505-1.643,0.8-2.148C106.22,61.662,106.852,61.03,106.852,61.03z M105.083,59.346
			c0.127-0.758,0.59-0.168,0.969-0.042c0.379,0.127,0.084,0.885-0.211,1.516c-0.294,0.632-0.631,0.927-0.631,0.927
			S104.957,60.104,105.083,59.346z M106.978,65.24c-0.295,0.421-0.968,1.095-0.674,1.685c0.295,0.589,0.632,0.547,0.463,1.095
			c-0.168,0.547-0.168,0.673-0.547,0.379c-0.379-0.295-0.884-0.506-0.884-0.506c0.125-0.505,0.294-1.431,0.125-1.768
			c-0.168-0.337-0.463-0.59-0.294-0.885c0.169-0.295,0.674-0.295,1.011-0.547c0.337-0.253,0.632-0.337,0.968-0.337
			c0.337,0,0.379,0.758,0.379,0.758S107.273,64.819,106.978,65.24z M109.378,68.734c0,0-0.589-0.168-0.631-0.758
			c-0.042-0.589-0.253-0.421-0.421-1.01c-0.168-0.59,0.505-0.211,0.884,0.21C109.588,67.599,109.378,68.398,109.378,68.734z
			 M110.472,60.693c-0.168,0.8-0.379,1.516-0.589,1.81c-0.211,0.295-0.8,0.8-0.8,0.8s0.168-0.295,0.21-0.505
			c0.042-0.211,0.169-0.632-0.253-0.506c-0.421,0.127-1.389,0.211-1.389,0.211c0-0.169-0.168-1.053-0.084-1.516
			c0.084-0.463,0.21-0.421,0.336-0.884c0.127-0.464,0-0.969,0.294-1.222c0.295-0.252,0.463,0,0.716-0.126
			c0.253-0.126,0-0.59,0.42,0.126c0.421,0.716,0.506,0.253,0.842,0.8C110.514,60.23,110.641,59.894,110.472,60.693z M108.956,57.283
			c0,0-0.336-0.211,0.043-0.421c0.379-0.211-0.168-0.548,0.758-0.379c0.927,0.168,1.389,0.21,1.642,0.631
			c0.253,0.422,0.505,0.464-0.21,0.464C110.472,57.578,108.956,57.283,108.956,57.283z M112.535,62.714
			c-0.042,0.464,0.211,0.716,0.211,0.885c0,0.168-0.379,0.632-0.547,1.39c-0.169,0.758-0.127,2.188-0.295,2.104
			c-0.168-0.084-0.337,0.253-0.379-1.095c-0.042-1.347-0.379-2.568-0.295-3.241c0.084-0.674,0.379-1.18,0.547-1.348
			c0.168-0.168,0.716-0.379,0.716-0.379c0.505,0.211,0.968,0.168,0.968,0.168S112.577,62.251,112.535,62.714z M112.788,60.272
			c-0.042-0.505-0.294-0.505,0-0.884c0.295-0.379,0.716-0.548,0.337-0.758c-0.379-0.211-0.674-0.169-0.463-0.464
			c0.211-0.294,0.884-0.631,1.263-0.168c0.379,0.463,0.042,0.589,0.169,1.179c0.126,0.59,0.547,0.884,0.168,1.053
			C113.883,60.398,112.788,60.272,112.788,60.272z M116.283,66.251c-0.042,0.463-0.379,0.969-0.927,1.432
			c0,0-0.463,0.547-0.926,0.758c-0.463,0.21-0.59-0.337-0.547-0.969c0.042-0.631,1.431-2.189,2.442-3.326
			c1.01-1.137,0.295,0.59,0.084,1.18C116.198,65.914,116.325,65.788,116.283,66.251z M116.62,68.524
			c-0.085-0.126-0.126-0.337-0.126-0.337c0.168-1.179,0.042-1.095,0.59-1.558c0.547-0.463,0.673-1.221,0.968-1.305
			c0.294-0.085,1.01,0.041,0.589,0.968c-0.42,0.927-0.799,1.474-1.221,1.937C116.998,68.692,116.703,68.65,116.62,68.524z
			 M117.335,70.924c-0.084-0.168-0.421-0.758-0.084-1.431c0.336-0.674,0.926-1.516,1.263-1.643c0.336-0.126,1.095-0.379,0.968,0.169
			c-0.126,0.547-0.505,1.389-0.842,1.852C118.304,70.335,117.335,70.924,117.335,70.924z M122.429,68.146
			c-0.42,1.053-0.378,1.811-1.01,2.947c-0.631,1.137-0.631,1.474-1.516,1.516c-0.884,0.042-0.716-0.8-0.716-0.8
			c0-0.169,0.337-0.127,0.548-0.59c0.21-0.463,0.083-0.589,0.21-0.884c0.127-0.295,0.337-0.253,0.211-0.59
			c-0.126-0.337-0.379-0.758-0.379-1.137s0.042-0.589,0-1.137c-0.042-0.547,0.084-1.221,0.463-1.474
			c0.379-0.252,0.969-1.221,1.179-1.137c0.211,0.085,0.632-0.042,0.758,0.548c0.127,0.589-0.126,1.137,0.085,1.726
			C122.472,67.725,122.85,67.093,122.429,68.146z M144.128,67.471c0.426,0.19,0.284,0.379,0.095,1.089
			c-0.189,0.711-0.379,1.658-0.663,1.895c-0.284,0.237-0.521,0.568-0.853,0.474c-0.332-0.095-0.616-0.568-0.616-0.568
			c-0.19-0.426-0.331-0.71-0.284-1.184c0.047-0.474,0.758-1.279,1.184-1.516C143.417,67.423,143.702,67.281,144.128,67.471z
			 M142.139,65.339c0,0,0.758,0.616,0.805,0.806c0.047,0.189-0.047,0.474-0.142,0.71c-0.095,0.237-0.521-0.047-0.947-1.089
			C141.428,64.724,141.902,65.292,142.139,65.339z M141.57,70.976c0,0.331-0.331,0.616-0.71,1.09c0,0-0.663,0.474-0.947,0.426
			c-0.284-0.047,0.047-0.663,0.379-1.231c0.331-0.568,0.379-0.474,0.947-1.09C141.807,69.555,141.57,70.644,141.57,70.976z
			 M140.055,66.997c0.095-0.332,0-0.379,0.426-0.521c0.426-0.142,0.568-0.189,0.616,0.143c0.047,0.331,0.237,0.663-0.189,0.899
			C140.481,67.755,140.055,66.997,140.055,66.997z M140.339,63.634c0.379,0,0.71,0.284,0.947,0.474c0,0-0.853,0.852-1.326,1.042
			c-0.474,0.189-0.19-0.236-0.284-1.326C139.581,62.734,139.96,63.634,140.339,63.634z M139.534,68.607
			c-0.047,0.142,0,0.568-0.758,0.994c-0.758,0.427-0.237-0.284-0.047-0.852c0.19-0.568,0.237-0.284,0.616-0.379
			C139.344,68.37,139.581,68.465,139.534,68.607z M134.513,63.966c0.237-0.332,0.616-0.663,0.805-0.284
			c0.189,0.379,1.326,1.373,0.758,1.421c-0.568,0.047-0.568-0.143-0.853-0.19c-0.284-0.048-0.853,0-0.853,0
			C134.276,64.581,134.276,64.297,134.513,63.966z M133.518,68.37c0.19-0.331,0.284-0.615,0.663-1.137
			c0.379-0.521,0.142,0.474-0.189,1.279C133.992,68.513,133.329,68.702,133.518,68.37z M134.987,67.896
			c0.521-0.758,0.426-1.137,1.137-1.705c0.711-0.568,0.521-0.379,1.232-0.853c0.71-0.474,1.279-1.042,1.326-1.373
			c0.047-0.332,0.237-0.9,0.426-0.095c0.189,0.805,0.616,0.71,0.095,1.705c-0.521,0.994-1.089,1.847-1.752,2.604
			c-0.663,0.758-0.711,0.474-1.895,1.989c-1.184,1.516-1.184,2.085-1.563,1.658c-0.379-0.426-0.805-0.806-0.805-0.806
			C133.755,70.218,134.466,68.654,134.987,67.896z M132.429,70.312c0.474-0.284,0.284-0.048,0.331,0.142c0,0-0.995,0.9-1.374,0.806
			C131.008,71.165,131.955,70.597,132.429,70.312z M130.487,61.977c0.19-0.332,0.047-0.852,0.474-0.616
			c0.426,0.237,0.995,0.568,1.232,1.09c0.237,0.521-0.426,1.184-0.426,1.184c-0.568-0.331-0.71-0.379-0.947-0.663
			C130.581,62.687,130.297,62.308,130.487,61.977z M129.397,63.966c0.189-0.19,0.189-0.427,0.568-0.237s0.853,0.284,0.853,0.284
			s0.331,0.095,0.142,0.758c-0.189,0.663,0,0.711-0.426,0.947c-0.426,0.237-0.663-0.142-0.663-0.142
			c0-0.474,0.047-0.711-0.095-0.947C129.634,64.392,129.208,64.155,129.397,63.966z M128.45,68.37
			c-0.332,0.711-0.379,1.326-0.805,1.61c-0.426,0.284-0.805,0.711-0.947,0.379c-0.142-0.331-0.237-0.758-0.758-0.758
			s-1.516,0.095-1.516,0.095s0.521-1.231,1.042-1.752c0.521-0.521,0.805-1.469,1.516-1.895c0.71-0.427,0.995-0.947,1.184-0.995
			c0.19-0.047,0.19-0.047-0.047,0.427c-0.237,0.474-0.616,1.705-0.095,1.894c0.521,0.19,0.947-0.048,0.853,0.095
			C128.782,67.612,128.782,67.66,128.45,68.37z M129.255,66.097c-0.379,0.521-0.9,0.711-0.9,0.711
			c-0.047-0.332-0.332-0.379-0.047-0.758s0.663-0.616,0.852-0.568C129.35,65.528,129.634,65.576,129.255,66.097z M131.428,145.474
			c-1.949-1.191-1.732-3.789-1.732-3.789s1.516,2.058,2.057,2.707c0.541,0.649,0.975,1.299,1.624,1.948
			C133.376,146.34,133.376,146.665,131.428,145.474z M134.784,151.97c-0.975-0.324-1.84-2.057-1.84-2.057l1.516,0.433
			c0,0,2.707,1.841,3.031,1.948C137.49,152.294,135.759,152.294,134.784,151.97z M138.113,74.102
			c0.095-0.52,0.521-0.426,1.374-1.042c0.853-0.615-0.616,1.137-0.853,1.421C138.634,74.48,138.018,74.623,138.113,74.102z
			 M142.362,151.861c-0.542,0-1.624-0.325-1.624-0.325l0.108-2.815l0.758-0.866c0,0,0.758,0.975,1.191,1.949
			C143.228,150.778,142.904,151.861,142.362,151.861z M147.206,132.645c-0.189,0.505-0.631-0.315-0.631-0.758
			c0-0.442,0.315-2.147,0.315-2.147s0.821,1.074,0.821,1.264C147.712,131.192,147.396,132.14,147.206,132.645z M152.891,134.729
			c-0.884,2.968-2.21,6.126-2.21,6.126s-1.01-1.452-1.326-2.084c-0.315-0.632-0.884-2.211-0.884-2.211l1.01-2.778
			c0,0,0.252-0.632,0.758-0.632c0.505,0,1.137,0.632,1.389,0c0.253-0.631,0.379-2.715,0.379-2.715S153.774,131.761,152.891,134.729z
			 M165.079,120.014c1.074,1.2,2.147,2.337,2.147,2.337s-1.768-0.884-2.905-1.642c-1.137-0.758-1.263-3.222-1.263-3.222
			S164.006,118.815,165.079,120.014z"/>
	</g>
</g>
</svg>
