<?xml version="1.0" encoding="utf-8"?>
<!-- Generator: Adobe Illustrator 17.0.0, SVG Export Plug-In . SVG Version: 6.00 Build 0)  -->
<!DOCTYPE svg PUBLIC "-//W3C//DTD SVG 1.1//EN" "http://www.w3.org/Graphics/SVG/1.1/DTD/svg11.dtd">
<svg version="1.1" id="Layer_1" xmlns="http://www.w3.org/2000/svg" xmlns:xlink="http://www.w3.org/1999/xlink" x="0px" y="0px"
	 width="200px" height="300px" viewBox="0 0 200 300" enable-background="new 0 0 200 300" xml:space="preserve">
<g>
	<g>
		<g>
			<path d="M119.971,151.526c0.583-0.135,2.938-0.08,3.802-0.129c0.864-0.05,5.326,0.117,5.326,0.117l-0.683-0.092l0.388-0.065
				c0,0-2.702-0.225-2.96-0.215c-0.258,0.01-0.785-0.019-0.785-0.019l2.739-0.433c0,0-4.376,0.512-4.949,0.494
				c-0.57-0.018-0.744-0.053-0.744-0.053s2.169-0.75,2.865-0.91c0.695-0.161,3.204-0.466,3.204-0.466l-2.081,0.107l3.307-0.738
				l-2.379,0.35l1.915-0.617l-1.98,0.433l0.663-0.402c0,0-1.001,0.479-1.994,0.685c-0.994,0.205-3.425,0.74-3.425,0.74l2.021-1.289
				c0,0-1.97,1.203-2.239,1.265s-0.415,0.047-0.415,0.047l2.363-1.443c0,0-2.414,1.43-2.802,1.494
				c-0.387,0.064-3.179-0.14-3.179-0.14s4.294-1.689,5.678-2.358c1.384-0.667,2.239-1.164,2.239-1.164s-2.242,0.741-3.433,1.116
				c-1.192,0.375-2.565,1.19-3.643,1.439c-0.46,0.106-0.96,0.226-1.387,0.33c0.466-0.17,1.065-0.451,1.767-0.941
				c1.649-1.154,3.709-3.4,3.709-3.4s-2.063,1.923-2.322,2.032c-0.259,0.109-0.97-0.101-0.97-0.101l1.553-1.68
				c0,0-1.54,1.628-2.107,1.733s-1.161-0.007-1.161-0.007l2.248-4.609c0,0-2.168,4.342-2.354,4.459
				c-0.186,0.118-0.408-0.13-0.408-0.13l3.302-5.575l-3.397,5.472l3.237-5.859l-3.308,5.652l2.443-4.58c0,0-2.015,3.06-2.562,3.659
				c-0.547,0.6-3.881,3.889-3.881,3.889l5.489-9.223l-3.038,4.567c0,0,0.544-1.947,1.086-3.493c0.542-1.548,0.883-4.07,0.883-4.07
				s-1.717,1.069-2.083,1.329c-0.366,0.259-0.456,0.38-0.456,0.38l-1.18,0.322l0.315-2.941l-0.473,2.978
				c0,0-1.427,0.579-1.736,0.675c-0.309,0.097-0.967,0.423-0.967,0.423s-0.82-3.452-1.107-4.185
				c-0.287-0.731-0.484-1.483-0.785-1.863s-0.278-0.285-0.278-0.285l-0.298-0.879l0.125,0.744l-0.212-0.2
				c0,0,0.535,1.398,0.661,1.843c0.126,0.444,1.552,4.979,1.552,4.979s-0.427,0.099-0.59,0.211
				c-0.163,0.112-0.389,0.264-0.389,0.264l-2.236-4.771l2.118,4.873l-0.541,0.424l-3.009-6.065l2.795,6.164
				c0,0-1.294,0.848-1.626,1.048c-0.333,0.202-0.412,0.271-0.412,0.271l-3.644-4.82l3.158,4.458l-2.341-2.453l2.585,2.897
				l-0.215,0.298c0,0-2.997-2.426-3.789-3.091c-0.792-0.665-2.561-2.077-2.561-2.077s2.28,2.392,3.093,3.252
				c0.815,0.859,2.75,3.405,3.604,4.232c0.853,0.826,1.761,1.788,1.761,1.788s-2.354-1.277-3.649-1.976
				c-1.297-0.699-4.429-2.071-4.429-2.071s5.02,2.483,6.345,3.2c1.324,0.717,2.403,1.391,2.899,1.8s1.363,0.883,1.85,1.144
				c0.486,0.262,0.866,0.374,0.866,0.374s0.507,0.656-3.804,7.91c-4.312,7.256-6.293,10.457-6.293,10.457l-0.167-0.211l-0.165,0.411
				l-0.122-0.221l-0.098,0.398l-0.134-0.169l-0.08,0.468l-0.136-0.068l-0.121,0.701l-0.218-0.125c0,0-0.077,0.691-0.107,0.773
				c-0.028,0.081-1.054,1.89-1.371,2.461c-0.317,0.572-0.881,1.925-0.527,1.918s0.612-0.217,0.612-0.217s1.222-1.678,1.963-2.872
				c0.742-1.193,1.013-1.456,1.013-1.456l-0.241-0.02l0.366-0.259l-0.173-0.134c0,0,0.062-0.04,0.255-0.334
				c0.191-0.293,0.312-0.595,0.312-0.595s-0.281,0.114-0.309-0.004c-0.027-0.119,0.347-0.854,0.347-0.854s3.436-6.13,5.135-9.016
				c1.699-2.887,4.362-8.364,4.497-8.495c0.136-0.131,0.697,0.662,1.656,1.538s2.4,1.891,2.4,1.891l4.376,3.379l-3.338-2.671
				c0,0,1.207,0.719,3.005,1.027s3.457-0.398,3.457-0.398s-2.038-0.528-3.662-1.002c-1.622-0.473-2.468-0.751-3.523-1.331
				c-1.057-0.58-1.816-1.102-1.816-1.102s4.059,1.183,7.438,1.475c3.379,0.293,4.523,0.327,4.523,0.327s-6.826-0.568-9.025-1.384
				c-2.198-0.815-3.771-1.474-3.771-1.474s2.83,1.192,7.604,1.786c4.774,0.595,6.176,0.72,6.176,0.72s-5.519-0.746-6.769-0.932
				c-1.249-0.186-4.844-1.103-4.844-1.103S119.387,151.661,119.971,151.526z M115.066,145.861c-0.137,0.331-0.546,0.912-0.546,0.912
				s0.114-0.326,0.315-0.734c0.201-0.408,0.604-1.074,0.604-1.074S115.203,145.53,115.066,145.861z M116.43,138.289
				c0.439-0.251,1.021-0.548,1.021-0.548l-0.125,0.69c0,0-0.168,0.039-0.449,0.104s-1.286,0.421-1.286,0.421
				S115.991,138.54,116.43,138.289z M113.921,139.617l0.717-0.229c0,0-0.51,0.404-0.601,0.525c-0.09,0.12-0.155,0.197-0.155,0.197
				L113.921,139.617z M112.578,140.101c0.379-0.1,1.149-0.402,1.149-0.402l0.008,0.497c0,0-0.02-0.033-0.411,0.419
				c-0.393,0.452-1.99,1.731-1.99,1.731s-0.007-0.285-0.108-0.723s-0.141-0.916-0.141-0.916S112.199,140.201,112.578,140.101z
				 M109.379,141.613c0.062-0.09,0.484-0.361,0.746-0.51c0.261-0.147,0.551-0.228,0.551-0.228l0.425,1.636l-1.31,1.089l-0.752-1.773
				C109.038,141.828,109.316,141.702,109.379,141.613z M108.195,146.325c0,0-0.578-0.503-0.663-0.62
				c-0.087-0.117-0.385-0.436-0.385-0.436s0.242,0.232,0.407,0.381C107.719,145.799,108.195,146.325,108.195,146.325z
				 M107.44,144.592l0.578,0.402c0,0-0.129,0.005-0.188-0.044C107.773,144.901,107.44,144.592,107.44,144.592z M109.056,147.286
				c0.655,0.534,1.757,1.565,1.757,1.565s-1.334-0.964-1.827-1.462c-0.494-0.497-1.45-1.462-1.45-1.462
				S108.399,146.752,109.056,147.286z M109.095,146.841c-0.688-0.826-1.295-1.459-1.295-1.459s0.571,0.578,0.773,0.781
				c0.2,0.203,0.721,0.77,0.832,0.893c0.112,0.125,0.725,0.731,0.85,0.864c0.127,0.133-0.643-0.588-0.643-0.588
				s0.744,0.814,0.934,0.92c0.19,0.106,0.496,0.46,0.496,0.46S109.782,147.667,109.095,146.841z M109.978,147.335
				c-0.047-0.051-0.331-0.359-0.657-0.696c-0.326-0.336-1.29-1.336-1.29-1.336s0.41,0.292,0.583,0.478
				c0.173,0.184,0.767,0.707,0.975,0.996c0.209,0.289,0.72,0.807,0.72,0.807S110.025,147.387,109.978,147.335z M109.702,146.501
				c-0.186-0.244-1.477-1.479-1.477-1.479s0.152-0.16,0.375-0.324c0.222-0.163,0.342-0.415,0.484-0.461
				c0.143-0.045,0.122-0.09,0.279-0.177c0.157-0.086,0.393-0.189,0.393-0.189s0.842,1.751,1.077,2.357
				c0.234,0.607,1.003,2.5,1.003,2.5s-0.365-0.352-0.459-0.505c-0.096-0.153-0.363-0.341-0.563-0.594
				S109.889,146.745,109.702,146.501z M108.898,141.936l0.802,1.734l-1.532,1.251c0,0-0.896-1.315-1.031-1.445
				c-0.137-0.13-0.229-0.27-0.229-0.27L108.898,141.936z M106.696,143.366l0.985,1.244l-1.248-0.997L106.696,143.366z
				 M106.775,144.632c0.32,0.363,0.711,0.722,0.711,0.722s-0.383-0.223-0.698-0.562c-0.315-0.339-0.816-0.872-0.816-0.872
				l0.099-0.085C106.07,143.835,106.455,144.271,106.775,144.632z M106.01,143.774l-0.085,0.044l-0.825-0.857L106.01,143.774z
				 M104.675,142.81c0.154,0.151,1.003,1.065,1.003,1.065s-0.494-0.397-0.657-0.597c-0.165-0.199-0.574-0.69-0.574-0.69
				S104.523,142.658,104.675,142.81z M103.516,141.631c0.176,0.196,0.485,0.512,0.485,0.512l-0.789-0.753
				C103.212,141.39,103.341,141.435,103.516,141.631z M103.974,142.536c0,0,1.136,1.233,1.275,1.326
				c0.14,0.093,0.319,0.151,0.319,0.151l-0.031,0.02c-0.015,0.04-0.149,0.222-0.149,0.222L103.974,142.536z M107.159,146.19
				c-1.074-1.061-1.644-1.79-1.644-1.79l0.092-0.221c0,0,0.933,1.068,1.51,1.722c0.575,0.652,2.513,2.537,2.513,2.537
				S108.232,147.252,107.159,146.19z M109.648,148.209c-0.558-0.469-1.686-1.768-1.686-1.768s1.358,1.482,2.049,1.959
				c0.689,0.477,1.544,1.104,1.544,1.104S110.205,148.68,109.648,148.209z M111.175,148.269c-0.37-0.426-1.002-1.115-1.002-1.115
				s0.903,0.889,1.202,1.269c0.302,0.38,0.707,1.009,0.707,1.009S111.545,148.694,111.175,148.269z M111.667,148.043
				c-0.091-0.241-0.463-1.34-0.623-1.727c-0.16-0.388-1.162-2.625-1.162-2.625l1.229-1.082c0,0,0.093,0.402,0.123,0.532
				c0.03,0.131,0.046,0.352,0.125,0.695c0.08,0.344,0.273,1.283,0.289,1.405c0.016,0.12-0.028,0.442,0.048,0.773
				c0.077,0.332,0.192,0.779,0.197,0.953c0.004,0.173-0.025,0.404-0.025,0.404l-0.4-0.605c0,0,0.407,0.94,0.495,1.12
				c0.089,0.179,0.138,0.442,0.146,0.678c0.006,0.235,0.077,0.492,0.077,0.492S111.758,148.283,111.667,148.043z M111.962,147.426
				c-0.076-0.232,0.035-0.258-0.005-0.585c-0.04-0.327-0.143-0.827-0.215-1.085c-0.071-0.258,0.008-0.326,0.008-0.326
				s0.275,1.346,0.324,1.559c0.05,0.214,0.036,0.466,0.077,0.693c0.041,0.228,0.109,0.475,0.109,0.475
				S112.039,147.657,111.962,147.426z M112.719,144.508c0.051,1.036-0.065,1.611-0.065,1.611s-0.07-0.047-0.138-0.492
				c-0.067-0.446-0.455-2.178-0.455-2.178s0.105,1.073,0.269,1.934c0.164,0.86,0.139,3.161,0.139,3.161s-0.049-0.263-0.085-0.929
				c-0.035-0.665-0.049-1.958-0.144-2.373c-0.097-0.414-0.332-2.205-0.332-2.205l0.217,2.22l-0.337-2.33c0,0,0.085,0.879,0.17,1.558
				c0.086,0.679,0.025,1.029,0.025,1.029s0,0-0.232-0.957c-0.232-0.956-0.438-2.105-0.438-2.105s0.792-0.458,1.262-0.939
				c0.468-0.482,1.152-1.103,1.152-1.103s-0.042,1.356-0.127,2.162c-0.087,0.806-0.221,2.021-0.307,2.415
				c-0.087,0.395-0.258,1.806-0.258,1.806s-0.065,0.027-0.084-0.056s0.115-0.887,0.115-0.887l-0.208,0.896
				c0,0,0.021-1.189,0.02-1.812c-0.002-0.623-0.462-2.823-0.462-2.823S112.67,143.472,112.719,144.508z M112.786,149.817
				c0,0,0.415-3.276,0.463-3.785c0.048-0.511,0.283-1.85,0.381-2.807c0.099-0.958,0.245-3.037,0.245-3.037s0.062-0.039,0.209-0.123
				c0.146-0.084,1.2-0.9,1.38-0.942c0.179-0.041,1.774-0.51,1.774-0.51s-0.381,1.734-0.898,3.538
				c-0.519,1.803-1.753,4.195-2.396,5.503C113.299,148.963,112.786,149.817,112.786,149.817z M112.954,149.878
				c-0.009-0.035,0.055-0.224,0.131-0.404c0.077-0.18,0.182-0.341,0.182-0.341L112.954,149.878z M122.914,150.447
				c0.505-0.116,2.258-0.52,2.258-0.52s-2.81,0.997-3.226,1.094c-0.416,0.096-2.206,0.022-2.206,0.022
				S122.409,150.565,122.914,150.447z M120.426,150.785c0,0-0.64,0.147-0.764,0.177c-0.124,0.028-1.913-0.194-1.913-0.194
				s1.78,0.024,2.119,0.01C120.208,150.761,120.426,150.785,120.426,150.785z M118.617,150.43c0.345,0.008,1.386,0.216,1.386,0.216
				s-0.911-0.001-1.144-0.035c-0.232-0.033-1.324-0.206-1.324-0.206S118.271,150.422,118.617,150.43z M121.699,148.409
				c0.722-0.254,2.441-0.951,2.441-0.951s-1.249,0.737-2.73,1.342c-1.481,0.604-3.531,1.351-3.531,1.351s-0.567,0.106-0.87,0.027
				c-0.303-0.08-0.785,0.03-0.911,0.047c-0.126,0.018-0.771-0.009-0.771-0.009s2.548-0.488,3.267-0.654
				C119.313,149.396,120.978,148.662,121.699,148.409z M117.344,150.499c0,0-0.422,0.121-0.587,0.072s-1.006-0.153-1.006-0.153
				s0.514,0.018,0.803,0.038C116.842,150.477,117.344,150.499,117.344,150.499z M116.423,147.843
				c-0.127,0.167-0.482,0.623-0.482,0.623s0.407-0.643,0.443-0.689c0.027-0.033,0.383-0.142,0.582-0.201
				c0.074-0.023,0.132-0.039,0.132-0.039s-0.055,0.016-0.132,0.039C116.796,147.628,116.512,147.727,116.423,147.843z
				 M116.646,148.402c0,0-0.19,0.306-0.231,0.329c-0.043,0.021-0.41,0.118-0.41,0.118s0.338-0.178,0.437-0.262
				C116.539,148.502,116.646,148.402,116.646,148.402z M116.242,148.957c0,0-0.296,0.356-0.495,0.414
				c-0.2,0.059-0.499,0.041-0.499,0.041s0.088-0.232,0.32-0.3C115.802,149.046,116.242,148.957,116.242,148.957z M120.182,147.524
				c0,0-0.648,0.524-1.086,0.625c-0.438,0.101-0.389-0.098-0.271-0.2c0.118-0.102,0.659-0.477,0.659-0.477L120.182,147.524z
				 M119.116,147.521c0,0-0.537,0.435-1.022,0.797c-0.484,0.36,0.394-0.341,0.394-0.341L119.116,147.521z M118.927,147.465
				c0,0-0.501,0.29-0.604,0.413c-0.102,0.124-0.191,0.194-0.191,0.194l-0.215-0.674L118.927,147.465z M118.49,148.551
				c0.404-0.144,0.655-0.289,0.655-0.289s-0.757,0.462-1.018,0.56c-0.261,0.098-0.845,0.283-0.845,0.283
				S118.086,148.694,118.49,148.551z M117.975,149.031c0.34-0.116,1.337-0.72,1.337-0.72s-1,0.691-1.34,0.808
				c-0.341,0.116-1.102,0.354-1.102,0.354S117.635,149.147,117.975,149.031z M116.542,146.818c0.209-0.273,0.757-0.973,0.757-0.973
				s-0.499,0.812-0.628,0.968c-0.131,0.155-0.805,0.821-0.805,0.821S116.332,147.091,116.542,146.818z M115.504,147.855l0.089,0.13
				c0,0,0.038,0.065-0.066,0.127c-0.104,0.061-0.478,0.285-0.478,0.285L115.504,147.855z M115.688,148.249
				c0.194-0.082,0.283-0.002,0.283-0.002s-0.101,0.022-0.233,0.165c-0.133,0.144-0.471,0.421-0.471,0.421s-0.042,0.022-0.129,0.005
				c-0.087-0.018-0.113-0.285-0.113-0.285S115.495,148.332,115.688,148.249z M114.031,149.168c0.136-0.131,0.336-0.189,0.336-0.189
				s0.149,0.239,0.157,0.275c0.009,0.035-0.141,0.157-0.206,0.185c-0.065,0.027-0.319,0.049-0.387,0.114
				c-0.067,0.065-0.119,0.152-0.208,0.174c-0.09,0.021-0.357,0.044-0.357,0.044S113.896,149.299,114.031,149.168z M115.013,152.496
				c-0.803-0.713-1.727-1.746-1.727-1.746s0.148,0.028,0.347,0.219c0.197,0.191,2.146,2.174,2.146,2.174L115.013,152.496z
				 M120.756,155.647c-1.183-0.151-2.957-1.025-2.957-1.025l-1.965-1.542l-1.19-1.26c0,0,0.181,0.17,1.171,0.977
				s2.301,1.514,3.744,2.129c1.443,0.615,2.769,0.771,2.769,0.771S121.938,155.799,120.756,155.647z M115.356,151.419
				c0.243,0.131,0.562,0.282,0.562,0.282s-0.521-0.204-0.758-0.312c-0.237-0.107-0.651-0.361-0.651-0.361
				S115.112,151.288,115.356,151.419z M117.94,153.441c1.594,0.704,2.96,1.038,4.374,1.423c1.413,0.384,1.851,0.434,1.851,0.434
				s-0.135,0.08-0.542,0.162c-0.407,0.081-1.234,0.186-1.234,0.186s0.052,0.074-1.031-0.211c-1.083-0.287-2.55-0.747-4.178-1.755
				c-1.629-1.009-2.838-2.251-2.838-2.251l0.043-0.072C114.384,151.356,116.346,152.737,117.94,153.441z M115.181,150.811
				c-0.186-0.033-0.84-0.256-0.84-0.256s0.459,0.094,0.81,0.125c0.35,0.031,0.604,0.109,0.604,0.109
				S115.365,150.843,115.181,150.811z M116.021,150.867c0,0,1.704,0.106,2.472,0.202c0.768,0.098,2.09,0.241,2.09,0.241
				s-0.586,0.023-0.653,0.038c-0.067,0.016-1.084-0.086-1.474-0.134C118.065,151.168,116.021,150.867,116.021,150.867z"/>
		</g>
	</g>
	<g>
		<g>
			<path d="M81.375,94.524l-4.938,1.464l-0.724,0.247L81.375,94.524z M80.305,90.748c0,0-0.959,0.536-1.558,1.065
				c-0.043,0.038-0.114,0.092-0.198,0.153L80.305,90.748z M56.636,91.762c-0.478-0.227-0.826-0.387-0.826-0.387L56.636,91.762z
				 M80.561,88.44l-4.368,3.885c0.146-0.121,0.287-0.234,0.436-0.362C79.065,89.87,80.561,88.44,80.561,88.44z M79.176,93.491
				l-2.965,1.62c0.088-0.04,0.18-0.081,0.266-0.121C78.185,94.188,79.176,93.491,79.176,93.491z M73.167,97.46l3.254-0.578
				c-0.12,0.02-0.242,0.04-0.358,0.059c-2.965,0.482-4.826,0.388-4.826,0.388l3.31-0.78l1.89-0.56l5.424-1.848l-6.913,2.232
				l6.915-2.499l-7.794,2.571l8.283-3.492l-8.105,3.233l1.964-1.073c-1.664,0.763-3.656,1.524-3.656,1.524l7.332-4.299l-7.078,3.904
				l5.027-3.236l-4.71,2.727L78.2,92.21c-1.418,0.956-4.851,3.021-4.851,3.021l7.579-5.745l-7.021,5.073l3.713-3.08l-3.727,2.893
				l2.299-2.044c-2.243,1.863-4.081,2.923-4.081,2.923s1.14-0.852,1.814-1.519c0.676-0.665,5.311-5.857,5.311-5.857l-2.577,2.764
				l2.398-2.925c0,0-0.144,0.098-2.492,2.722s-5.221,5.011-5.221,5.011s1.794-1.59,2.479-2.22c0.685-0.631,3.344-4.336,3.344-4.336
				s-1.43,2.005-3.047,3.756c-1.615,1.751-3.255,2.8-3.255,2.8s2.431-2.398,3.301-3.463c0.869-1.064,4.136-5.952,4.136-5.952
				s-3.099,4.324-4.076,5.688c-0.978,1.362-3.573,3.787-3.573,3.787s1.479-1.827,1.891-2.344c0.411-0.517,2.354-4.863,2.354-4.863
				s-0.498,1.096-0.907,1.821c-0.41,0.727-3.386,4.729-3.386,4.729s0.806-1.429,0.852-1.882c0.047-0.453,1.093-2.943,1.093-2.943
				l-0.573,0.963c0,0-0.04-0.83,0.05-1.468c0.091-0.637,0.45-4.083,0.45-4.083s-2.556,9.088-2.901,9.7s-0.719,1.06-0.719,1.06
				l1.954-11.043l-2.165,11.312l-0.775-10.607l0.555,9.197l-1.503-8.207l1.456,9.826l-1.023-4.496l0.244,1.424l-2.881-7.938
				l2.473,7.917l-1.318-3.706l1.291,4.02l-1.718-3.9l2.681,6.807l-2.639-5.078l0.896,2.6l-2.829-5.006l2.994,5.668l-6.923-8.514
				l5.817,7.291l-0.783-0.891l2.961,3.975l-5.175-5.672l0.754,1.262l-4.729-4.343l0.242,0.525l-1.025-0.729l4.808,4.418l-1.828-1.48
				l4.238,3.888l-1.158-0.863l2.634,2.384c0,0-1.822-1.118-2.633-1.695c-0.812-0.577-6.721-5.108-6.721-5.108l4.544,3.611
				l-5.021-2.923c0,0,3.194,2.131,4.621,2.996c1.426,0.864,4.775,3.413,4.775,3.413l-8.278-5.211l4.058,2.829l-5.089-2.383
				c0.665,0.316,1.589,0.767,2.236,1.132c1.112,0.628,6.723,3.674,6.723,3.674l-8.689-4.216l1.284,0.904l-3.169-1.488l7.822,3.845
				l-6.932-2.773l8.37,3.616l-9.271-2.868l5.396,1.728l-4.313-0.998l3.891,1.06l-3.982-0.843l10.1,2.618l-10.13-2.246l8.491,2.129
				l-9.31-2.111l8.498,2.013l-6.814-1.392l7.881,1.726l-8.292-1.209l8.51,1.302l-7.353-0.649l7.983,0.855L54.94,96.903l7.782,0.682
				l-7.668-0.407l10.258,0.643l-7.802-0.065l9.134,0.248l-7.587,1.252l8.188-1.152l-8.896,1.98c0,0,9.513-1.961,9.87-2.118
				c0.358-0.157,0.181,0.581,0.14,2.352c-0.042,1.771-0.04,5.9,0.053,10.561c0.094,4.659,0.144,12.046,0.144,12.046l-0.227-0.337
				l0.016,0.606l-0.094,0.008l0.095,0.202l-0.129,0.017l0.1,0.356l-0.088,0.1l0.095,0.203c0,0-0.063,0.113-0.102,0.182
				c-0.037,0.068,0.276,0.306,0.276,0.306s0.005,0.152,0.107,1.347c0.104,1.195,1.438,3.233,1.438,3.233s0.425-0.807,0.295-2.167
				c-0.13-1.359-0.153-2.538-0.326-2.816c-0.172-0.277-0.142-1.127-0.142-1.127l-0.248,0.068l-0.051-0.387l-0.216,0.117l0.023-0.466
				l-0.206,0.153c0,0-0.153-2.749-0.199-3.941c-0.045-1.192-0.181-20.354-0.167-20.646c0.015-0.291,0.313-0.183,0.892-0.095
				c0.579,0.087,4.917,1.517,4.917,1.517s-0.445-0.431-1.203-0.679c-0.757-0.247-2.6-0.958-2.6-0.958l4.044,0.308l-3.123-0.297
				l8.797-0.002l-8.336-0.127l8.857-0.956L73.167,97.46z M71.249,90.374C71.787,88.529,72,87.351,72,87.351l-0.177,3.744
				c0,0-0.655,1.301-0.984,1.884c-0.328,0.583-1.142,2.165-1.142,2.165S70.712,92.218,71.249,90.374z M71.7,91.688
				c0,0-0.703,1.856-0.91,2.27c-0.207,0.414-0.835,1.198-0.835,1.198L71.7,91.688z M73.396,91.081l-0.867,1.817l-2.04,2.347
				L73.396,91.081z M76.421,96.882c2.946-0.486,6.986-1.242,6.986-1.242L76.421,96.882z M81.933,94.808l-7.385,1.74l-0.609,0.181
				L81.933,94.808z"/>
		</g>
	</g>
	<g>
		<g>
			<path d="M144.699,101.683l-0.214-0.085l0.576-0.158l-0.73,0.078c0,0,0.075-0.016-0.298-0.105
				c-0.373-0.09-0.979,0.018-1.602,0.055c-0.621,0.036-3.376,0.593-3.376,0.593s0.016-0.582-0.018-0.836
				c-0.033-0.254-0.091-1.473-0.091-1.473l1.983-1.328l-2.01,1.203l-0.16-0.955c0,0,0.057-0.106,0.122-0.455
				c0.065-0.349,0.264-1.939,0.264-1.939s-1.701,1.083-2.634,1.986c-0.932,0.903-2.151,1.94-2.151,1.94l2.275-3.701l-4.81,7.01
				c0,0,1.258-3.489,1.508-4.082c0.25-0.594,1.78-3.058,1.78-3.058l-2.481,3.278l2.965-4.256l-3.139,4.273l2.808-4.261l-2.913,4.227
				c0,0-0.252-0.077-0.229-0.25s2.424-3.174,2.424-3.174l-2.567,3.148c0,0-0.277-0.39-0.39-0.832
				c-0.112-0.443,0.546-2.092,0.546-2.092l-0.692,1.675c0,0-0.387-0.442-0.394-0.664c-0.007-0.223,0.69-2.345,0.69-2.345
				s-0.931,2.227-1.213,3.797c-0.119,0.663-0.123,1.185-0.091,1.576c-0.067-0.34-0.146-0.736-0.222-1.1
				c-0.179-0.858-0.049-2.116-0.175-3.097s-0.337-2.84-0.337-2.84s-0.073,0.78-0.095,1.997c-0.021,1.217,0.19,4.865,0.19,4.865
				s-1.073-1.938-1.156-2.238c-0.082-0.301,0.145-2.512,0.145-2.512l-0.253,2.18c0,0-0.06-0.1-0.104-0.314
				c-0.045-0.214,0.166-2.03,0.166-2.03l-0.257,1.882c0,0-0.422-1.927-0.604-2.709c-0.184-0.782-0.17-1.662-0.17-1.662l-0.069,0.611
				l-0.347-1.568l0.192,1.582l-0.539-1.827l0.567,2.623l-0.614-1.531c0,0,0.613,1.904,0.729,2.459
				c0.116,0.554,0.297,2.362,0.297,2.362s-0.083-0.113-0.286-0.519c-0.202-0.405-1.288-3.722-1.288-3.722l0.599,2.112
				c0,0-0.195-0.369-0.273-0.558c-0.079-0.189-1.138-2.057-1.138-2.057l0.082,0.299l-0.292-0.46c0,0,1.602,3.152,1.853,3.79
				c0.252,0.639,1.073,2.313,1.17,2.778c0.098,0.464,1.269,2.309,1.269,2.309s-1.853-2.28-2.401-3.117
				c-0.548-0.837-2.917-4.558-2.917-4.558s0.556,0.967,2.568,4.201c2.013,3.235,3.81,4.875,3.81,4.875s-0.996-0.911-2.313-2.222
				c-1.315-1.311-3.991-6.03-3.991-6.03s0.404,0.811,1.737,3.144s3.531,4.858,3.531,4.858s-0.629-0.372-1.395-0.939
				c-0.768-0.567-1.248-1.082-2.128-2.093c-0.88-1.01-1.936-2.3-1.936-2.3s0.042,1.427,0.861,2.617
				c0.818,1.191,1.736,1.82,1.736,1.82l-3.029-1.513l3.884,2.025c0,0,1.208,0.699,2.156,1.098c0.948,0.398,1.705,0.539,1.655,0.68
				c-0.048,0.141-3.104,3.875-4.614,6.056c-1.512,2.181-4.778,6.687-4.778,6.687s-0.404,0.513-0.499,0.533s-0.105-0.221-0.105-0.221
				s-0.178,0.187-0.325,0.422c-0.146,0.236-0.154,0.294-0.154,0.294l-0.155-0.08l-0.064,0.35l-0.094-0.167
				c0,0-0.099,0.281-0.71,1.212c-0.612,0.93-1.414,2.365-1.414,2.365s-0.064,0.256,0.048,0.512c0.113,0.257,0.898-0.598,1.204-1.016
				c0.306-0.419,1.266-1.756,1.315-1.805c0.048-0.047,0.521-0.332,0.521-0.332l-0.162-0.115l0.464-0.32l-0.094-0.074l0.31-0.213
				l-0.166-0.041l0.253-0.201l-0.199-0.015l0.241-0.255l-0.207-0.051c0,0,1.643-2.488,5.429-7.997
				c3.785-5.51,4.426-5.363,4.426-5.363s0.206,0.236,0.556,0.499c0.351,0.263,0.979,0.729,1.438,0.949
				c0.459,0.222,1.302,0.772,2.258,1.487c0.955,0.715,4.408,3.5,4.408,3.5s-2.027-1.796-2.96-2.497
				c-0.933-0.7-2.634-1.968-2.634-1.968s0.994,0.333,1.871,0.673c0.877,0.339,3.352,0.885,4.239,1.185
				c0.889,0.3,3.366,1.143,3.366,1.143s-1.603-0.803-2.345-1.151c-0.742-0.349-3.481-1.698-3.481-1.698l0.143-0.253l2.94,0.896
				l-2.541-0.868l4.255,0.79l-4.677-1.02c0,0,0.023-0.079,0.058-0.385s0.214-1.519,0.214-1.519l5.36-0.037l-5.359-0.149l0.125-0.529
				l4.208-0.096l-4.174-0.023c0,0,0.034-0.213,0.061-0.367c0.027-0.154-0.044-0.494-0.044-0.494s3.734-0.481,4.096-0.538
				C143.516,101.762,144.699,101.683,144.699,101.683z M132.693,100.077c0.068-0.144,0.487-0.773,0.487-0.773
				s-0.321,0.627-0.448,0.868c-0.127,0.24-0.363,0.757-0.363,0.757S132.625,100.222,132.693,100.077z M138.879,100.791
				c0.054,0.306,0.06,1.274,0.06,1.274s-0.357,0.13-0.705,0.203c-0.348,0.072-0.556,0.162-0.556,0.162s0.39-1.573,0.585-2.006
				c0.194-0.432,0.164-0.435,0.164-0.435l0.36-0.158C138.787,99.831,138.825,100.485,138.879,100.791z M134.028,105.059
				c0.137,0.046,0.777,0.285,0.903,0.324c0.126,0.039,0.706,0.226,0.919,0.302c0.212,0.077,0.818,0.296,0.818,0.296
				s-0.656-0.227-1.479-0.446c-0.822-0.221-1.991-0.778-1.991-0.778s0.355,0.103,0.495,0.204c0.139,0.101,0.971,0.366,0.971,0.366
				S133.891,105.013,134.028,105.059z M134.253,104.909c0,0,0.541,0.194,0.818,0.248c0.277,0.055,0.851,0.308,1.041,0.371
				c0.19,0.062,0.536,0.261,0.536,0.261s-1.038-0.361-1.389-0.484c-0.35-0.123-0.666-0.225-0.72-0.241
				C134.488,105.046,134.253,104.909,134.253,104.909z M134.882,105.71c0.602,0.294,1.481,0.642,1.481,0.642
				s-1.011-0.368-1.532-0.558c-0.522-0.189-1.657-0.828-1.657-0.828S134.28,105.416,134.882,105.71z M135.858,106.01
				c0,0,0.537,0.168,0.699,0.236s0.408,0.166,0.408,0.166s-0.328-0.108-0.44-0.132C136.412,106.258,135.858,106.01,135.858,106.01z
				 M136.793,106.197c0,0,0.388,0.161,0.754,0.272c0.368,0.109,0.809,0.241,0.809,0.241l-0.028,0.1c0,0-0.551-0.184-0.898-0.298
				C137.081,106.398,136.793,106.197,136.793,106.197z M137.263,105.81l1.222,0.295l-0.091,0.271L137.263,105.81z M137.357,105.977
				c0,0-0.333-0.136-0.388-0.161c-0.055-0.026-0.094-0.121-0.094-0.121L137.357,105.977z M136.786,105.555
				c0,0-1.316-0.518-1.554-0.57c-0.238-0.054-0.932-0.365-1.181-0.425c-0.248-0.061-0.473-0.19-0.613-0.208
				c-0.142-0.017-0.516-0.163-0.516-0.163s1.616-0.076,2.131-0.109c0.514-0.032,2.052-0.009,2.052-0.009s0.004,0.205-0.006,0.347
				s-0.05,0.141-0.035,0.259c0.016,0.118-0.126,0.288-0.169,0.502C136.851,105.393,136.786,105.555,136.786,105.555z
				 M134.919,103.958c-0.331,0.014-1.245,0.111-1.448,0.125c-0.203,0.016-0.902-0.035-0.902-0.035s0.21-0.034,0.381-0.108
				c0.172-0.073,0.377-0.125,0.535-0.121c0.158,0.005,0.97-0.016,0.97-0.016l-0.568-0.086c0,0,0.156-0.099,0.283-0.153
				c0.126-0.054,0.486-0.12,0.749-0.175c0.265-0.055,0.481-0.193,0.573-0.223c0.093-0.028,0.833-0.202,1.107-0.259
				c0.273-0.057,0.438-0.119,0.541-0.141c0.104-0.021,0.424-0.089,0.424-0.089l-0.369,1.243
				C137.193,103.922,135.251,103.945,134.919,103.958z M133.192,103.694c0,0,0.2-0.033,0.377-0.079
				c0.178-0.046,0.354-0.14,0.525-0.175c0.168-0.035,1.228-0.284,1.228-0.284s-0.023,0.079-0.232,0.113
				c-0.21,0.034-0.604,0.126-0.853,0.206c-0.248,0.08-0.229,0.169-0.422,0.19C133.624,103.688,133.192,103.694,133.192,103.694z
				 M135.949,102.866c-0.765,0.15-0.765,0.15-0.765,0.15s0.232-0.16,0.749-0.324c0.517-0.163,1.176-0.394,1.176-0.394l-1.786,0.531
				l1.668-0.581c0,0-1.367,0.425-1.696,0.494c-0.33,0.069-1.265,0.488-1.755,0.684c-0.49,0.195-0.695,0.248-0.695,0.248
				s1.645-0.782,2.318-0.95c0.673-0.169,1.479-0.449,1.479-0.449s-1.373,0.296-1.717,0.396c-0.343,0.1-0.399,0.065-0.399,0.065
				s0.375-0.274,1.137-0.583c0.762-0.308,1.826-0.577,1.826-0.577s-1.735,0.399-2.185,0.605c-0.448,0.205-1.296,0.615-1.296,0.615
				l0.574-0.446c0,0-0.533,0.363-0.599,0.377s-0.068-0.041-0.068-0.041s0.958-0.592,1.213-0.785s1.084-0.692,1.635-1.023
				c0.551-0.329,1.513-0.81,1.513-0.81s-0.219,0.698-0.409,1.194c-0.191,0.497-0.257,1.22-0.257,1.22
				S136.715,102.716,135.949,102.866z M138.781,99.664l-0.343,0.193c0,0,0.034-0.073,0.09-0.178
				c0.058-0.105,0.179-0.607,0.179-0.607L138.781,99.664z M138.957,96.503c0,0-0.02,0.518-0.055,0.916
				c-0.034,0.399-0.201,0.825-0.201,0.825s-0.077-0.842-0.124-1.064c-0.046-0.224-0.074-0.358-0.074-0.358L138.957,96.503z
				 M133.91,100.914c0.192-0.208,0.521-0.565,0.521-0.565s-0.347,0.511-0.573,0.791c-0.227,0.28-0.423,0.471-0.423,0.471
				S133.718,101.122,133.91,100.914z M131.988,101.838c0,0-0.201,0.069-0.243,0.013c-0.041-0.057-0.038-0.094-0.038-0.094
				s0.087-0.335,0.146-0.478c0.059-0.143,0.042-0.223,0.042-0.223s0.087,0.038,0.092,0.205
				C131.992,101.427,131.988,101.838,131.988,101.838z M132.139,101.331c0.01-0.096,0.069-0.09,0.069-0.09l0.123,0.021l-0.238,0.507
				C132.093,101.769,132.129,101.426,132.139,101.331z M132.03,100.011c0,0,0.008,0.048,0.016,0.11
				c0.023,0.162,0.063,0.453,0.049,0.483c-0.021,0.041-0.349,0.548-0.349,0.548s0.211-0.407,0.287-0.554
				c0.054-0.102,0.031-0.338,0.012-0.477C132.037,100.057,132.03,100.011,132.03,100.011z M131.476,98.672l0.383,0.703l-0.556,0.069
				c0,0,0.021-0.088,0.075-0.202C131.433,99.128,131.476,98.672,131.476,98.672z M130.829,98.778c0,0-0.021,0.228,0.011,0.567
				c0.031,0.339,0.003,1.053,0.003,1.053s-0.061-0.481-0.077-0.701C130.748,99.477,130.829,98.778,130.829,98.778z M130.739,98.676
				c0,0-0.104,0.917-0.074,1.2c0.029,0.283,0.049,0.941,0.049,0.941s-0.082-0.627-0.111-0.91S130.739,98.676,130.739,98.676z
				 M129.69,97.328c-0.058-1.266,0.058-2.408,0.058-2.408s0.07,1.468,0.128,2.071s0.082,2.044,0.202,2.615
				c0.119,0.572,0.614,2.567,0.614,2.567s-0.232-0.455-0.263-0.552c-0.029-0.096-0.109-0.48-0.268-0.671
				c-0.158-0.191-0.271-0.634-0.271-0.634S129.748,98.594,129.69,97.328z M130.407,101.935c0,0-0.355-0.568-0.445-0.671
				c-0.091-0.103-0.143-0.446-0.143-0.446s0.183,0.354,0.293,0.554C130.223,101.572,130.407,101.935,130.407,101.935z
				 M129.446,99.879c0.12,0.245,0.377,0.769,0.377,0.769s-0.486-0.727-0.588-0.884c-0.102-0.156-0.404-0.812-0.404-0.812
				S129.326,99.634,129.446,99.879z M128.781,99.095c0.101,0.249,0.711,1.521,0.711,1.521s-0.755-1.213-0.775-1.311
				c-0.021-0.099-0.127-0.607-0.127-0.607S128.681,98.845,128.781,99.095z M127.631,94.998c0,0,0.291,1.395,0.375,1.796
				c0.084,0.402,0.626,2.48,0.626,2.48s-0.646-1.264-0.716-1.595C127.847,97.35,127.631,94.998,127.631,94.998z M128.935,100.256
				c-0.162-0.265-0.574-0.962-0.586-1.016c-0.011-0.054-0.188-0.482-0.188-0.482s0.543,0.903,0.867,1.423
				c0.325,0.52,0.968,1.71,0.968,1.71S129.099,100.521,128.935,100.256z M130.313,102.477c-0.085-0.122-0.177-0.42-0.177-0.42
				s0.142,0.157,0.28,0.398c0.139,0.241,0.358,0.54,0.358,0.54S130.398,102.599,130.313,102.477z M129.429,102.242
				c0,0,0.215,0.179,0.389,0.31c0.176,0.131,0.562,0.479,0.562,0.479s-0.319-0.214-0.476-0.349
				C129.748,102.548,129.429,102.242,129.429,102.242z M124.104,97.506c0,0,0.181,0.299,0.927,1.187
				c0.745,0.889,1.439,1.761,2.475,2.673c1.036,0.912,2.681,1.864,2.681,1.864l-0.038,0.055c0,0-1.295-0.457-2.561-1.293
				s-2.083-1.738-2.649-2.422c-0.564-0.684-0.493-0.671-0.493-0.671s-0.2-0.629-0.277-0.949
				C124.09,97.631,124.104,97.506,124.104,97.506z M126.703,101.859c0,0-1.218-0.985-1.719-1.785
				c-0.502-0.801-0.558-1.115-0.558-1.115s0.552,0.901,1.474,1.735c0.921,0.833,1.865,1.54,2.774,1.984
				c0.908,0.444,1.091,0.519,1.091,0.519l-1.301-0.438L126.703,101.859z M129.157,103.156l-0.719-0.335c0,0,2.072,0.743,2.275,0.822
				c0.203,0.078,0.273,0.176,0.273,0.176S129.937,103.497,129.157,103.156z M130.927,98.777c-0.072-0.349,0.089-0.989,0.089-0.989
				l0.269,0.485c0,0-0.09,0.513-0.124,0.632C131.126,99.024,131,99.125,130.927,98.777z M131.139,99.554
				c0.099-0.469,0.233-1,0.233-1l-0.12,0.603C131.252,99.156,131.04,100.021,131.139,99.554z M131.298,101.964
				c0,0-0.113-0.21-0.138-0.373c-0.023-0.163,0.134-0.493,0.134-0.493s0.082,0.346,0.111,0.535S131.298,101.964,131.298,101.964z
				 M131.493,100.831c-0.027,0.1-0.044,0.401-0.044,0.401s-0.052-0.297-0.05-0.335c0.002-0.037,0.158-0.275,0.158-0.275
				S131.521,100.732,131.493,100.831z M131.577,103.164c-0.015-0.071,0.031-0.138,0.056-0.207c0.024-0.071-0.044-0.262-0.047-0.317
				c-0.001-0.056,0.036-0.203,0.064-0.209s0.251,0.021,0.251,0.021s0.024,0.163-0.025,0.305c-0.049,0.141-0.212,0.678-0.212,0.678
				S131.593,103.235,131.577,103.164z M131.723,103.768l0.433-0.473c0,0-0.081,0.129-0.185,0.244
				C131.866,103.654,131.752,103.762,131.723,103.768z M131.823,103.868c0,0,0.443-0.652,1.171-1.55
				c0.727-0.898,2.037-2.58,3.162-3.552c1.124-0.972,2.244-1.821,2.244-1.821s0.194,1.303,0.224,1.446
				c0.029,0.143-0.208,1.171-0.219,1.305c-0.013,0.133-0.02,0.19-0.02,0.19s-1.445,0.796-2.102,1.185
				c-0.656,0.39-1.541,1.003-1.892,1.207C134.041,102.481,131.823,103.868,131.823,103.868z M133.295,104.419
				c0.373,0.09,1.312,0.443,1.312,0.443s-0.707-0.226-1.136-0.351c-0.43-0.124-1.137-0.266-1.137-0.266
				S132.923,104.329,133.295,104.419z M132.458,104.649c0,0,0.734,0.406,1.306,0.744c0.572,0.337,2.089,0.822,2.089,0.822
				s-1.309-0.38-1.831-0.625C133.498,105.347,132.458,104.649,132.458,104.649z M138.134,107.297c0,0-0.714-0.168-1.833-0.587
				c-1.121-0.419-2.438-1.029-2.438-1.029s2,0.767,2.66,0.965c0.661,0.197,1.74,0.514,1.74,0.514L138.134,107.297z M140.788,107.815
				c0.199,0.061,0.275,0.139,0.275,0.139l-0.804-0.317C140.26,107.637,140.589,107.755,140.788,107.815z M138.281,107.341
				c0,0,0.084-0.157,0.108-0.181l0.004-0.029c0,0,0.102,0.109,0.215,0.179c0.112,0.07,1.378,0.478,1.378,0.478L138.281,107.341z
				 M139.791,107.464c0,0-0.49-0.131-0.688-0.183c-0.197-0.053-0.647-0.275-0.647-0.275s0.939,0.308,1.1,0.367
				C139.716,107.434,139.791,107.464,139.791,107.464z M139.306,107.118l-0.891-0.309l0.004-0.075L139.306,107.118z M138.53,105.899
				c0,0-0.132-0.019-0.271-0.074c-0.14-0.055-1.382-0.262-1.382-0.262l0.391-1.518l1.515,0.001L138.53,105.899z M138.974,102.889
				c-0.02,0.236-0.075,0.631-0.118,0.705c-0.044,0.074-0.043,0.316-0.043,0.316l-1.523,0.048l0.347-1.304l1.317-0.238
				C138.953,102.416,138.992,102.651,138.974,102.889z"/>
		</g>
	</g>
</g>
</svg>
