<?xml version="1.0" encoding="utf-8"?>
<!-- Generator: Adobe Illustrator 17.0.0, SVG Export Plug-In . SVG Version: 6.00 Build 0)  -->
<!DOCTYPE svg PUBLIC "-//W3C//DTD SVG 1.1//EN" "http://www.w3.org/Graphics/SVG/1.1/DTD/svg11.dtd">
<svg version="1.1" id="Layer_1" xmlns="http://www.w3.org/2000/svg" xmlns:xlink="http://www.w3.org/1999/xlink" x="0px" y="0px"
	 width="200px" height="300px" viewBox="0 0 200 300" enable-background="new 0 0 200 300" xml:space="preserve">
<g>
	<path d="M90.885,153.362c-0.238-2.382,0.028-6.069-1.036-8.23c-1.159-2.354-4.153-1.58-6.36-1.36
		c1.196-2.306,3.736-5.748,1.814-8.209c-0.423,2.602-0.929,6.511-3.4,7.958c-3.932,2.303-0.852-6.427-0.116-8.244
		c-1.324,2.17-3.501,7.02-3.556,1.869c-0.701,1.76-1.476,4.935-3.158,5.917c-0.793-2.053-0.279-1.916-2.266-2.346
		c1.409-1.096,1.879-2.715,2.869-4.135c-0.539,1.124-1.971,3.552-3.315,3.754c-1.712,0.257,0.396-1.613,0.866-2.315
		c1.913-2.859,3.481-6.562,4.097-9.962c-3.246,3.496-7.44,9.5-12.213,10.393c0.89-1.113,1.779-2.227,2.663-3.344
		c6.854-8.677,13.006-17.624,15.622-28.523c1.76-7.336,1.675-18.583,10.733-20.79c8.162-1.989,21.236,2.531,24.934,10.498
		c1.928,4.152,0.646,8.742-0.821,12.821c-1.996,5.546-4.52,10.877-6.183,16.545c-2.634,8.989-2.796,17.314,2.064,25.457
		c-1.144,0.491-2.546-0.458-3.477-1.179c0.258,0.581,0.518,1.163,0.775,1.744c-3.403-1.704-2.649-8.144-4.354-11.446
		c-1.48,4.07-1.884,9.974,0.287,14c-1.075-1.675-3.081-3.11-3.194-4.981c-0.138-2.262,1.272-3.586-0.374-5.698
		c-1.947,3.451-2.274,6.984-4.813,10.144c0.691-1.373,0.241-2.257,0.234-3.656c-0.007-1.401,1.181-3.237,0.368-4.47
		c-3.926,12.507,1.064,27.706,1.614,40.595c0.557,12.986,1.014,25.98,1.2,38.978c0.094,6.51,0.138,13.024-0.054,19.532
		C101.58,270.444,97.791,300,97.791,300h-8.715c0,0,7.199-67.068,5.305-100.792C92.486,165.484,90.885,153.362,90.885,153.362z"/>
	<g>
		<g>
			<path d="M110.375,47.554l-0.722-0.502l-5.049-3.214L110.375,47.554z M109.922,45.922c0.082,0.071,0.169,0.144,0.254,0.216
				l-2.788-2.75C107.388,43.389,108.272,44.482,109.922,45.922z M112.198,48.672l-0.616-0.392l-7.691-4.302L112.198,48.672z
				 M107.003,39.968l1.633,1.996c-0.103-0.128-0.188-0.24-0.233-0.311C107.904,40.871,107.003,39.968,107.003,39.968z
				 M109.309,48.016l-7.328-3.582C101.981,44.435,106.185,46.536,109.309,48.016z M123.059,51.448l10.493-1.363l-8.618,0.883
				l9.954-1.793l-4.011,0.649l1.722-0.6l-11.04,1.931c0,0,7.232-1.608,8.672-1.954c0.803-0.192,1.923-0.392,2.757-0.532l-6.34,1.018
				l5.431-1.86l-10.899,3.171c0,0,4.55-1.774,6.417-2.283c1.867-0.51,6.112-1.868,6.112-1.868l-6.535,1.658l6.222-2.578
				c0,0-8.039,3.169-9.128,3.554c-1.089,0.386-3.479,1.052-3.479,1.052l3.698-1.819l-1.567,0.594l5.969-2.984l-2.511,1.068
				l6.772-3.396l-1.376,0.485l0.438-0.509l-6.662,3.337l1.244-1.168l-7.585,4.676l4.573-3.488l-1.158,0.744l8.817-6.278L121,49.081
				l5.149-5.368l-4.754,4.683l1.83-2.614l-4.565,4.824l5.163-6.739l-3.161,3.804l2.724-4.072l-2.654,3.714l5.285-8.044l-5.746,7.937
				l0.727-1.511l-2.576,4.69l4.76-10.497l-4.295,8.677l3.553-10.085l-4.25,11.588l1.195-13.312l-1.345,12.944
				c0,0-0.273-0.619-0.463-1.412c-0.19-0.794-0.141-11.749-0.141-11.749s-0.699,3.96-0.802,4.7
				c-0.102,0.739-0.413,1.653-0.413,1.653l-0.331-1.258c0,0,0.372,3.113,0.279,3.632c-0.094,0.521,0.35,2.372,0.35,2.372
				s-2.043-5.416-2.27-6.357c-0.225-0.941-0.431-2.321-0.431-2.321s0.781,5.471,1.075,6.178c0.294,0.707,1.362,3.218,1.362,3.218
				s-2.121-3.533-2.778-5.366c-0.656-1.832-2.732-7.645-2.732-7.645s2.084,6.496,2.715,7.961c0.631,1.466,2.577,4.917,2.577,4.917
				s-1.494-1.694-2.738-4.163c-1.14-2.26-2.034-4.702-2.178-5.1c0.205,0.57,1.798,4.98,2.324,5.842
				c0.562,0.922,2.058,3.269,2.058,3.269s-2.443-3.58-4.226-7.258c-1.783-3.676-1.913-3.831-1.913-3.831l1.742,4.027l-1.992-3.905
				c0,0,3.514,7.271,4.055,8.23c0.54,0.959,1.539,2.273,1.539,2.273s-1.711-1.769-3.618-4.561l1.911,3.012l-3.235-4.417l3.159,4.621
				l-6.214-7.9l6.623,8.828c0,0-3.238-3.469-4.487-4.964l4.576,5.596l-4.385-4.546l4.576,5.215l-6.652-6.613l6.809,7.136
				c0,0-1.981-1.489-3.595-2.871l1.853,1.828l-8.013-6.194l8.126,6.54l-7.874-5.357l6.917,4.996l-7-4.696l5.468,3.798l1.929,1.228
				l3.438,1.923c0,0-2.107-0.49-5.26-1.974c-0.146-0.069-0.299-0.141-0.451-0.213l3.515,1.718l-8.531-3.429l9.575,3.894l-9.339-2.52
				l9.813,2.81l-3.579-0.666l4.61,0.948c0,0-2.283,0.204-3.207,0.239c-0.925,0.035-1.559,0.373-1.559,0.373s5.297-0.211,5.971-0.124
				c0.673,0.087,1.04,0.061,0.963,0.391c-0.076,0.329-6.344,21.665-6.774,22.981c-0.431,1.315-1.479,4.334-1.479,4.334l-0.182-0.236
				l-0.123,0.526l-0.203-0.2l-0.18,0.417l-0.255-0.157c0,0-0.236,0.958-0.518,1.213c-0.28,0.254-0.682,1.562-1.262,3.038
				c-0.579,1.475-0.362,2.512-0.362,2.512s2.138-1.85,2.635-3.15c0.497-1.3,0.55-1.468,0.55-1.468s0.428-0.164,0.406-0.253
				c-0.021-0.088-0.057-0.235-0.057-0.235l0.17-0.196l-0.064-0.14l0.224-0.364l-0.138-0.061l0.17-0.195l-0.102-0.038l0.211-0.673
				l-0.362,0.305c0,0,2.413-8.226,4.005-13.395c1.591-5.169,2.911-9.775,3.43-11.765c0.519-1.989,0.557-2.869,0.905-2.58
				c0.35,0.289,10.337,5.514,10.337,5.514l-9.293-5.049l8.769,3.9l-8.065-3.818l10.27,2.639l-8.724-2.419l11.648,2.558l-8.685-1.992
				l8.9,1.723l-12.073-2.642l9.18,1.594l-8.41-1.623l9.909,1.264l-9.637-1.298l9.343,0.591l-8.046-0.622l10.123,0.467l-11.06-0.615
				l10.152,0.335l-12.018-0.727l12.104,0.303l-4.713-0.332l4.679,0.06l-5.131-0.264l6.572-0.206L123.059,51.448z M114.994,44.848
				l-0.387-2.304l1.914,5.574L114.994,44.848z M116.595,46.585c-0.1-0.527-0.291-2.823-0.291-2.823l0.84,4.428
				C117.144,48.189,116.694,47.112,116.595,46.585z M116.853,45.477c-0.182-0.755-0.496-2.415-0.496-2.415l0.997-4.233
				c0,0-0.138,1.383-0.128,3.611c0.012,2.229,0.21,5.817,0.21,5.817S117.034,46.232,116.853,45.477z M132.988,48.669l1.144-0.184
				C134.132,48.485,133.65,48.558,132.988,48.669z M110.718,42.497c0.126,0.191,0.248,0.363,0.372,0.545l-3.636-5.732
				C107.455,37.31,108.667,39.383,110.718,42.497z"/>
		</g>
	</g>
</g>
</svg>
