<?xml version="1.0" encoding="utf-8"?>
<!-- Generator: Adobe Illustrator 17.0.0, SVG Export Plug-In . SVG Version: 6.00 Build 0)  -->
<!DOCTYPE svg PUBLIC "-//W3C//DTD SVG 1.1//EN" "http://www.w3.org/Graphics/SVG/1.1/DTD/svg11.dtd">
<svg version="1.1" id="Layer_1" xmlns="http://www.w3.org/2000/svg" xmlns:xlink="http://www.w3.org/1999/xlink" x="0px" y="0px"
	 width="36px" height="36px" viewBox="0 0 36 36" enable-background="new 0 0 36 36" xml:space="preserve">
<g>
	<g>
		<path d="M31.324,15.549l-0.214-0.085l0.576-0.158l-0.73,0.078c0,0,0.075-0.016-0.298-0.105c-0.373-0.09-0.979,0.018-1.602,0.055
			c-0.621,0.036-3.376,0.593-3.376,0.593s0.016-0.582-0.018-0.836c-0.033-0.254-0.091-1.473-0.091-1.473l1.983-1.328l-2.01,1.203
			l-0.16-0.955c0,0,0.057-0.106,0.122-0.455c0.065-0.349,0.264-1.939,0.264-1.939s-1.701,1.083-2.634,1.986
			c-0.932,0.903-2.151,1.94-2.151,1.94l2.275-3.701l-4.81,7.01c0,0,1.258-3.489,1.508-4.082c0.25-0.594,1.78-3.058,1.78-3.058
			l-2.481,3.278l2.965-4.256l-3.139,4.273l2.808-4.261L18.978,13.5c0,0-0.252-0.077-0.229-0.25s2.424-3.174,2.424-3.174
			l-2.567,3.148c0,0-0.277-0.39-0.39-0.832c-0.112-0.443,0.546-2.092,0.546-2.092l-0.692,1.675c0,0-0.387-0.442-0.394-0.664
			c-0.007-0.223,0.69-2.345,0.69-2.345s-0.931,2.227-1.213,3.797c-0.119,0.663-0.123,1.185-0.091,1.576
			c-0.067-0.34-0.146-0.736-0.222-1.1c-0.179-0.858-0.049-2.116-0.175-3.097s-0.337-2.84-0.337-2.84s-0.073,0.78-0.095,1.997
			c-0.021,1.217,0.19,4.865,0.19,4.865s-1.073-1.938-1.156-2.238c-0.082-0.301,0.145-2.512,0.145-2.512l-0.253,2.18
			c0,0-0.06-0.1-0.104-0.314c-0.045-0.214,0.166-2.03,0.166-2.03l-0.257,1.882c0,0-0.422-1.927-0.604-2.709
			c-0.184-0.782-0.17-1.662-0.17-1.662l-0.069,0.611l-0.347-1.568l0.192,1.582l-0.539-1.827l0.567,2.623L13.38,6.651
			c0,0,0.613,1.904,0.729,2.459c0.116,0.554,0.297,2.362,0.297,2.362s-0.083-0.113-0.286-0.519
			c-0.202-0.405-1.288-3.722-1.288-3.722l0.599,2.112c0,0-0.195-0.369-0.273-0.558c-0.079-0.189-1.138-2.057-1.138-2.057
			l0.082,0.299l-0.292-0.46c0,0,1.602,3.152,1.853,3.79c0.252,0.639,1.073,2.313,1.17,2.778c0.098,0.464,1.269,2.309,1.269,2.309
			s-1.853-2.28-2.401-3.117c-0.548-0.837-2.917-4.558-2.917-4.558s0.556,0.967,2.568,4.201c2.013,3.235,3.81,4.875,3.81,4.875
			s-0.996-0.911-2.313-2.222c-1.315-1.311-3.991-6.03-3.991-6.03s0.404,0.811,1.737,3.144s3.531,4.858,3.531,4.858
			s-0.629-0.372-1.395-0.939c-0.768-0.567-1.248-1.082-2.128-2.093c-0.88-1.01-1.936-2.3-1.936-2.3s0.042,1.427,0.861,2.617
			c0.818,1.191,1.736,1.82,1.736,1.82l-3.029-1.513l3.884,2.025c0,0,1.208,0.699,2.156,1.098c0.948,0.398,1.705,0.539,1.655,0.68
			c-0.048,0.141-3.104,3.875-4.614,6.056c-1.512,2.181-4.778,6.687-4.778,6.687s-0.404,0.513-0.499,0.533s-0.105-0.221-0.105-0.221
			s-0.178,0.187-0.325,0.422c-0.146,0.236-0.154,0.294-0.154,0.294L7.3,31.681l-0.064,0.35l-0.094-0.167c0,0-0.099,0.281-0.71,1.212
			c-0.612,0.93-1.414,2.365-1.414,2.365s-0.064,0.256,0.048,0.512c0.113,0.257,0.898-0.598,1.204-1.016
			c0.306-0.419,1.266-1.756,1.315-1.805C7.633,33.085,8.106,32.8,8.106,32.8l-0.162-0.115l0.464-0.32l-0.094-0.074l0.31-0.213
			l-0.166-0.041l0.253-0.201l-0.199-0.015l0.241-0.255l-0.207-0.051c0,0,1.643-2.488,5.429-7.997
			c3.785-5.51,4.426-5.363,4.426-5.363s0.206,0.236,0.556,0.499c0.351,0.263,0.979,0.729,1.438,0.949
			c0.459,0.222,1.302,0.772,2.258,1.487c0.955,0.715,4.408,3.5,4.408,3.5s-2.027-1.796-2.96-2.497
			c-0.933-0.7-2.634-1.968-2.634-1.968s0.994,0.333,1.871,0.673c0.877,0.339,3.352,0.885,4.239,1.185
			c0.889,0.3,3.366,1.143,3.366,1.143s-1.603-0.803-2.345-1.151c-0.742-0.349-3.481-1.698-3.481-1.698l0.143-0.253l2.94,0.896
			l-2.541-0.868l4.255,0.79l-4.677-1.02c0,0,0.023-0.079,0.058-0.385s0.214-1.519,0.214-1.519l5.36-0.037l-5.359-0.149l0.125-0.529
			l4.208-0.096l-4.174-0.023c0,0,0.034-0.213,0.061-0.367c0.027-0.154-0.044-0.494-0.044-0.494s3.734-0.481,4.096-0.538
			C30.141,15.628,31.324,15.549,31.324,15.549z M19.318,13.943c0.068-0.144,0.487-0.773,0.487-0.773s-0.321,0.627-0.448,0.868
			c-0.127,0.24-0.363,0.757-0.363,0.757S19.25,14.088,19.318,13.943z M25.504,14.657c0.054,0.306,0.06,1.274,0.06,1.274
			s-0.357,0.13-0.705,0.203c-0.348,0.072-0.556,0.162-0.556,0.162s0.39-1.573,0.585-2.006c0.194-0.432,0.164-0.435,0.164-0.435
			l0.36-0.158C25.412,13.697,25.45,14.351,25.504,14.657z M20.653,18.925c0.137,0.046,0.777,0.285,0.903,0.324
			c0.126,0.039,0.706,0.226,0.919,0.302c0.212,0.077,0.818,0.296,0.818,0.296s-0.656-0.227-1.479-0.446
			c-0.822-0.221-1.991-0.778-1.991-0.778s0.355,0.103,0.495,0.204c0.139,0.101,0.971,0.366,0.971,0.366S20.516,18.879,20.653,18.925
			z M20.878,18.775c0,0,0.541,0.194,0.818,0.248c0.277,0.055,0.851,0.308,1.041,0.371c0.19,0.062,0.536,0.261,0.536,0.261
			s-1.038-0.361-1.389-0.484c-0.35-0.123-0.666-0.225-0.72-0.241C21.113,18.912,20.878,18.775,20.878,18.775z M21.507,19.576
			c0.602,0.294,1.481,0.642,1.481,0.642s-1.011-0.368-1.532-0.558c-0.522-0.189-1.657-0.828-1.657-0.828
			S20.905,19.282,21.507,19.576z M22.483,19.876c0,0,0.537,0.168,0.699,0.236s0.408,0.166,0.408,0.166s-0.328-0.108-0.44-0.132
			C23.037,20.124,22.483,19.876,22.483,19.876z M23.418,20.063c0,0,0.388,0.161,0.754,0.272c0.368,0.109,0.809,0.241,0.809,0.241
			l-0.028,0.1c0,0-0.551-0.184-0.898-0.298C23.706,20.264,23.418,20.063,23.418,20.063z M23.888,19.676l1.222,0.295l-0.091,0.271
			L23.888,19.676z M23.982,19.843c0,0-0.333-0.136-0.388-0.161c-0.055-0.026-0.094-0.121-0.094-0.121L23.982,19.843z M23.411,19.421
			c0,0-1.316-0.518-1.554-0.57c-0.238-0.054-0.932-0.365-1.181-0.425c-0.248-0.061-0.473-0.19-0.613-0.208
			c-0.142-0.017-0.516-0.163-0.516-0.163s1.616-0.076,2.131-0.109c0.514-0.032,2.052-0.009,2.052-0.009s0.004,0.205-0.006,0.347
			s-0.05,0.141-0.035,0.259c0.016,0.118-0.126,0.288-0.169,0.502C23.476,19.259,23.411,19.421,23.411,19.421z M21.544,17.824
			c-0.331,0.014-1.245,0.111-1.448,0.125c-0.203,0.016-0.902-0.035-0.902-0.035s0.21-0.034,0.381-0.108
			c0.172-0.073,0.377-0.125,0.535-0.121c0.158,0.005,0.97-0.016,0.97-0.016l-0.568-0.086c0,0,0.156-0.099,0.283-0.153
			c0.126-0.054,0.486-0.12,0.749-0.175c0.265-0.055,0.481-0.193,0.573-0.223c0.093-0.028,0.833-0.202,1.107-0.259
			c0.273-0.057,0.438-0.119,0.541-0.141c0.104-0.021,0.424-0.089,0.424-0.089l-0.369,1.243
			C23.818,17.788,21.876,17.811,21.544,17.824z M19.817,17.56c0,0,0.2-0.033,0.377-0.079c0.178-0.046,0.354-0.14,0.525-0.175
			c0.168-0.035,1.228-0.284,1.228-0.284s-0.023,0.079-0.232,0.113c-0.21,0.034-0.604,0.126-0.853,0.206
			c-0.248,0.08-0.229,0.169-0.422,0.19C20.249,17.554,19.817,17.56,19.817,17.56z M22.574,16.732c-0.765,0.15-0.765,0.15-0.765,0.15
			s0.232-0.16,0.749-0.324c0.517-0.163,1.176-0.394,1.176-0.394l-1.786,0.531l1.668-0.581c0,0-1.367,0.425-1.696,0.494
			c-0.33,0.069-1.265,0.488-1.755,0.684c-0.49,0.195-0.695,0.248-0.695,0.248s1.645-0.782,2.318-0.95
			c0.673-0.169,1.479-0.449,1.479-0.449s-1.373,0.296-1.717,0.396c-0.343,0.1-0.399,0.065-0.399,0.065s0.375-0.274,1.137-0.583
			c0.762-0.308,1.826-0.577,1.826-0.577s-1.735,0.399-2.185,0.605c-0.448,0.205-1.296,0.615-1.296,0.615l0.574-0.446
			c0,0-0.533,0.363-0.599,0.377s-0.068-0.041-0.068-0.041s0.958-0.592,1.213-0.785s1.084-0.692,1.635-1.023
			c0.551-0.329,1.513-0.81,1.513-0.81s-0.219,0.698-0.409,1.194c-0.191,0.497-0.257,1.22-0.257,1.22S23.34,16.582,22.574,16.732z
			 M25.406,13.53l-0.343,0.193c0,0,0.034-0.073,0.09-0.178c0.058-0.105,0.179-0.607,0.179-0.607L25.406,13.53z M25.582,10.369
			c0,0-0.02,0.518-0.055,0.916c-0.034,0.399-0.201,0.825-0.201,0.825s-0.077-0.842-0.124-1.064
			c-0.046-0.224-0.074-0.358-0.074-0.358L25.582,10.369z M20.535,14.78c0.192-0.208,0.521-0.565,0.521-0.565
			s-0.347,0.511-0.573,0.791c-0.227,0.28-0.423,0.471-0.423,0.471S20.343,14.988,20.535,14.78z M18.613,15.704
			c0,0-0.201,0.069-0.243,0.013c-0.041-0.057-0.038-0.094-0.038-0.094s0.087-0.335,0.146-0.478c0.059-0.143,0.042-0.223,0.042-0.223
			s0.087,0.038,0.092,0.205C18.617,15.293,18.613,15.704,18.613,15.704z M18.764,15.197c0.01-0.096,0.069-0.09,0.069-0.09
			l0.123,0.021l-0.238,0.507C18.718,15.635,18.754,15.292,18.764,15.197z M18.655,13.877c0,0,0.008,0.048,0.016,0.11
			c0.023,0.162,0.063,0.453,0.049,0.483c-0.021,0.041-0.349,0.548-0.349,0.548s0.211-0.407,0.287-0.554
			c0.054-0.102,0.031-0.338,0.012-0.477C18.662,13.923,18.655,13.877,18.655,13.877z M18.101,12.538l0.383,0.703l-0.556,0.069
			c0,0,0.021-0.088,0.075-0.202C18.058,12.994,18.101,12.538,18.101,12.538z M17.454,12.644c0,0-0.021,0.228,0.011,0.567
			c0.031,0.339,0.003,1.053,0.003,1.053s-0.061-0.481-0.077-0.701C17.373,13.343,17.454,12.644,17.454,12.644z M17.364,12.542
			c0,0-0.104,0.917-0.074,1.2c0.029,0.283,0.049,0.941,0.049,0.941s-0.082-0.627-0.111-0.91S17.364,12.542,17.364,12.542z
			 M16.315,11.194c-0.058-1.266,0.058-2.408,0.058-2.408s0.07,1.468,0.128,2.071s0.082,2.044,0.202,2.615
			c0.119,0.572,0.614,2.567,0.614,2.567s-0.232-0.455-0.263-0.552c-0.029-0.096-0.109-0.48-0.268-0.671
			c-0.158-0.191-0.271-0.634-0.271-0.634S16.373,12.46,16.315,11.194z M17.032,15.801c0,0-0.355-0.568-0.445-0.671
			c-0.091-0.103-0.143-0.446-0.143-0.446s0.183,0.354,0.293,0.554C16.848,15.438,17.032,15.801,17.032,15.801z M16.071,13.745
			c0.12,0.245,0.377,0.769,0.377,0.769s-0.486-0.727-0.588-0.884c-0.102-0.156-0.404-0.812-0.404-0.812S15.951,13.5,16.071,13.745z
			 M15.406,12.961c0.101,0.249,0.711,1.521,0.711,1.521s-0.755-1.213-0.775-1.311c-0.021-0.099-0.127-0.607-0.127-0.607
			S15.306,12.711,15.406,12.961z M14.256,8.864c0,0,0.291,1.395,0.375,1.796c0.084,0.402,0.626,2.48,0.626,2.48
			s-0.646-1.264-0.716-1.595C14.472,11.216,14.256,8.864,14.256,8.864z M15.56,14.122c-0.162-0.265-0.574-0.962-0.586-1.016
			c-0.011-0.054-0.188-0.482-0.188-0.482s0.543,0.903,0.867,1.423c0.325,0.52,0.968,1.71,0.968,1.71S15.724,14.387,15.56,14.122z
			 M16.938,16.343c-0.085-0.122-0.177-0.42-0.177-0.42s0.142,0.157,0.28,0.398c0.139,0.241,0.358,0.54,0.358,0.54
			S17.023,16.465,16.938,16.343z M16.054,16.108c0,0,0.215,0.179,0.389,0.31c0.176,0.131,0.562,0.479,0.562,0.479
			s-0.319-0.214-0.476-0.349C16.373,16.414,16.054,16.108,16.054,16.108z M10.729,11.372c0,0,0.181,0.299,0.927,1.187
			c0.745,0.889,1.439,1.761,2.475,2.673c1.036,0.912,2.681,1.864,2.681,1.864l-0.038,0.055c0,0-1.295-0.457-2.561-1.293
			s-2.083-1.738-2.649-2.422c-0.564-0.684-0.493-0.671-0.493-0.671s-0.2-0.629-0.277-0.949
			C10.715,11.497,10.729,11.372,10.729,11.372z M13.328,15.725c0,0-1.218-0.985-1.719-1.785c-0.502-0.801-0.558-1.115-0.558-1.115
			s0.552,0.901,1.474,1.735c0.921,0.833,1.865,1.54,2.774,1.984c0.908,0.444,1.091,0.519,1.091,0.519l-1.301-0.438L13.328,15.725z
			 M15.782,17.022l-0.719-0.335c0,0,2.072,0.743,2.275,0.822c0.203,0.078,0.273,0.176,0.273,0.176S16.562,17.363,15.782,17.022z
			 M17.552,12.643c-0.072-0.349,0.089-0.989,0.089-0.989l0.269,0.485c0,0-0.09,0.513-0.124,0.632
			C17.751,12.89,17.625,12.991,17.552,12.643z M17.764,13.42c0.099-0.469,0.233-1,0.233-1l-0.12,0.603
			C17.877,13.022,17.665,13.887,17.764,13.42z M17.923,15.83c0,0-0.113-0.21-0.138-0.373c-0.023-0.163,0.134-0.493,0.134-0.493
			s0.082,0.346,0.111,0.535S17.923,15.83,17.923,15.83z M18.118,14.697c-0.027,0.1-0.044,0.401-0.044,0.401s-0.052-0.297-0.05-0.335
			c0.002-0.037,0.158-0.275,0.158-0.275S18.146,14.598,18.118,14.697z M18.202,17.03c-0.015-0.071,0.031-0.138,0.056-0.207
			c0.024-0.071-0.044-0.262-0.047-0.317c-0.001-0.056,0.036-0.203,0.064-0.209s0.251,0.021,0.251,0.021s0.024,0.163-0.025,0.305
			c-0.049,0.141-0.212,0.678-0.212,0.678S18.218,17.101,18.202,17.03z M18.348,17.634l0.433-0.473c0,0-0.081,0.129-0.185,0.244
			C18.491,17.52,18.377,17.628,18.348,17.634z M18.448,17.734c0,0,0.443-0.652,1.171-1.55c0.727-0.898,2.037-2.58,3.162-3.552
			c1.124-0.972,2.244-1.821,2.244-1.821s0.194,1.303,0.224,1.446c0.029,0.143-0.208,1.171-0.219,1.305
			c-0.013,0.133-0.02,0.19-0.02,0.19s-1.445,0.796-2.102,1.185c-0.656,0.39-1.541,1.003-1.892,1.207
			C20.666,16.347,18.448,17.734,18.448,17.734z M19.92,18.285c0.373,0.09,1.312,0.443,1.312,0.443s-0.707-0.226-1.136-0.351
			c-0.43-0.124-1.137-0.266-1.137-0.266S19.548,18.195,19.92,18.285z M19.083,18.515c0,0,0.734,0.406,1.306,0.744
			c0.572,0.337,2.089,0.822,2.089,0.822s-1.309-0.38-1.831-0.625C20.123,19.213,19.083,18.515,19.083,18.515z M24.759,21.163
			c0,0-0.714-0.168-1.833-0.587c-1.121-0.419-2.438-1.029-2.438-1.029s2,0.767,2.66,0.965c0.661,0.197,1.74,0.514,1.74,0.514
			L24.759,21.163z M27.413,21.681c0.199,0.061,0.275,0.139,0.275,0.139l-0.804-0.317C26.885,21.503,27.214,21.621,27.413,21.681z
			 M24.906,21.207c0,0,0.084-0.157,0.108-0.181l0.004-0.029c0,0,0.102,0.109,0.215,0.179c0.112,0.07,1.378,0.478,1.378,0.478
			L24.906,21.207z M26.416,21.33c0,0-0.49-0.131-0.688-0.183c-0.197-0.053-0.647-0.275-0.647-0.275s0.939,0.308,1.1,0.367
			C26.341,21.3,26.416,21.33,26.416,21.33z M25.931,20.984l-0.891-0.309l0.004-0.075L25.931,20.984z M25.155,19.765
			c0,0-0.132-0.019-0.271-0.074c-0.14-0.055-1.382-0.262-1.382-0.262l0.391-1.518l1.515,0.001L25.155,19.765z M25.599,16.755
			c-0.02,0.236-0.075,0.631-0.118,0.705c-0.044,0.074-0.043,0.316-0.043,0.316l-1.523,0.048l0.347-1.304l1.317-0.238
			C25.578,16.282,25.617,16.517,25.599,16.755z"/>
	</g>
</g>
</svg>
