<?xml version="1.0" encoding="utf-8"?>
<!-- Generator: Adobe Illustrator 17.0.0, SVG Export Plug-In . SVG Version: 6.00 Build 0)  -->
<!DOCTYPE svg PUBLIC "-//W3C//DTD SVG 1.1//EN" "http://www.w3.org/Graphics/SVG/1.1/DTD/svg11.dtd">
<svg version="1.1" id="Laag_1" xmlns="http://www.w3.org/2000/svg" xmlns:xlink="http://www.w3.org/1999/xlink" x="0px" y="0px"
	 width="595.28px" height="841.89px" viewBox="0 0 595.28 841.89" enable-background="new 0 0 595.28 841.89" xml:space="preserve">
<ellipse fill="#C6C6C6" cx="172.678" cy="602.169" rx="85.471" ry="84.94"/>
<g>
	<path fill="#C6C6C6" d="M445.643,692.085c0,0-80.643-1.085-84.992-118.482C372.5,445,445.643,455.12,445.643,455.12
		C474,557.5,445.643,692.085,445.643,692.085z"/>
	<path fill="#C6C6C6" d="M440.412,492.184c0,0,48.404-7.293,40.246,78.262c-11.822,29.153-24.253,74.519-38.203,76.378
		L440.412,492.184z"/>
</g>
<rect x="411.607" y="71.874" fill="#C6C6C6" width="170.758" height="162.71"/>
<rect x="84.115" y="142.989" fill="#C6C6C6" width="264.647" height="213.544"/>
<g>
	<path fill="none" stroke="#000000" stroke-miterlimit="10" d="M92.313,356.752c-0.226-0.055-0.115-0.149-0.345-0.206l-4.491,0.886
		C89.485,357.935,90.99,356.417,92.313,356.752"/>
	<path fill="none" stroke="#000000" stroke-miterlimit="10" d="M93.636,356.843c1.741,0.207,2.465-0.21,2.87-0.35
		C95.896,356.815,93.255,356.393,93.636,356.843"/>
	<path fill="none" stroke="#000000" stroke-miterlimit="10" d="M247.05,356.636l-0.54,0.028
		C246.783,356.677,246.958,356.664,247.05,356.636"/>
	<path fill="none" stroke="#000000" stroke-miterlimit="10" d="M287.077,355.222l0.418-0.333c-7.467,0.593-15.892-0.01-23.791,0.248
		l0.534-0.117c-20.044-0.128-38.527,0.427-58.412,0.679c0.31-0.035,0.415-0.133,0.734-0.172c-0.959,0.115-2.022,0.329-3.1,0.299
		c-0.279-0.073,0.302-0.153,0.649-0.187c-4.199-0.549-12.336,0.348-14.961-0.075c-1.181,0.058-1.701,0.287-1.043,0.461
		c-15.564,0.142-32.215,0.245-48.067,0.676c-0.765-0.074-0.903-0.223-0.692-0.413c-13.551,0.891-27.752,0.536-41.615,0.391
		c-0.531,0.234,1.414,0.248,0.048,0.491c4.458,0.293,8.164-0.573,12.208-0.148l-0.521,0.227c2.941,0.144,0.597-0.57,3.649-0.279
		c1.203,0.19-0.302,0.287,0.26,0.305c6.25-0.094,12.771,0.111,18.658-0.438c1.454,0.49,6.718,0.016,9.028,0.485
		c1.617-0.193,3.239-0.143,3.855-0.469c21.879,0.26,44.232-0.215,66.646-0.18c10.489-0.947,23.051,0.184,35.5-0.134
		c0.088,0.034,0.071,0.068-0.013,0.096c4.06-0.233,9.974-0.344,14.817-0.227l4.103-0.401c13.453,0.38,27.042,0.462,40.687,0.474
		l42.105,0.051l0.065-7.921c0.238-33.642,0.92-63.116-0.33-95.879c0.092,0.043,0.145-0.221,0.184,0.624
		c-0.191-9.456,0.15-18.069-0.049-26.974l0.094,0.028c-0.783-22.092,0.105-45.987-0.738-67.285l0.029-15.93l-33.773,0.059
		l-33.67,0.215l0.064-0.188c-21.962,0.396-43.182-0.601-65.095-0.299c-22.534-0.429-46.34,1.077-69.065,0.505
		c-14.061-0.923-32.529,1.057-45.737,0.099l-8.058-0.36l-4.015-0.135l-4.552-0.102l-0.126,8.612l-0.026,8.045
		c0.014,5.358,0.082,10.711,0.188,16.069c0.21,10.716,0.565,21.458,0.912,32.33c-0.515,25.026,0.807,50.013-0.242,74.248
		c0.672,11.485-0.832,24.167-0.639,36.946l0.232-0.455c-0.706,4.587,0.99,10.22-0.061,13.083l-0.047-0.483
		c-0.535,2.43,1.256,5.642,0.621,7.117l0.264,0.394c0.076,2.94-0.299,0.347-0.405,2.616c0.034,0.853,0.481,0.324,0.329,2.106
		c-1.078,0.385,0.234,7.201-0.978,7.405c0-1.609-0.468,2.52-0.723-1.092c-0.124,1.03-0.063,5.957,0.45,5.515
		c0.546,0.42,1.021,2.345,1.443-0.65l-0.397-0.602c0.397-1.008,0.198-0.767,0.496-1.127c0.053-3.913,0.631-4.437,0.87-7.243
		c-0.012,0.028-0.023,0.055-0.044,0.013c-0.477-1.918-0.192-4.571-0.125-6.09l0.222-0.609c0.463-0.923-0.904-4.45-0.111-3.262
		c-0.197-7.954-0.187-17.075-0.197-25.965c-0.301-1.245,0.027-6.805-0.554-4.863c0.663-2.225,0.831-8.841,0.806-11.297
		c0.062,0.092,0.133,0.197,0.107,0.581c0.86-4.765-0.796-5.647,0.255-10.114c-0.741-0.697,0.238-8.112-0.635-10.638
		c0.165-0.552,0.313-0.734,0.446-0.534c0.017-8.039,0.283-16.92,0.318-23.724c-0.651-5.811,0.295-14.072-0.605-19.07
		c0.191-4.142,0.566-10.841,0.205-16.623l0.111,0.561c-0.054-6.522-0.1-14.671-0.666-19.146c0.86-1.929,0.688-4.747,0.965-7.568
		c-0.398-4.354-0.282-13.145-0.645-19.79c0.397-1.019-0.169-5.483,0.409-5.824c-0.172-2.881-0.31-5.867-0.413-8.93l-0.221-8.149
		l1.437-0.031l2.701-0.017l5.445,0.001l10.962,0.13c7.304,0.14,14.543,0.377,21.407,0.667l-0.288,0.04
		c2.58-0.317,5.553-1.016,8.178-1.425c0.258,0.05,0.229,0.146-0.323,0.143c3.632-0.108,7.028,0.46,10.654,0.353
		c-0.029,0.097-0.029,0.097-0.617,0.187c3.403-0.257,7.033,0.462,11.051,0.015l0.226,0.153l2.554-0.214
		c-0.063,0.191-0.161,0.477-1.526,0.416c31.174,0.185,63.354-0.805,95.358-0.662l-1.174,0.181l6.207-0.324
		c-0.033,0.097-0.328,0.143-0.626,0.187c7.904,0.324,16.109-0.216,23.813-0.134c-0.038,0.093-1.202,0.277-0.126,0.382
		c5.703-0.521,9.162,0.676,12.017-0.404c0.266,0.051,0.445,0.293-0.135,0.381c15.868-0.359,32.159-0.339,48.145-0.164l5.662-0.337
		l0.064,1.507l0.047,2.097l0.049,4.429l0.01,8.966c0,5.996,0.033,12.003,0.361,17.823l-0.195-0.069
		c0.684,17.904-0.047,36.895,0.09,55.451c-0.078,7.707,0.152,12.912,0.164,20.655l-0.242,0.194
		c0.926,13.032-0.832,27.395,0.188,40.992l-0.332-0.938c0.512,2.109-0.18,8.225,0.697,7.421l-0.268,2.4
		c1.16,9.238-0.533,16.813,0.219,28.133l-0.209-0.743c0.162,3.009,0.289,6.519,0.1,8.749c-0.029-0.348-0.09-0.186-0.146-0.901
		c-0.209,2.393-0.307,4.855-0.336,7.358c-0.029,2.466,0.008,5.231,0.072,7.178l-7.037,0.212c-2.49,0.066-4.971,0.115-7.42,0.108
		l1.129-0.388c-4.809,0.455-13.627,0.032-19.947,0.239l0.385-0.181l-3.197,0.257l-0.084-0.368
		C302.842,354.861,295.103,355.178,287.077,355.222"/>
	<path fill="none" stroke="#000000" stroke-miterlimit="10" d="M204.109,355.64c0.023,0.003,0.06,0.003,0.088,0.012
		C204.442,355.619,204.322,355.622,204.109,355.64"/>
	<path fill="none" stroke="#000000" stroke-miterlimit="10" d="M86.351,344.814l-0.074,1.009
		C86.351,345.745,86.335,345.137,86.351,344.814"/>
</g>
<g>
	<defs>
		<rect id="SVGID_1_" x="411.608" y="71.874" width="169.55" height="162.71"/>
	</defs>
	<clipPath id="SVGID_2_">
		<use xlink:href="#SVGID_1_"  overflow="visible"/>
	</clipPath>
	<path clip-path="url(#SVGID_2_)" fill="#020203" d="M413.305,120.979c0.003,0.113,0.015,0.263,0.026,0.376
		C413.345,121.165,413.331,121.043,413.305,120.979"/>
	<path clip-path="url(#SVGID_2_)" fill="#020203" d="M411.887,93.1l-0.333-0.292c0.593,5.201-0.012,11.07,0.248,16.571l-0.116-0.372
		c-0.13,13.961,0.427,26.835,0.68,40.685c-0.036-0.216-0.133-0.289-0.172-0.512c0.116,0.668,0.329,1.409,0.3,2.159
		c-0.074,0.195-0.154-0.21-0.188-0.451c-0.551,2.924,0.35,8.591-0.075,10.42c0.058,0.822,0.288,1.186,0.463,0.727
		c0.14,10.84,0.246,22.438,0.677,33.48c-0.076,0.53-0.225,0.627-0.415,0.481c0.895,9.438,0.538,19.33,0.394,28.986
		c0.234,0.37,0.249-0.985,0.492-0.034c0.293-3.105-0.575-5.686-0.147-8.502l0.225,0.361c0.147-2.048-0.57-0.415-0.278-2.54
		c0.189-0.838,0.288,0.209,0.306-0.181c-0.093-4.354,0.111-8.896-0.44-12.996c0.491-1.013,0.017-4.678,0.486-6.288
		c-0.193-1.126-0.144-2.257-0.47-2.684c0.259-15.24-0.216-30.81-0.181-46.421c-0.95-7.306,0.184-16.055-0.136-24.726
		c0.034-0.06,0.07-0.05,0.098,0.008c-0.235-2.826-0.345-6.945-0.228-10.319l-0.401-2.858c0.237-5.849,0.358-11.735,0.42-17.643
		l0.052-8.88l0.002-7.865h12.082c4.376,0.012,8.751,0.043,13.119,0.117c23.432,0.237,43.959,0.923,66.775-0.332
		c-0.028,0.092,0.155,0.144-0.432,0.183c6.584-0.192,12.584,0.15,18.785-0.049l-0.02,0.094c15.389-0.785,32.029,0.105,46.863-0.742
		l10.518,0.031l0.059,22.947l0.213,23.451l-0.188-0.045c0.397,15.296-0.603,30.077-0.303,45.34
		c-0.43,15.694,1.082,32.274,0.51,48.104c-0.309,3.248-0.295,6.833-0.176,10.51l0.234,5.554l0.125,2.77l0.107,2.979l-2.963,0.065
		c-0.894,0.013-1.775,0.016-2.639,0.004c-1.723-0.022-3.377-0.1-4.925-0.262c-18.899-1.447-37.232-0.515-56.125,0.352
		c-17.431-0.516-34.833,0.809-51.712-0.243c-8,0.674-16.833-0.836-25.734-0.641l0.318,0.233c-3.194-0.709-7.118,0.993-9.112-0.06
		l0.336-0.049c-1.692-0.536-3.927,1.26-4.956,0.624l-0.273,0.264c-2.049,0.076-0.242-0.3-1.822-0.405
		c-0.596,0.034-0.227,0.481-1.467,0.33c-0.27-1.082-5.018,0.234-5.158-0.98c1.121,0-1.755-0.472,0.76-0.726
		c-0.717-0.124-4.147-0.064-3.84,0.452c-0.293,0.546-1.634,1.023,0.452,1.447l0.42-0.399c0.702,0.399,0.534,0.2,0.785,0.498
		c2.724,0.053,3.089,0.632,5.044,0.873c-0.02-0.012-0.039-0.023-0.01-0.043c1.338-0.479,3.186-0.195,4.242-0.126l0.424,0.221
		c0.643,0.465,3.101-0.906,2.271-0.11c5.542-0.198,11.893-0.189,18.084-0.198c0.867-0.302,4.74,0.028,3.388-0.555
		c1.55,0.664,6.156,0.833,7.866,0.807c-0.062,0.063-0.135,0.133-0.403,0.109c3.317,0.862,3.935-0.799,7.044,0.256
		c0.486-0.745,5.649,0.238,7.41-0.638c0.384,0.165,0.512,0.316,0.371,0.447c5.6,0.017,11.785,0.286,16.523,0.32
		c4.047-0.653,9.801,0.296,13.283-0.607c2.885,0.192,7.55,0.568,11.577,0.206l-0.392,0.11c4.544-0.053,10.22-0.1,13.335-0.667
		c1.343,0.864,3.308,0.692,5.272,0.968c3.032-0.401,9.154-0.283,13.783-0.647c0.711,0.398,3.818-0.169,4.058,0.411
		c5.175-0.446,10.839-0.652,16.659-0.685c2.908-0.016,5.856,0.011,8.802,0.073l10.335,0.283l0.1-3.51l0.053-1.317l0.057-1.08
		l0.24-4.251l0.041,0.201c-0.32-1.797-1.021-3.868-1.432-5.696c0.051-0.18,0.146-0.159,0.144,0.224
		c-0.109-2.529,0.461-4.894,0.354-7.42c0.098,0.021,0.098,0.021,0.189,0.43c-0.258-2.37,0.463-4.899,0.014-7.697l0.154-0.156
		l-0.215-1.78c0.19,0.043,0.477,0.112,0.416,1.062c0.186-21.712-0.807-44.125-0.662-66.417l0.18,0.818l-0.324-4.323
		c0.098,0.023,0.144,0.229,0.188,0.436c0.324-5.506-0.215-11.22-0.135-16.586c0.094,0.025,0.277,0.837,0.385,0.086
		c-0.523-3.972,0.676-6.38-0.408-8.37c0.051-0.184,0.295-0.311,0.383,0.094c-0.359-11.052-0.34-22.399-0.164-33.533l-0.105-1.106
		l-0.049-0.556l-0.043-0.661l-0.143-2.927l-3.814,0.112l-3.086,0.05l-6.243,0.01c-4.177,0.001-8.36,0.033-12.415,0.361l0.049-0.195
		c-12.469,0.686-25.697-0.047-38.621,0.09c-5.367-0.078-8.993,0.153-14.385,0.165l-0.137-0.243
		c-9.075,0.928-19.078-0.834-28.549,0.187l0.654-0.332c-1.469,0.514-5.73-0.181-5.168,0.699l-1.673-0.266
		c-6.434,1.163-11.71-0.537-19.594,0.217l0.518-0.208c-2.097,0.162-4.54,0.29-6.093,0.099c0.242-0.03,0.129-0.092,0.627-0.146
		c-6.566-0.828-13.873,0.085-20.801,0.054l0.785-0.388c-1.432,0.194-3.379,0.229-5.478,0.22l-3.227-0.031l-3.512-0.005
		c0.009,0.789,0.026,1.555,0.056,2.262l-0.183-0.354c0.086,0.943,0.172,1.616,0.259,2.37l-0.369,0.058
		C411.525,82.119,411.843,87.509,411.887,93.1"/>
</g>
<g>
	<path d="M360.236,578.386c0.031-0.154,0.098-0.082,0.131-0.239l-0.654-3.066C359.393,576.466,360.432,577.477,360.236,578.386"/>
	<path d="M360.205,579.294c-0.092,1.199,0.207,1.682,0.316,1.954C360.281,580.841,360.494,579.023,360.205,579.294"/>
	<path d="M399.359,674.119l-0.285-0.237C399.207,674.015,399.301,674.09,399.359,674.119"/>
	<path d="M422.824,687.985l0.346-0.104c-4.881-1.481-9.787-4.56-14.281-7.465l0.344,0.142c-5.6-3.868-10.549-8.197-15.053-12.94
		c-4.5-4.747-8.555-9.915-12.221-15.626c0.131,0.167,0.225,0.193,0.361,0.364c-0.412-0.513-0.916-1.055-1.279-1.694
		c-0.059-0.188,0.193,0.122,0.336,0.312c-1.207-2.607-4.377-7.195-4.902-8.946c-0.393-0.703-0.689-0.954-0.594-0.5
		c-4.828-9.489-8.682-20.268-11.42-30.778c-0.072-0.52,0.006-0.635,0.162-0.523c-2.68-8.907-3.795-18.662-4.185-28.137
		c-0.176-0.356-0.117,0.977-0.326,0.051c-0.029,3.071,0.746,5.559,0.746,8.34l-0.188-0.339c0.115,2.018,0.414,0.367,0.455,2.468
		c-0.033,0.835-0.215-0.183-0.184,0.2c0.557,4.253,3.199,17.108,3.277,18.72c0.383,1.05,0.625,2.139,0.941,2.492
		c3.572,14.576,9.83,28.838,18.385,41.621c2.266,2.811,4.584,5.996,7.172,9.206c2.586,3.2,5.453,6.428,8.693,9.227
		c0.027,0.056,0.006,0.067-0.051,0.042c2.16,1.775,5.334,4.302,8.016,6.276c0.814,0.475,1.643,0.925,2.471,1.368
		c8.17,5.728,17.822,9.704,27.941,11.041c10.11,1.377,20.554,0.133,30.155-3.311c10.924-3.959,20.096-10.302,27.783-17.85
		c7.686-7.589,13.947-16.465,18.871-26.541c0.041,0.055,0.158-0.089-0.094,0.434c2.949-5.762,5.551-11.076,7.562-16.838l0.051,0.039
		c2.396-7.177,4.568-14.737,6.143-22.371c1.58-7.627,2.553-15.318,2.725-22.59c0.582-8.826,0.465-18.285-0.537-27.788
		c-0.99-9.502-2.877-19.04-5.57-27.999l0.135,0.007c-2.217-7.154-4.703-14.096-7.742-20.81c-3.043-6.705-6.633-13.197-11.092-19.223
		c-4.379-6.342-9.832-12.215-15.979-17.223c-6.146-5.018-12.965-9.158-20.049-12.289c-4.31-2.133-9.768-3.576-15.203-4.172
		c-5.447-0.63-10.822-0.442-15.319-0.281c-9.26,0.479-18.233,3.507-26.086,8.19c-7.889,4.685-14.723,10.941-20.602,18.032
		c-5.76,6.271-10.461,13.456-14.381,20.911c-3.928,7.468-7.092,15.217-9.949,22.961c-1.959,7.553-4.943,15.738-6.096,24.422
		l0.201-0.285c-0.949,3.037-0.254,6.987-1.129,8.854l-0.002-0.33c-0.524,1.621,0.502,3.9,0.016,4.867l0.158,0.279
		c-0.078,1.999-0.217,0.223-0.379,1.761c-0.014,0.582,0.307,0.237,0.145,1.442c-0.752,0.233-0.021,4.903-0.816,5.023
		c0.02-1.1-0.348,1.719-0.469-0.756c-0.111,0.703-0.092,4.08,0.258,3.776c0.365,0.287,0.682,1.597,0.967-0.441l-0.264-0.411
		c0.27-0.683,0.135-0.521,0.336-0.764c0.07-2.659,0.475-3.005,0.699-4.898c-0.008,0.02-0.016,0.037-0.027,0.008
		c-0.275-1.311,0.016-3.1,0.123-4.123l0.176-0.402c0.344-0.6-0.383-3.053,0.086-2.208c0.285-5.383,1.07-11.525,2.193-17.442
		c-0.055-0.871,0.934-4.518,0.283-3.309c0.729-1.394,1.865-5.72,2.295-7.326c0.023,0.071,0.053,0.151-0.031,0.398
		c1.387-2.955,0.49-3.836,2.043-6.524c-0.352-0.61,1.836-5.159,1.904-6.95c0.234-0.312,0.369-0.394,0.406-0.235
		c1.881-5.102,4.49-10.511,6.617-14.569c1.381-3.716,4.752-8.198,6.119-11.32c1.633-2.281,4.447-5.809,6.738-8.963l-0.184,0.341
		c2.719-3.459,6.482-7.445,8.451-9.764c1.34-0.472,2.666-1.821,4.24-2.893c1.033-1.039,2.73-2.452,4.66-3.88
		c1.922-1.435,4.084-2.863,5.959-4.084c0.713-0.126,3.176-1.877,3.566-1.617c5.379-3.16,12.066-5.641,19.109-6.648
		c7.04-1.044,14.354-0.592,20.794,0.986l-0.193-0.01c1.727,0.117,3.777,0.131,5.564,0.36c0.158,0.083,0.121,0.135-0.238,0.032
		c2.387,0.61,4.434,1.718,6.715,2.576c-0.043,0.051-0.043,0.051-0.432-0.042c2.197,0.7,4.213,2.152,6.73,3.156l0.084,0.162
		l1.572,0.708c-0.1,0.091-0.252,0.221-1.029-0.26c9.139,5.096,17.363,12.132,24.32,20.346c6.965,8.219,12.688,17.607,17.008,27.561
		l-0.434-0.68c0.635,1.251,1.254,2.512,1.855,3.783c-0.068,0.003-0.174-0.169-0.277-0.345c1.848,5.026,4.002,10.17,5.387,15.22
		c-0.064-0.006-0.4-0.732-0.268-0.01c1.397,3.632,1.16,6.104,2.301,7.822c0.006,0.184-0.125,0.339-0.268-0.032
		c2.654,10.428,4.004,21.486,4.156,32.329c0.904,9.041-0.234,19.15-1.1,28.51l-0.123-0.064c-1.295,12.141-5.07,24.653-9.869,36.309
		c-2.094,4.803-3.484,8.069-6,12.703l-0.207,0.037c-1.871,4.032-4.471,7.938-7.324,11.678c-2.853,3.748-5.955,7.324-8.896,10.904
		l0.275-0.615c-0.709,1.306-4.016,3.879-3.223,3.912l-1.316,0.988c-2.057,2.414-4.344,4.193-6.859,5.904
		c-2.529,1.709-5.279,3.361-8.529,5.45l0.373-0.368c-1.727,1.103-3.842,2.246-5.281,2.751c0.209-0.114,0.09-0.108,0.518-0.346
		c-3.022,1.104-6.16,2.322-9.424,3.357c-3.262,1.033-6.65,1.881-10.018,2.264l0.729-0.352c-1.596,0.368-3.906,0.598-6.35,0.641
		c-2.443,0.059-5.01-0.083-7.154-0.209l0.27-0.098c-0.724-0.006-1.45-0.024-2.175-0.055l-0.027-0.25
		C433.08,691.131,427.912,689.976,422.824,687.985"/>
	<path d="M381.377,650.976c0.006,0.015,0.019,0.035,0.023,0.055C381.508,651.163,381.463,651.094,381.377,650.976"/>
	<path d="M362.312,565.952l-0.076,0.68C362.287,566.582,362.293,566.17,362.312,565.952"/>
</g>
<g>
	<path d="M175.986,688.301c-0.13-0.032-0.07-0.098-0.201-0.13c-0.84,0.236-1.687,0.467-2.537,0.677
		C174.408,689.163,175.229,688.11,175.986,688.301"/>
	<path d="M176.74,688.319c0.998,0.078,1.39-0.233,1.61-0.345C178.021,688.22,176.508,688.035,176.74,688.319"/>
	<path d="M247.123,643.396l-0.133,0.277C247.072,643.543,247.113,643.452,247.123,643.396"/>
	<path d="M254.277,622.005l-0.164-0.279c-0.555,4.18-2.359,8.597-3.875,12.75l0.039-0.307c-4.312,10.356-9.771,19.39-17.424,27.601
		c0.105-0.143,0.098-0.231,0.204-0.378c-0.315,0.443-0.635,0.97-1.078,1.388c-0.144,0.078,0.048-0.192,0.168-0.347
		c-1.889,1.441-4.897,4.94-6.249,5.647c-0.486,0.453-0.621,0.757-0.259,0.612c-6.741,5.663-14.92,10.533-23.233,14.005
		c-0.422,0.111-0.531,0.041-0.465-0.118c-6.979,3.293-15.05,4.909-22.889,5.463c-0.288,0.183,0.816,0.1,0.056,0.325
		c2.56-0.025,4.578-0.875,6.889-0.97l-0.268,0.197c1.67-0.19,0.273-0.423,2.015-0.545c0.697-0.003-0.133,0.221,0.183,0.173
		c3.489-0.727,7.144-1.535,10.22-2.922c0.897,0.07,3.62-1.224,4.953-1.427c0.814-0.455,1.68-0.781,1.918-1.117
		c11.568-4.672,22.032-12.463,30.527-21.918c3.5-4.812,8.332-10.121,11.523-16.48c0.043-0.032,0.061-0.012,0.055,0.038l3.505-7.639
		c0.216-0.75,0.426-1.5,0.624-2.253c3.253-7.575,5.201-15.821,5.851-24.183c0.656-8.366,0.071-16.842-1.599-25.077
		c-1.955-9.346-5.234-17.834-9.744-25.531c-4.522-7.683-10.302-14.603-17.535-20.435c0.06-0.028-0.03-0.155,0.345,0.144
		c-4.091-3.453-7.908-6.538-12.287-9.068l0.047-0.046c-5.476-3.05-11.368-5.844-17.485-7.904
		c-6.105-2.067-12.422-3.383-18.428-3.711c-7.27-0.776-15.132-0.61-22.918,0.721c-7.787,1.322-15.472,3.817-22.406,7.225
		l-0.021-0.13c-5.528,2.778-10.769,5.901-15.648,9.549c-4.875,3.642-9.389,7.814-13.29,12.628
		c-4.206,4.788-7.716,10.398-10.522,16.307c-2.818,5.915-4.927,12.123-6.627,18.285c-1.244,3.775-1.859,8.362-2.062,12.872
		c-0.216,4.519-0.038,8.949-0.124,12.671c-0.011,7.649,1.399,15.202,3.943,22.315c2.546,7.12,6.213,13.803,10.723,19.931
		c3.804,5.908,8.589,11.148,13.837,15.7c5.255,4.562,10.962,8.448,16.817,11.927c2.959,1.302,5.972,2.837,9.171,4.251
		c3.191,1.415,6.571,2.703,10.096,3.495l-0.213-0.214c2.418,1.096,5.753,0.562,7.223,1.492l-0.272-0.012
		c1.307,0.575,3.257-0.384,4.022,0.124l0.239-0.15c1.645,0.121,0.173,0.222,1.434,0.416c0.48,0.021,0.211-0.303,1.196-0.119
		c0.167,0.758,4.041,0.087,4.127,0.872c-0.911-0.03,1.419,0.357-0.634,0.463c0.581,0.121,3.385,0.108,3.132-0.243
		c0.238-0.367,1.318-0.681-0.362-0.967l-0.341,0.262c-0.561-0.268-0.429-0.136-0.628-0.338c-2.188-0.084-2.465-0.49-4.011-0.738
		c0.015,0.01,0.03,0.018,0.005,0.029c-1.086,0.252-2.547-0.062-3.38-0.196l-0.322-0.183c-0.47-0.351-2.528,0.303-1.807-0.139
		c-4.405-0.427-9.396-1.472-14.121-2.94c-0.728,0.003-3.589-1.211-2.691-0.497c-1.043-0.8-4.422-2.231-5.671-2.781
		c0.064-0.018,0.137-0.038,0.325,0.062c-2.18-1.578-3.093-0.795-5.004-2.533c-0.589,0.286-3.888-2.247-5.368-2.499
		c-0.207-0.251-0.241-0.39-0.1-0.408c-3.818-2.314-7.687-5.385-10.529-7.846c-2.77-1.741-5.615-5.386-7.903-7.034
		c-1.477-1.776-3.679-4.766-5.758-7.215l0.244,0.207c-2.206-2.873-4.621-6.692-6.15-8.694c-0.021-1.217-0.861-2.533-1.391-4.017
		c-1.337-2.031-3.228-6.532-4.613-9.961c0.06-0.615-1.047-2.866-0.724-3.162c-1.838-4.835-3.127-10.548-3.6-16.42
		c-0.485-5.872-0.164-11.883,0.758-17.316l0.008,0.162c-0.05-1.44-0.282-3.144-0.305-4.641c0.058-0.137,0.119-0.11,0.063,0.192
		c0.269-2.017,1.017-3.803,1.42-5.78c0.06,0.03,0.06,0.03,0.042,0.363c0.271-1.89,1.26-3.712,1.646-5.928l0.134-0.088l0.305-1.396
		c0.111,0.072,0.276,0.187-0.003,0.893c2.732-8.206,6.622-16.191,11.736-23.454c5.101-7.257,11.425-13.781,18.699-18.976
		l-0.459,0.482c0.888-0.739,1.789-1.465,2.707-2.172c0.02,0.065-0.099,0.183-0.22,0.3c3.757-2.302,7.563-4.874,11.491-6.657
		c0.008,0.064-0.525,0.454,0.047,0.261c2.743-1.666,4.842-1.621,6.066-2.86c0.15-0.02,0.301,0.097,0.018,0.265
		c8.183-3.362,17.247-5.199,26.158-5.438c3.7-0.486,7.668-0.417,11.631-0.039c3.97,0.373,7.927,1.052,11.761,1.705l-0.067,0.118
		c9.916,1.866,19.696,6.683,28.278,12.52c3.512,2.517,5.902,4.212,9.145,7.115l-0.029,0.194c2.912,2.235,5.506,5.125,7.895,8.181
		c2.395,3.063,4.59,6.29,6.904,9.34l-0.469-0.326c0.946,0.806,2.28,4.005,2.551,3.328l0.504,1.267
		c1.588,2.093,2.562,4.275,3.461,6.624c0.895,2.355,1.722,4.872,2.95,7.818l-0.264-0.353c0.64,1.567,1.277,3.446,1.474,4.692
		c-0.07-0.184-0.085-0.086-0.228-0.464c0.874,5.227,2.483,10.907,2.841,16.514l-0.303-0.611c0.543,2.668,0.375,7.636,0.292,11.177
		l-0.11-0.221l0.062,1.801l-0.248,0.029C255.731,613.271,255.277,617.604,254.277,622.005"/>
	<path d="M232.148,662.433c0.011-0.009,0.025-0.022,0.039-0.03C232.27,662.288,232.224,662.338,232.148,662.433"/>
	<path d="M165.742,686.198l0.557,0.089C166.259,686.234,165.921,686.221,165.742,686.198"/>
</g>
<g>
	<path fill="none" stroke="#000000" stroke-width="1.5" stroke-miterlimit="10" d="M232.97,214.599
		c29.443-1.436,59.311,11.445,81.157,30.693c14.313,12.612,17.315,19.068,0.33,30.833c-10.556,7.312-23.032,10.731-35.819,10.721
		c-20.594-0.016-39.03,6.576-60.501,5.825c-18.929-0.661-42.965-6.213-59.744-14.861c-8.691-4.479-13.88-10.01-24.21-12.84
		c-7.597-2.082-20.374-3.496-16.038-14.996c2.892-7.669,19.295-9.536,25.655-12.979c11.745-6.359,24.446-13.627,37.309-17.5
		C197.808,214.47,215.021,215.475,232.97,214.599z"/>
	<path fill="none" stroke="#000000" stroke-width="1.5" stroke-miterlimit="10" d="M185.512,215.768
		c-3.56,16.595-1.368,35.456,8.803,48.999c13.19,17.564,23.467,19.427,44.926,18.583c30.348-1.192,30.165-40.186,30.165-64.086"/>
	<path fill="none" stroke="#000000" stroke-width="1.5" stroke-miterlimit="10" d="M221.633,240.237
		c-8.834,3.919-0.04,22.259,10.195,18.727c11.878-4.1,3.688-19.583-9.085-15.231c-13.308,4.534-5.41,28.166,6.201,21.851
		c7.894-4.293,7.143-33.562-5.968-29.595c-0.544,9.978-1.824,22.908,8.034,28.699c6.472-15.749-4.664-24.829-18.544-24.396
		c-1.028,10.458,2.484,22.895,15.751,19.605c1.625-7.222,1.224-15.557-8.792-12.538c-0.733,4.418,0.881,23.711,10.482,16.999
		c8.43-5.894-1.073-14.396-8.151-12.352c-1.287,21.247,19.389-13.22,1.22-8.999c-2.754,16.086,8.75,14.064,6.699-1.451
		c-33.202-2.357-4.415,29.704,7.417,17.145c4.594-4.876,3.027-17.774-2.644-19.652c-8.602-2.846-11.228,7.219-4.859,10.494
		c0.314-4.54,0.242-9.253,0.11-13.81c-10.634-0.915-14.104,12.609-3.579,13.676c0.517-2.217,0.236-4.634-0.259-6.662
		c-10.93-1.314-4.098,18.608,5.096,17.298"/>
	<path fill="none" stroke="#000000" stroke-width="1.5" stroke-miterlimit="10" d="M143.564,236.742
		c-5.93,2.448-7.671,24.389-3.496,27.964"/>
</g>
<path fill="none" stroke="#000000" stroke-width="1.5" stroke-miterlimit="10" d="M470.5,79c0,12.835,1.42,26.963-1.002,39.502
	c-1.082,5.602-2.707,11.492-4.359,17.024c-1.804,6.039-5.232,11.162-7.24,17.218c-4.564,13.763-3.062,25.528,5.592,37.661
	c4.966,6.962,8.581,4.782,15.611,6.46c8.408,2.006,13.869,6.036,22.971,5.633c11.025-0.487,20.728-7.698,31.277-10.459
	c2.815-0.737,5.929-0.816,8.66-1.527c4.767-1.242,3.449-1.899,5.565-5.986c3.581-6.914,6.255-13.989,3.459-21.989
	c-3.622-10.364-15.458-14.856-21.64-23.16c-4.25-5.708-4.887-12.975-6.506-19.778c-2.354-9.894-9.532-28.914-1.889-38.099"/>
<g>
	<path fill="none" stroke="#000000" stroke-width="1.5" stroke-miterlimit="10" d="M105.149,595.325
		c1.998-0.186,3.92,0.532,6.001,0.256c2.521-0.335,5.539-1.395,7.748-2.251c5.8-2.248,11.804-4.644,17.706-7.206
		c8.663-3.762,15.592-0.156,24.07,2.218c3.541,0.992,7.426,0.296,11.017-0.023c5.25-0.465,10.256-1.123,15.43-1.933
		c3.961-0.62,8.036-1.547,12.101-1.087c5.209,0.591,9.683,4.986,14.372,6.993c4.798,2.054,8.134,4.532,10.305,9.282"/>
	<path fill="none" stroke="#000000" stroke-width="1.5" stroke-miterlimit="10" d="M104.899,594.825
		c0.553,2.404,3.855,5.722,5.305,7.688c3.2,4.34,8.12,5.928,12.889,8.062c5.41,2.422,10.856,4.999,16.273,7.512
		c3.761,1.745,7.77,1.885,11.99,2.889c9.73,2.316,19.652,4.6,29.762,4.6c10.244,0,19.379-2.557,28.52-6.799
		c3.666-1.701,5.775-5.934,8.525-8.763c2.083-2.142,6.034-5.414,5.736-8.438"/>
	<path fill="none" stroke="#000000" stroke-width="1.5" stroke-miterlimit="10" d="M105.899,595.325
		c3.705,3.509,10.563,4.068,15.237,5.456c4.507,1.339,9.405,2.576,14.075,3.311c12.911,2.033,26.321,3.732,39.409,3.732
		c6.364,0,12.252-0.701,18.509-1.256c3.444-0.305,7.139-0.053,10.532-0.793c3.28-0.716,6.164-1.917,9.445-2.445
		c2.766-0.445,5.537-0.79,8.285-1.242c0.512-0.084,0.999-0.19,1.508-0.264"/>
</g>
<g>
	<path fill="none" stroke="#000000" stroke-width="1.5" stroke-miterlimit="10" d="M397.27,522.913
		c6.936-3.604,11.243-12.076,15.326-18.376c4.747-7.332,10.09-9.624,18.405-11.307c16.135-3.261,30.314,0.767,39.462,15.79
		c7.971,13.092,10.495,26.611,10.456,41.758c-0.025,9.765,2.443,15.765-2.149,24.117c-3.912,7.111-6.294,15.011-9.137,22.483
		c-5.589,14.698-8.392,39.151-23.264,48c-4.486,2.669-22.168,4.617-27.758,2.319c-5.757-2.367-10.233-11.017-12.747-15.927"/>
	<path fill="none" stroke="#000000" stroke-width="1.5" stroke-miterlimit="10" d="M411.02,550.414
		c4.18-11.707,23.353-15.873,27.948-2.459c0.825,2.407,1.844,6.102,1.283,8.719c-0.906,4.227-3.564,3.73-5.767,6.859
		c-3.017,4.283-1.739,11.828-1.693,16.74c0.077,7.965,4.663,25.698-8.623,24.6c-10.614-0.878-9.734-15.234-18.877-17.218"/>
</g>
</svg>
